%TF.GenerationSoftware,KiCad,Pcbnew,8.0.5*%
%TF.CreationDate,2025-03-07T15:27:06-05:00*%
%TF.ProjectId,TrainTrackerTest,54726169-6e54-4726-9163-6b6572546573,rev?*%
%TF.SameCoordinates,Original*%
%TF.FileFunction,Copper,L2,Bot*%
%TF.FilePolarity,Positive*%
%FSLAX46Y46*%
G04 Gerber Fmt 4.6, Leading zero omitted, Abs format (unit mm)*
G04 Created by KiCad (PCBNEW 8.0.5) date 2025-03-07 15:27:06*
%MOMM*%
%LPD*%
G01*
G04 APERTURE LIST*
%TA.AperFunction,ComponentPad*%
%ADD10C,0.499999*%
%TD*%
%TA.AperFunction,ComponentPad*%
%ADD11O,2.500000X5.000000*%
%TD*%
%TA.AperFunction,ComponentPad*%
%ADD12O,2.250000X4.500000*%
%TD*%
%TA.AperFunction,ComponentPad*%
%ADD13O,4.500000X2.250000*%
%TD*%
%TA.AperFunction,ComponentPad*%
%ADD14C,1.371600*%
%TD*%
%TA.AperFunction,ComponentPad*%
%ADD15R,1.700000X1.700000*%
%TD*%
%TA.AperFunction,ComponentPad*%
%ADD16O,1.700000X1.700000*%
%TD*%
%TA.AperFunction,ViaPad*%
%ADD17C,0.600000*%
%TD*%
%TA.AperFunction,Conductor*%
%ADD18C,0.200000*%
%TD*%
%TA.AperFunction,Conductor*%
%ADD19C,0.254000*%
%TD*%
G04 APERTURE END LIST*
D10*
%TO.P,U1,V*%
%TO.N,GND*%
X109440638Y-76852202D03*
X109440638Y-77952202D03*
X109440638Y-79152202D03*
X109440638Y-80252202D03*
X110540638Y-76852202D03*
X110540638Y-77952202D03*
X110540638Y-79152202D03*
X110540638Y-80252202D03*
X111640638Y-76852202D03*
X111640638Y-77952202D03*
X111640638Y-79152202D03*
X111640638Y-80252202D03*
%TD*%
%TO.P,U2,V*%
%TO.N,GND*%
X109313719Y-60500401D03*
X109313719Y-61600401D03*
X109313719Y-62800401D03*
X109313719Y-63900401D03*
X110413719Y-60500401D03*
X110413719Y-61600401D03*
X110413719Y-62800401D03*
X110413719Y-63900401D03*
X111513719Y-60500401D03*
X111513719Y-61600401D03*
X111513719Y-62800401D03*
X111513719Y-63900401D03*
%TD*%
D11*
%TO.P,J1,1*%
%TO.N,/5V*%
X111180000Y-93530000D03*
D12*
%TO.P,J1,2*%
%TO.N,GND*%
X117180000Y-93530000D03*
D13*
%TO.P,J1,3*%
%TO.N,unconnected-(J1-Pad3)*%
X114180000Y-88830000D03*
%TD*%
D14*
%TO.P,C1,1*%
%TO.N,GND*%
X101874850Y-99020000D03*
%TO.P,C1,2*%
%TO.N,/5V*%
X106878650Y-99020000D03*
%TD*%
D15*
%TO.P,J2,1,Pin_1*%
%TO.N,/3V3*%
X96644600Y-95656400D03*
D16*
%TO.P,J2,2,Pin_2*%
%TO.N,GND*%
X96644600Y-93116400D03*
%TO.P,J2,3,Pin_3*%
%TO.N,/GSCLK*%
X96644600Y-90576400D03*
%TO.P,J2,4,Pin_4*%
%TO.N,/D2*%
X96644600Y-88036400D03*
%TO.P,J2,5,Pin_5*%
%TO.N,/D4*%
X96644600Y-85496400D03*
%TO.P,J2,6,Pin_6*%
%TO.N,/RX2*%
X96644600Y-82956400D03*
%TO.P,J2,7,Pin_7*%
%TO.N,/TX2*%
X96644600Y-80416400D03*
%TO.P,J2,8,Pin_8*%
%TO.N,/LAT*%
X96644600Y-77876400D03*
%TO.P,J2,9,Pin_9*%
%TO.N,/SCLK*%
X96644600Y-75336400D03*
%TO.P,J2,10,Pin_10*%
%TO.N,/D19*%
X96644600Y-72796400D03*
%TO.P,J2,11,Pin_11*%
%TO.N,/D21*%
X96644600Y-70256400D03*
%TO.P,J2,12,Pin_12*%
%TO.N,/RX0*%
X96644600Y-67716400D03*
%TO.P,J2,13,Pin_13*%
%TO.N,/TX0*%
X96644600Y-65176400D03*
%TO.P,J2,14,Pin_14*%
%TO.N,/D22*%
X96644600Y-62636400D03*
%TO.P,J2,15,Pin_15*%
%TO.N,/DATA*%
X96644600Y-60096400D03*
%TD*%
D15*
%TO.P,J3,1,Pin_1*%
%TO.N,/EN*%
X71314600Y-95656400D03*
D16*
%TO.P,J3,2,Pin_2*%
%TO.N,/VP*%
X71314600Y-93116400D03*
%TO.P,J3,3,Pin_3*%
%TO.N,/VN*%
X71314600Y-90576400D03*
%TO.P,J3,4,Pin_4*%
%TO.N,/D34*%
X71314600Y-88036400D03*
%TO.P,J3,5,Pin_5*%
%TO.N,/D35*%
X71314600Y-85496400D03*
%TO.P,J3,6,Pin_6*%
%TO.N,/D32*%
X71314600Y-82956400D03*
%TO.P,J3,7,Pin_7*%
%TO.N,/D33*%
X71314600Y-80416400D03*
%TO.P,J3,8,Pin_8*%
%TO.N,/D25*%
X71314600Y-77876400D03*
%TO.P,J3,9,Pin_9*%
%TO.N,/D26*%
X71314600Y-75336400D03*
%TO.P,J3,10,Pin_10*%
%TO.N,/D27*%
X71314600Y-72796400D03*
%TO.P,J3,11,Pin_11*%
%TO.N,/D14*%
X71314600Y-70256400D03*
%TO.P,J3,12,Pin_12*%
%TO.N,/D12*%
X71314600Y-67716400D03*
%TO.P,J3,13,Pin_13*%
%TO.N,/D13*%
X71314600Y-65176400D03*
%TO.P,J3,14,Pin_14*%
%TO.N,GND*%
X71314600Y-62636400D03*
%TO.P,J3,15,Pin_15*%
%TO.N,/Vin*%
X71314600Y-60096400D03*
%TD*%
D17*
%TO.N,GND*%
X115750000Y-99110000D03*
%TO.N,/5V*%
X108840000Y-87080000D03*
X104770000Y-86950000D03*
X101803200Y-71302216D03*
X102759548Y-73800148D03*
%TO.N,GND*%
X109960000Y-81870000D03*
X115036600Y-54787800D03*
X73130000Y-62010000D03*
X110963799Y-65405000D03*
X115747800Y-69138800D03*
X117690000Y-73300000D03*
X94386400Y-91338400D03*
X115470000Y-85490000D03*
%TO.N,/SOUT*%
X104569115Y-57950409D03*
X105054400Y-80695800D03*
%TO.N,/LAT*%
X105130600Y-56489600D03*
X108051600Y-54330600D03*
%TD*%
D18*
%TO.N,/5V*%
X108710000Y-86950000D02*
X108840000Y-87080000D01*
D19*
X104770000Y-86950000D02*
X108710000Y-86950000D01*
D18*
X101854000Y-71353016D02*
X101854000Y-72894600D01*
X101803200Y-71302216D02*
X101854000Y-71353016D01*
X101854000Y-72894600D02*
X102759548Y-73800148D01*
%TO.N,/SOUT*%
X104569115Y-57950409D02*
X104530600Y-57988924D01*
X104530600Y-57988924D02*
X104530600Y-80172000D01*
X104530600Y-80172000D02*
X105054400Y-80695800D01*
%TO.N,/LAT*%
X107289600Y-54330600D02*
X105130600Y-56489600D01*
X108051600Y-54330600D02*
X107289600Y-54330600D01*
%TD*%
%TA.AperFunction,Conductor*%
%TO.N,GND*%
G36*
X121062539Y-51880185D02*
G01*
X121108294Y-51932989D01*
X121119500Y-51984500D01*
X121119500Y-104353700D01*
X121099815Y-104420739D01*
X121047011Y-104466494D01*
X120995500Y-104477700D01*
X68494500Y-104477700D01*
X68427461Y-104458015D01*
X68381706Y-104405211D01*
X68370500Y-104353700D01*
X68370500Y-99019999D01*
X100683970Y-99019999D01*
X100683970Y-99020000D01*
X100704246Y-99238819D01*
X100764388Y-99450200D01*
X100764389Y-99450201D01*
X100862337Y-99646908D01*
X100862344Y-99646920D01*
X100876125Y-99665168D01*
X101447571Y-99093723D01*
X101472476Y-99186669D01*
X101529324Y-99285131D01*
X101609719Y-99365526D01*
X101708181Y-99422374D01*
X101801124Y-99447277D01*
X101231836Y-100016565D01*
X101231837Y-100016566D01*
X101344025Y-100086030D01*
X101344031Y-100086032D01*
X101548951Y-100165418D01*
X101764971Y-100205800D01*
X101984729Y-100205800D01*
X102200747Y-100165418D01*
X102200748Y-100165418D01*
X102405670Y-100086032D01*
X102405671Y-100086031D01*
X102517862Y-100016565D01*
X101948575Y-99447277D01*
X102041519Y-99422374D01*
X102139981Y-99365526D01*
X102220376Y-99285131D01*
X102277224Y-99186669D01*
X102302127Y-99093724D01*
X102873572Y-99665168D01*
X102873573Y-99665168D01*
X102887355Y-99646920D01*
X102887357Y-99646915D01*
X102985311Y-99450198D01*
X103045453Y-99238819D01*
X103065730Y-99020000D01*
X105687268Y-99020000D01*
X105707553Y-99238913D01*
X105767719Y-99450379D01*
X105865713Y-99647176D01*
X105865718Y-99647184D01*
X105879299Y-99665168D01*
X105998208Y-99822629D01*
X106160682Y-99970743D01*
X106234687Y-100016565D01*
X106346879Y-100086032D01*
X106347605Y-100086481D01*
X106552613Y-100165902D01*
X106768723Y-100206300D01*
X106768725Y-100206300D01*
X106988575Y-100206300D01*
X106988577Y-100206300D01*
X107204687Y-100165902D01*
X107409695Y-100086481D01*
X107596618Y-99970743D01*
X107759092Y-99822629D01*
X107891583Y-99647182D01*
X107989581Y-99450377D01*
X108049746Y-99238916D01*
X108070032Y-99020000D01*
X108049746Y-98801084D01*
X107989581Y-98589623D01*
X107989580Y-98589620D01*
X107891586Y-98392823D01*
X107891581Y-98392815D01*
X107857118Y-98347179D01*
X107759092Y-98217371D01*
X107596618Y-98069257D01*
X107522610Y-98023433D01*
X107409696Y-97953519D01*
X107409694Y-97953518D01*
X107338932Y-97926105D01*
X107204687Y-97874098D01*
X106988577Y-97833700D01*
X106768723Y-97833700D01*
X106552613Y-97874098D01*
X106495369Y-97896274D01*
X106347605Y-97953518D01*
X106347603Y-97953519D01*
X106160686Y-98069254D01*
X106160684Y-98069255D01*
X106160682Y-98069257D01*
X105998208Y-98217371D01*
X105998207Y-98217372D01*
X105865718Y-98392815D01*
X105865713Y-98392823D01*
X105767719Y-98589620D01*
X105707553Y-98801086D01*
X105687268Y-99020000D01*
X103065730Y-99020000D01*
X103065730Y-99019999D01*
X103045453Y-98801180D01*
X102985311Y-98589799D01*
X102985310Y-98589798D01*
X102887361Y-98393088D01*
X102887356Y-98393081D01*
X102873572Y-98374829D01*
X102302127Y-98946274D01*
X102277224Y-98853331D01*
X102220376Y-98754869D01*
X102139981Y-98674474D01*
X102041519Y-98617626D01*
X101948574Y-98592722D01*
X102517862Y-98023433D01*
X102517861Y-98023432D01*
X102405674Y-97953970D01*
X102405668Y-97953967D01*
X102200748Y-97874581D01*
X101984729Y-97834200D01*
X101764971Y-97834200D01*
X101548952Y-97874581D01*
X101548951Y-97874581D01*
X101344032Y-97953966D01*
X101231836Y-98023433D01*
X101801125Y-98592721D01*
X101708181Y-98617626D01*
X101609719Y-98674474D01*
X101529324Y-98754869D01*
X101472476Y-98853331D01*
X101447572Y-98946275D01*
X100876126Y-98374829D01*
X100862347Y-98393075D01*
X100862339Y-98393088D01*
X100764388Y-98589801D01*
X100704246Y-98801180D01*
X100683970Y-99019999D01*
X68370500Y-99019999D01*
X68370500Y-60096399D01*
X69958941Y-60096399D01*
X69958941Y-60096400D01*
X69979536Y-60331803D01*
X69979538Y-60331813D01*
X70040694Y-60560055D01*
X70040696Y-60560059D01*
X70040697Y-60560063D01*
X70104482Y-60696849D01*
X70140565Y-60774230D01*
X70140567Y-60774234D01*
X70276101Y-60967795D01*
X70276106Y-60967802D01*
X70443197Y-61134893D01*
X70443203Y-61134898D01*
X70629194Y-61265130D01*
X70672819Y-61319707D01*
X70680013Y-61389205D01*
X70648490Y-61451560D01*
X70629195Y-61468280D01*
X70443522Y-61598290D01*
X70443520Y-61598291D01*
X70276491Y-61765320D01*
X70276486Y-61765326D01*
X70141000Y-61958820D01*
X70140999Y-61958822D01*
X70041170Y-62172907D01*
X70041167Y-62172913D01*
X69983964Y-62386399D01*
X69983964Y-62386400D01*
X70881588Y-62386400D01*
X70848675Y-62443407D01*
X70814600Y-62570574D01*
X70814600Y-62702226D01*
X70848675Y-62829393D01*
X70881588Y-62886400D01*
X69983964Y-62886400D01*
X70041167Y-63099886D01*
X70041170Y-63099892D01*
X70140999Y-63313978D01*
X70276494Y-63507482D01*
X70443517Y-63674505D01*
X70629195Y-63804519D01*
X70672819Y-63859096D01*
X70680012Y-63928595D01*
X70648490Y-63990949D01*
X70629195Y-64007669D01*
X70443194Y-64137908D01*
X70276105Y-64304997D01*
X70140565Y-64498569D01*
X70140564Y-64498571D01*
X70040698Y-64712735D01*
X70040694Y-64712744D01*
X69979538Y-64940986D01*
X69979536Y-64940996D01*
X69958941Y-65176399D01*
X69958941Y-65176400D01*
X69979536Y-65411803D01*
X69979538Y-65411813D01*
X70040694Y-65640055D01*
X70040696Y-65640059D01*
X70040697Y-65640063D01*
X70140565Y-65854230D01*
X70140567Y-65854234D01*
X70276101Y-66047795D01*
X70276106Y-66047802D01*
X70443197Y-66214893D01*
X70443203Y-66214898D01*
X70628758Y-66344825D01*
X70672383Y-66399402D01*
X70679577Y-66468900D01*
X70648054Y-66531255D01*
X70628758Y-66547975D01*
X70443197Y-66677905D01*
X70276105Y-66844997D01*
X70140565Y-67038569D01*
X70140564Y-67038571D01*
X70040698Y-67252735D01*
X70040694Y-67252744D01*
X69979538Y-67480986D01*
X69979536Y-67480996D01*
X69958941Y-67716399D01*
X69958941Y-67716400D01*
X69979536Y-67951803D01*
X69979538Y-67951813D01*
X70040694Y-68180055D01*
X70040696Y-68180059D01*
X70040697Y-68180063D01*
X70140565Y-68394230D01*
X70140567Y-68394234D01*
X70276101Y-68587795D01*
X70276106Y-68587802D01*
X70443197Y-68754893D01*
X70443203Y-68754898D01*
X70628758Y-68884825D01*
X70672383Y-68939402D01*
X70679577Y-69008900D01*
X70648054Y-69071255D01*
X70628758Y-69087975D01*
X70443197Y-69217905D01*
X70276105Y-69384997D01*
X70140565Y-69578569D01*
X70140564Y-69578571D01*
X70040698Y-69792735D01*
X70040694Y-69792744D01*
X69979538Y-70020986D01*
X69979536Y-70020996D01*
X69958941Y-70256399D01*
X69958941Y-70256400D01*
X69979536Y-70491803D01*
X69979538Y-70491813D01*
X70040694Y-70720055D01*
X70040696Y-70720059D01*
X70040697Y-70720063D01*
X70077951Y-70799954D01*
X70140565Y-70934230D01*
X70140567Y-70934234D01*
X70248881Y-71088921D01*
X70272719Y-71122966D01*
X70276101Y-71127795D01*
X70276106Y-71127802D01*
X70443197Y-71294893D01*
X70443203Y-71294898D01*
X70628758Y-71424825D01*
X70672383Y-71479402D01*
X70679577Y-71548900D01*
X70648054Y-71611255D01*
X70628758Y-71627975D01*
X70443197Y-71757905D01*
X70276105Y-71924997D01*
X70140565Y-72118569D01*
X70140564Y-72118571D01*
X70040698Y-72332735D01*
X70040694Y-72332744D01*
X69979538Y-72560986D01*
X69979536Y-72560996D01*
X69958941Y-72796399D01*
X69958941Y-72796400D01*
X69979536Y-73031803D01*
X69979538Y-73031813D01*
X70040694Y-73260055D01*
X70040696Y-73260059D01*
X70040697Y-73260063D01*
X70094349Y-73375120D01*
X70140565Y-73474230D01*
X70140567Y-73474234D01*
X70276101Y-73667795D01*
X70276106Y-73667802D01*
X70443197Y-73834893D01*
X70443203Y-73834898D01*
X70628758Y-73964825D01*
X70672383Y-74019402D01*
X70679577Y-74088900D01*
X70648054Y-74151255D01*
X70628758Y-74167975D01*
X70443197Y-74297905D01*
X70276105Y-74464997D01*
X70140565Y-74658569D01*
X70140564Y-74658571D01*
X70040698Y-74872735D01*
X70040694Y-74872744D01*
X69979538Y-75100986D01*
X69979536Y-75100996D01*
X69958941Y-75336399D01*
X69958941Y-75336400D01*
X69979536Y-75571803D01*
X69979538Y-75571813D01*
X70040694Y-75800055D01*
X70040696Y-75800059D01*
X70040697Y-75800063D01*
X70140565Y-76014230D01*
X70140567Y-76014234D01*
X70276101Y-76207795D01*
X70276106Y-76207802D01*
X70443197Y-76374893D01*
X70443203Y-76374898D01*
X70628758Y-76504825D01*
X70672383Y-76559402D01*
X70679577Y-76628900D01*
X70648054Y-76691255D01*
X70628758Y-76707975D01*
X70443197Y-76837905D01*
X70276105Y-77004997D01*
X70140565Y-77198569D01*
X70140564Y-77198571D01*
X70040698Y-77412735D01*
X70040694Y-77412744D01*
X69979538Y-77640986D01*
X69979536Y-77640996D01*
X69958941Y-77876399D01*
X69958941Y-77876400D01*
X69979536Y-78111803D01*
X69979538Y-78111813D01*
X70040694Y-78340055D01*
X70040696Y-78340059D01*
X70040697Y-78340063D01*
X70139619Y-78552202D01*
X70140565Y-78554230D01*
X70140567Y-78554234D01*
X70276101Y-78747795D01*
X70276106Y-78747802D01*
X70443197Y-78914893D01*
X70443203Y-78914898D01*
X70628758Y-79044825D01*
X70672383Y-79099402D01*
X70679577Y-79168900D01*
X70648054Y-79231255D01*
X70628758Y-79247975D01*
X70443197Y-79377905D01*
X70276105Y-79544997D01*
X70140565Y-79738569D01*
X70140564Y-79738571D01*
X70040698Y-79952735D01*
X70040694Y-79952744D01*
X69979538Y-80180986D01*
X69979536Y-80180996D01*
X69958941Y-80416399D01*
X69958941Y-80416400D01*
X69979536Y-80651803D01*
X69979538Y-80651813D01*
X70040694Y-80880055D01*
X70040696Y-80880059D01*
X70040697Y-80880063D01*
X70065134Y-80932468D01*
X70140565Y-81094230D01*
X70140567Y-81094234D01*
X70276101Y-81287795D01*
X70276106Y-81287802D01*
X70443197Y-81454893D01*
X70443203Y-81454898D01*
X70628758Y-81584825D01*
X70672383Y-81639402D01*
X70679577Y-81708900D01*
X70648054Y-81771255D01*
X70628758Y-81787975D01*
X70443197Y-81917905D01*
X70276105Y-82084997D01*
X70140565Y-82278569D01*
X70140564Y-82278571D01*
X70040698Y-82492735D01*
X70040694Y-82492744D01*
X69979538Y-82720986D01*
X69979536Y-82720996D01*
X69958941Y-82956399D01*
X69958941Y-82956400D01*
X69979536Y-83191803D01*
X69979538Y-83191813D01*
X70040694Y-83420055D01*
X70040696Y-83420059D01*
X70040697Y-83420063D01*
X70140565Y-83634230D01*
X70140567Y-83634234D01*
X70276101Y-83827795D01*
X70276106Y-83827802D01*
X70443197Y-83994893D01*
X70443203Y-83994898D01*
X70628758Y-84124825D01*
X70672383Y-84179402D01*
X70679577Y-84248900D01*
X70648054Y-84311255D01*
X70628758Y-84327975D01*
X70443197Y-84457905D01*
X70276105Y-84624997D01*
X70140565Y-84818569D01*
X70140564Y-84818571D01*
X70040698Y-85032735D01*
X70040694Y-85032744D01*
X69979538Y-85260986D01*
X69979536Y-85260996D01*
X69958941Y-85496399D01*
X69958941Y-85496400D01*
X69979536Y-85731803D01*
X69979538Y-85731813D01*
X70040694Y-85960055D01*
X70040696Y-85960059D01*
X70040697Y-85960063D01*
X70126671Y-86144435D01*
X70140565Y-86174230D01*
X70140567Y-86174234D01*
X70276101Y-86367795D01*
X70276106Y-86367802D01*
X70443197Y-86534893D01*
X70443203Y-86534898D01*
X70628758Y-86664825D01*
X70672383Y-86719402D01*
X70679577Y-86788900D01*
X70648054Y-86851255D01*
X70628758Y-86867975D01*
X70443197Y-86997905D01*
X70276105Y-87164997D01*
X70140565Y-87358569D01*
X70140564Y-87358571D01*
X70040698Y-87572735D01*
X70040694Y-87572744D01*
X69979538Y-87800986D01*
X69979536Y-87800996D01*
X69958941Y-88036399D01*
X69958941Y-88036400D01*
X69979536Y-88271803D01*
X69979538Y-88271813D01*
X70040694Y-88500055D01*
X70040696Y-88500059D01*
X70040697Y-88500063D01*
X70134895Y-88702070D01*
X70140565Y-88714230D01*
X70140567Y-88714234D01*
X70276101Y-88907795D01*
X70276106Y-88907802D01*
X70443197Y-89074893D01*
X70443203Y-89074898D01*
X70628758Y-89204825D01*
X70672383Y-89259402D01*
X70679577Y-89328900D01*
X70648054Y-89391255D01*
X70628758Y-89407975D01*
X70443197Y-89537905D01*
X70276105Y-89704997D01*
X70140565Y-89898569D01*
X70140564Y-89898571D01*
X70040698Y-90112735D01*
X70040694Y-90112744D01*
X69979538Y-90340986D01*
X69979536Y-90340996D01*
X69958941Y-90576399D01*
X69958941Y-90576400D01*
X69979536Y-90811803D01*
X69979538Y-90811813D01*
X70040694Y-91040055D01*
X70040696Y-91040059D01*
X70040697Y-91040063D01*
X70099199Y-91165521D01*
X70140565Y-91254230D01*
X70140567Y-91254234D01*
X70276101Y-91447795D01*
X70276106Y-91447802D01*
X70443197Y-91614893D01*
X70443203Y-91614898D01*
X70628758Y-91744825D01*
X70672383Y-91799402D01*
X70679577Y-91868900D01*
X70648054Y-91931255D01*
X70628758Y-91947975D01*
X70443197Y-92077905D01*
X70276105Y-92244997D01*
X70140565Y-92438569D01*
X70140564Y-92438571D01*
X70040698Y-92652735D01*
X70040694Y-92652744D01*
X69979538Y-92880986D01*
X69979536Y-92880996D01*
X69958941Y-93116399D01*
X69958941Y-93116400D01*
X69979536Y-93351803D01*
X69979538Y-93351813D01*
X70040694Y-93580055D01*
X70040696Y-93580059D01*
X70040697Y-93580063D01*
X70133929Y-93780000D01*
X70140565Y-93794230D01*
X70140567Y-93794234D01*
X70248881Y-93948921D01*
X70276101Y-93987796D01*
X70276106Y-93987802D01*
X70398030Y-94109726D01*
X70431515Y-94171049D01*
X70426531Y-94240741D01*
X70384659Y-94296674D01*
X70353683Y-94313589D01*
X70222269Y-94362603D01*
X70222264Y-94362606D01*
X70107055Y-94448852D01*
X70107052Y-94448855D01*
X70020806Y-94564064D01*
X70020802Y-94564071D01*
X69970508Y-94698917D01*
X69967920Y-94722993D01*
X69964101Y-94758523D01*
X69964100Y-94758535D01*
X69964100Y-96554270D01*
X69964101Y-96554276D01*
X69970508Y-96613883D01*
X70020802Y-96748728D01*
X70020806Y-96748735D01*
X70107052Y-96863944D01*
X70107055Y-96863947D01*
X70222264Y-96950193D01*
X70222271Y-96950197D01*
X70357117Y-97000491D01*
X70357116Y-97000491D01*
X70364044Y-97001235D01*
X70416727Y-97006900D01*
X72212472Y-97006899D01*
X72272083Y-97000491D01*
X72406931Y-96950196D01*
X72522146Y-96863946D01*
X72608396Y-96748731D01*
X72658691Y-96613883D01*
X72665100Y-96554273D01*
X72665099Y-94758528D01*
X72658691Y-94698917D01*
X72608396Y-94564069D01*
X72608395Y-94564068D01*
X72608393Y-94564064D01*
X72522147Y-94448855D01*
X72522144Y-94448852D01*
X72406935Y-94362606D01*
X72406928Y-94362602D01*
X72275517Y-94313589D01*
X72219583Y-94271718D01*
X72195166Y-94206253D01*
X72210018Y-94137980D01*
X72231163Y-94109732D01*
X72353095Y-93987801D01*
X72488635Y-93794230D01*
X72588503Y-93580063D01*
X72649663Y-93351808D01*
X72670259Y-93116400D01*
X72649663Y-92880992D01*
X72588503Y-92652737D01*
X72488635Y-92438571D01*
X72417520Y-92337007D01*
X72353094Y-92244997D01*
X72186002Y-92077906D01*
X72185996Y-92077901D01*
X72000442Y-91947975D01*
X71956817Y-91893398D01*
X71949623Y-91823900D01*
X71981146Y-91761545D01*
X72000442Y-91744825D01*
X72041448Y-91716112D01*
X72186001Y-91614895D01*
X72353095Y-91447801D01*
X72488635Y-91254230D01*
X72588503Y-91040063D01*
X72649663Y-90811808D01*
X72670259Y-90576400D01*
X72649663Y-90340992D01*
X72588503Y-90112737D01*
X72488635Y-89898571D01*
X72481892Y-89888940D01*
X72353094Y-89704997D01*
X72186002Y-89537906D01*
X72185996Y-89537901D01*
X72000442Y-89407975D01*
X71956817Y-89353398D01*
X71949623Y-89283900D01*
X71981146Y-89221545D01*
X72000442Y-89204825D01*
X72022626Y-89189291D01*
X72186001Y-89074895D01*
X72353095Y-88907801D01*
X72488635Y-88714230D01*
X72588503Y-88500063D01*
X72649663Y-88271808D01*
X72670259Y-88036400D01*
X72649663Y-87800992D01*
X72603226Y-87627685D01*
X72588505Y-87572744D01*
X72588504Y-87572743D01*
X72588503Y-87572737D01*
X72488635Y-87358571D01*
X72464142Y-87323590D01*
X72353094Y-87164997D01*
X72186002Y-86997906D01*
X72185996Y-86997901D01*
X72000442Y-86867975D01*
X71956817Y-86813398D01*
X71949623Y-86743900D01*
X71981146Y-86681545D01*
X72000442Y-86664825D01*
X72092339Y-86600478D01*
X72186001Y-86534895D01*
X72353095Y-86367801D01*
X72488635Y-86174230D01*
X72588503Y-85960063D01*
X72649663Y-85731808D01*
X72670259Y-85496400D01*
X72649663Y-85260992D01*
X72588503Y-85032737D01*
X72488635Y-84818571D01*
X72353095Y-84624999D01*
X72353094Y-84624997D01*
X72186002Y-84457906D01*
X72185996Y-84457901D01*
X72000442Y-84327975D01*
X71956817Y-84273398D01*
X71949623Y-84203900D01*
X71981146Y-84141545D01*
X72000442Y-84124825D01*
X72022626Y-84109291D01*
X72186001Y-83994895D01*
X72353095Y-83827801D01*
X72488635Y-83634230D01*
X72588503Y-83420063D01*
X72649663Y-83191808D01*
X72670259Y-82956400D01*
X72649663Y-82720992D01*
X72588503Y-82492737D01*
X72488635Y-82278571D01*
X72353095Y-82084999D01*
X72353094Y-82084997D01*
X72186002Y-81917906D01*
X72185996Y-81917901D01*
X72000442Y-81787975D01*
X71956817Y-81733398D01*
X71949623Y-81663900D01*
X71981146Y-81601545D01*
X72000442Y-81584825D01*
X72119635Y-81501365D01*
X72186001Y-81454895D01*
X72353095Y-81287801D01*
X72488635Y-81094230D01*
X72588503Y-80880063D01*
X72649663Y-80651808D01*
X72670259Y-80416400D01*
X72649663Y-80180992D01*
X72603226Y-80007685D01*
X72588505Y-79952744D01*
X72588504Y-79952743D01*
X72588503Y-79952737D01*
X72488635Y-79738571D01*
X72463170Y-79702202D01*
X72353094Y-79544997D01*
X72186002Y-79377906D01*
X72185996Y-79377901D01*
X72000442Y-79247975D01*
X71956817Y-79193398D01*
X71949623Y-79123900D01*
X71981146Y-79061545D01*
X72000442Y-79044825D01*
X72064741Y-78999802D01*
X72186001Y-78914895D01*
X72353095Y-78747801D01*
X72488635Y-78554230D01*
X72588503Y-78340063D01*
X72649663Y-78111808D01*
X72670259Y-77876400D01*
X72649663Y-77640992D01*
X72588503Y-77412737D01*
X72488635Y-77198571D01*
X72474873Y-77178916D01*
X72353094Y-77004997D01*
X72186002Y-76837906D01*
X72185996Y-76837901D01*
X72000442Y-76707975D01*
X71956817Y-76653398D01*
X71949623Y-76583900D01*
X71981146Y-76521545D01*
X72000442Y-76504825D01*
X72022626Y-76489291D01*
X72186001Y-76374895D01*
X72353095Y-76207801D01*
X72488635Y-76014230D01*
X72588503Y-75800063D01*
X72649663Y-75571808D01*
X72670259Y-75336400D01*
X72649663Y-75100992D01*
X72588503Y-74872737D01*
X72488635Y-74658571D01*
X72437483Y-74585517D01*
X72353094Y-74464997D01*
X72186002Y-74297906D01*
X72185996Y-74297901D01*
X72000442Y-74167975D01*
X71956817Y-74113398D01*
X71949623Y-74043900D01*
X71981146Y-73981545D01*
X72000442Y-73964825D01*
X72103764Y-73892478D01*
X72186001Y-73834895D01*
X72353095Y-73667801D01*
X72488635Y-73474230D01*
X72588503Y-73260063D01*
X72649663Y-73031808D01*
X72670259Y-72796400D01*
X72649663Y-72560992D01*
X72588503Y-72332737D01*
X72488635Y-72118571D01*
X72360768Y-71935956D01*
X72353094Y-71924997D01*
X72186002Y-71757906D01*
X72185996Y-71757901D01*
X72000442Y-71627975D01*
X71956817Y-71573398D01*
X71949623Y-71503900D01*
X71981146Y-71441545D01*
X72000442Y-71424825D01*
X72175541Y-71302219D01*
X72186001Y-71294895D01*
X72353095Y-71127801D01*
X72488635Y-70934230D01*
X72588503Y-70720063D01*
X72649663Y-70491808D01*
X72670259Y-70256400D01*
X72649663Y-70020992D01*
X72588503Y-69792737D01*
X72488635Y-69578571D01*
X72353095Y-69384999D01*
X72353094Y-69384997D01*
X72186002Y-69217906D01*
X72185996Y-69217901D01*
X72000442Y-69087975D01*
X71956817Y-69033398D01*
X71949623Y-68963900D01*
X71981146Y-68901545D01*
X72000442Y-68884825D01*
X72022626Y-68869291D01*
X72186001Y-68754895D01*
X72353095Y-68587801D01*
X72488635Y-68394230D01*
X72588503Y-68180063D01*
X72649663Y-67951808D01*
X72670259Y-67716400D01*
X72649663Y-67480992D01*
X72588503Y-67252737D01*
X72488635Y-67038571D01*
X72353095Y-66844999D01*
X72353094Y-66844997D01*
X72186002Y-66677906D01*
X72185996Y-66677901D01*
X72000442Y-66547975D01*
X71956817Y-66493398D01*
X71949623Y-66423900D01*
X71981146Y-66361545D01*
X72000442Y-66344825D01*
X72022626Y-66329291D01*
X72186001Y-66214895D01*
X72353095Y-66047801D01*
X72488635Y-65854230D01*
X72588503Y-65640063D01*
X72649663Y-65411808D01*
X72670259Y-65176400D01*
X72649663Y-64940992D01*
X72588503Y-64712737D01*
X72488635Y-64498571D01*
X72353095Y-64304999D01*
X72353094Y-64304997D01*
X72186002Y-64137906D01*
X72186001Y-64137905D01*
X72000005Y-64007669D01*
X71956381Y-63953092D01*
X71949188Y-63883593D01*
X71980710Y-63821239D01*
X72000005Y-63804519D01*
X72185682Y-63674505D01*
X72352705Y-63507482D01*
X72488200Y-63313978D01*
X72588029Y-63099892D01*
X72588032Y-63099886D01*
X72645236Y-62886400D01*
X71747612Y-62886400D01*
X71780525Y-62829393D01*
X71814600Y-62702226D01*
X71814600Y-62570574D01*
X71780525Y-62443407D01*
X71747612Y-62386400D01*
X72645236Y-62386400D01*
X72645235Y-62386399D01*
X72588032Y-62172913D01*
X72588029Y-62172907D01*
X72488200Y-61958822D01*
X72488199Y-61958820D01*
X72352713Y-61765326D01*
X72352708Y-61765320D01*
X72185678Y-61598290D01*
X72000005Y-61468279D01*
X71956380Y-61413702D01*
X71949188Y-61344204D01*
X71980710Y-61281849D01*
X72000006Y-61265130D01*
X72026114Y-61246849D01*
X72186001Y-61134895D01*
X72353095Y-60967801D01*
X72488635Y-60774230D01*
X72588503Y-60560063D01*
X72649663Y-60331808D01*
X72670259Y-60096400D01*
X72670259Y-60096399D01*
X95288941Y-60096399D01*
X95288941Y-60096400D01*
X95309536Y-60331803D01*
X95309538Y-60331813D01*
X95370694Y-60560055D01*
X95370696Y-60560059D01*
X95370697Y-60560063D01*
X95434482Y-60696849D01*
X95470565Y-60774230D01*
X95470567Y-60774234D01*
X95606101Y-60967795D01*
X95606106Y-60967802D01*
X95773197Y-61134893D01*
X95773203Y-61134898D01*
X95958758Y-61264825D01*
X96002383Y-61319402D01*
X96009577Y-61388900D01*
X95978054Y-61451255D01*
X95958758Y-61467975D01*
X95773197Y-61597905D01*
X95606105Y-61764997D01*
X95470565Y-61958569D01*
X95470564Y-61958571D01*
X95370698Y-62172735D01*
X95370694Y-62172744D01*
X95309538Y-62400986D01*
X95309536Y-62400996D01*
X95288941Y-62636399D01*
X95288941Y-62636400D01*
X95309536Y-62871803D01*
X95309538Y-62871813D01*
X95370694Y-63100055D01*
X95370696Y-63100059D01*
X95370697Y-63100063D01*
X95470447Y-63313978D01*
X95470565Y-63314230D01*
X95470567Y-63314234D01*
X95606101Y-63507795D01*
X95606106Y-63507802D01*
X95773197Y-63674893D01*
X95773203Y-63674898D01*
X95958758Y-63804825D01*
X96002383Y-63859402D01*
X96009577Y-63928900D01*
X95978054Y-63991255D01*
X95958758Y-64007975D01*
X95773197Y-64137905D01*
X95606105Y-64304997D01*
X95470565Y-64498569D01*
X95470564Y-64498571D01*
X95370698Y-64712735D01*
X95370694Y-64712744D01*
X95309538Y-64940986D01*
X95309536Y-64940996D01*
X95288941Y-65176399D01*
X95288941Y-65176400D01*
X95309536Y-65411803D01*
X95309538Y-65411813D01*
X95370694Y-65640055D01*
X95370696Y-65640059D01*
X95370697Y-65640063D01*
X95470565Y-65854230D01*
X95470567Y-65854234D01*
X95606101Y-66047795D01*
X95606106Y-66047802D01*
X95773197Y-66214893D01*
X95773203Y-66214898D01*
X95958758Y-66344825D01*
X96002383Y-66399402D01*
X96009577Y-66468900D01*
X95978054Y-66531255D01*
X95958758Y-66547975D01*
X95773197Y-66677905D01*
X95606105Y-66844997D01*
X95470565Y-67038569D01*
X95470564Y-67038571D01*
X95370698Y-67252735D01*
X95370694Y-67252744D01*
X95309538Y-67480986D01*
X95309536Y-67480996D01*
X95288941Y-67716399D01*
X95288941Y-67716400D01*
X95309536Y-67951803D01*
X95309538Y-67951813D01*
X95370694Y-68180055D01*
X95370696Y-68180059D01*
X95370697Y-68180063D01*
X95470565Y-68394230D01*
X95470567Y-68394234D01*
X95606101Y-68587795D01*
X95606106Y-68587802D01*
X95773197Y-68754893D01*
X95773203Y-68754898D01*
X95958758Y-68884825D01*
X96002383Y-68939402D01*
X96009577Y-69008900D01*
X95978054Y-69071255D01*
X95958758Y-69087975D01*
X95773197Y-69217905D01*
X95606105Y-69384997D01*
X95470565Y-69578569D01*
X95470564Y-69578571D01*
X95370698Y-69792735D01*
X95370694Y-69792744D01*
X95309538Y-70020986D01*
X95309536Y-70020996D01*
X95288941Y-70256399D01*
X95288941Y-70256400D01*
X95309536Y-70491803D01*
X95309538Y-70491813D01*
X95370694Y-70720055D01*
X95370696Y-70720059D01*
X95370697Y-70720063D01*
X95407951Y-70799954D01*
X95470565Y-70934230D01*
X95470567Y-70934234D01*
X95578881Y-71088921D01*
X95602719Y-71122966D01*
X95606101Y-71127795D01*
X95606106Y-71127802D01*
X95773197Y-71294893D01*
X95773203Y-71294898D01*
X95958758Y-71424825D01*
X96002383Y-71479402D01*
X96009577Y-71548900D01*
X95978054Y-71611255D01*
X95958758Y-71627975D01*
X95773197Y-71757905D01*
X95606105Y-71924997D01*
X95470565Y-72118569D01*
X95470564Y-72118571D01*
X95370698Y-72332735D01*
X95370694Y-72332744D01*
X95309538Y-72560986D01*
X95309536Y-72560996D01*
X95288941Y-72796399D01*
X95288941Y-72796400D01*
X95309536Y-73031803D01*
X95309538Y-73031813D01*
X95370694Y-73260055D01*
X95370696Y-73260059D01*
X95370697Y-73260063D01*
X95424349Y-73375120D01*
X95470565Y-73474230D01*
X95470567Y-73474234D01*
X95606101Y-73667795D01*
X95606106Y-73667802D01*
X95773197Y-73834893D01*
X95773203Y-73834898D01*
X95958758Y-73964825D01*
X96002383Y-74019402D01*
X96009577Y-74088900D01*
X95978054Y-74151255D01*
X95958758Y-74167975D01*
X95773197Y-74297905D01*
X95606105Y-74464997D01*
X95470565Y-74658569D01*
X95470564Y-74658571D01*
X95370698Y-74872735D01*
X95370694Y-74872744D01*
X95309538Y-75100986D01*
X95309536Y-75100996D01*
X95288941Y-75336399D01*
X95288941Y-75336400D01*
X95309536Y-75571803D01*
X95309538Y-75571813D01*
X95370694Y-75800055D01*
X95370696Y-75800059D01*
X95370697Y-75800063D01*
X95470565Y-76014230D01*
X95470567Y-76014234D01*
X95606101Y-76207795D01*
X95606106Y-76207802D01*
X95773197Y-76374893D01*
X95773203Y-76374898D01*
X95958758Y-76504825D01*
X96002383Y-76559402D01*
X96009577Y-76628900D01*
X95978054Y-76691255D01*
X95958758Y-76707975D01*
X95773197Y-76837905D01*
X95606105Y-77004997D01*
X95470565Y-77198569D01*
X95470564Y-77198571D01*
X95370698Y-77412735D01*
X95370694Y-77412744D01*
X95309538Y-77640986D01*
X95309536Y-77640996D01*
X95288941Y-77876399D01*
X95288941Y-77876400D01*
X95309536Y-78111803D01*
X95309538Y-78111813D01*
X95370694Y-78340055D01*
X95370696Y-78340059D01*
X95370697Y-78340063D01*
X95469619Y-78552202D01*
X95470565Y-78554230D01*
X95470567Y-78554234D01*
X95606101Y-78747795D01*
X95606106Y-78747802D01*
X95773197Y-78914893D01*
X95773203Y-78914898D01*
X95958758Y-79044825D01*
X96002383Y-79099402D01*
X96009577Y-79168900D01*
X95978054Y-79231255D01*
X95958758Y-79247975D01*
X95773197Y-79377905D01*
X95606105Y-79544997D01*
X95470565Y-79738569D01*
X95470564Y-79738571D01*
X95370698Y-79952735D01*
X95370694Y-79952744D01*
X95309538Y-80180986D01*
X95309536Y-80180996D01*
X95288941Y-80416399D01*
X95288941Y-80416400D01*
X95309536Y-80651803D01*
X95309538Y-80651813D01*
X95370694Y-80880055D01*
X95370696Y-80880059D01*
X95370697Y-80880063D01*
X95395134Y-80932468D01*
X95470565Y-81094230D01*
X95470567Y-81094234D01*
X95606101Y-81287795D01*
X95606106Y-81287802D01*
X95773197Y-81454893D01*
X95773203Y-81454898D01*
X95958758Y-81584825D01*
X96002383Y-81639402D01*
X96009577Y-81708900D01*
X95978054Y-81771255D01*
X95958758Y-81787975D01*
X95773197Y-81917905D01*
X95606105Y-82084997D01*
X95470565Y-82278569D01*
X95470564Y-82278571D01*
X95370698Y-82492735D01*
X95370694Y-82492744D01*
X95309538Y-82720986D01*
X95309536Y-82720996D01*
X95288941Y-82956399D01*
X95288941Y-82956400D01*
X95309536Y-83191803D01*
X95309538Y-83191813D01*
X95370694Y-83420055D01*
X95370696Y-83420059D01*
X95370697Y-83420063D01*
X95470565Y-83634230D01*
X95470567Y-83634234D01*
X95606101Y-83827795D01*
X95606106Y-83827802D01*
X95773197Y-83994893D01*
X95773203Y-83994898D01*
X95958758Y-84124825D01*
X96002383Y-84179402D01*
X96009577Y-84248900D01*
X95978054Y-84311255D01*
X95958758Y-84327975D01*
X95773197Y-84457905D01*
X95606105Y-84624997D01*
X95470565Y-84818569D01*
X95470564Y-84818571D01*
X95370698Y-85032735D01*
X95370694Y-85032744D01*
X95309538Y-85260986D01*
X95309536Y-85260996D01*
X95288941Y-85496399D01*
X95288941Y-85496400D01*
X95309536Y-85731803D01*
X95309538Y-85731813D01*
X95370694Y-85960055D01*
X95370696Y-85960059D01*
X95370697Y-85960063D01*
X95456671Y-86144435D01*
X95470565Y-86174230D01*
X95470567Y-86174234D01*
X95606101Y-86367795D01*
X95606106Y-86367802D01*
X95773197Y-86534893D01*
X95773203Y-86534898D01*
X95958758Y-86664825D01*
X96002383Y-86719402D01*
X96009577Y-86788900D01*
X95978054Y-86851255D01*
X95958758Y-86867975D01*
X95773197Y-86997905D01*
X95606105Y-87164997D01*
X95470565Y-87358569D01*
X95470564Y-87358571D01*
X95370698Y-87572735D01*
X95370694Y-87572744D01*
X95309538Y-87800986D01*
X95309536Y-87800996D01*
X95288941Y-88036399D01*
X95288941Y-88036400D01*
X95309536Y-88271803D01*
X95309538Y-88271813D01*
X95370694Y-88500055D01*
X95370696Y-88500059D01*
X95370697Y-88500063D01*
X95464895Y-88702070D01*
X95470565Y-88714230D01*
X95470567Y-88714234D01*
X95606101Y-88907795D01*
X95606106Y-88907802D01*
X95773197Y-89074893D01*
X95773203Y-89074898D01*
X95958758Y-89204825D01*
X96002383Y-89259402D01*
X96009577Y-89328900D01*
X95978054Y-89391255D01*
X95958758Y-89407975D01*
X95773197Y-89537905D01*
X95606105Y-89704997D01*
X95470565Y-89898569D01*
X95470564Y-89898571D01*
X95370698Y-90112735D01*
X95370694Y-90112744D01*
X95309538Y-90340986D01*
X95309536Y-90340996D01*
X95288941Y-90576399D01*
X95288941Y-90576400D01*
X95309536Y-90811803D01*
X95309538Y-90811813D01*
X95370694Y-91040055D01*
X95370696Y-91040059D01*
X95370697Y-91040063D01*
X95429199Y-91165521D01*
X95470565Y-91254230D01*
X95470567Y-91254234D01*
X95606101Y-91447795D01*
X95606106Y-91447802D01*
X95773197Y-91614893D01*
X95773203Y-91614898D01*
X95959194Y-91745130D01*
X96002819Y-91799707D01*
X96010013Y-91869205D01*
X95978490Y-91931560D01*
X95959195Y-91948280D01*
X95773522Y-92078290D01*
X95773520Y-92078291D01*
X95606491Y-92245320D01*
X95606486Y-92245326D01*
X95471000Y-92438820D01*
X95470999Y-92438822D01*
X95371170Y-92652907D01*
X95371167Y-92652913D01*
X95313964Y-92866399D01*
X95313964Y-92866400D01*
X96211588Y-92866400D01*
X96178675Y-92923407D01*
X96144600Y-93050574D01*
X96144600Y-93182226D01*
X96178675Y-93309393D01*
X96211588Y-93366400D01*
X95313964Y-93366400D01*
X95371167Y-93579886D01*
X95371170Y-93579892D01*
X95470999Y-93793978D01*
X95606494Y-93987482D01*
X95728546Y-94109534D01*
X95762031Y-94170857D01*
X95757047Y-94240549D01*
X95715175Y-94296482D01*
X95684198Y-94313397D01*
X95552271Y-94362602D01*
X95552264Y-94362606D01*
X95437055Y-94448852D01*
X95437052Y-94448855D01*
X95350806Y-94564064D01*
X95350802Y-94564071D01*
X95300508Y-94698917D01*
X95297920Y-94722993D01*
X95294101Y-94758523D01*
X95294100Y-94758535D01*
X95294100Y-96554270D01*
X95294101Y-96554276D01*
X95300508Y-96613883D01*
X95350802Y-96748728D01*
X95350806Y-96748735D01*
X95437052Y-96863944D01*
X95437055Y-96863947D01*
X95552264Y-96950193D01*
X95552271Y-96950197D01*
X95687117Y-97000491D01*
X95687116Y-97000491D01*
X95694044Y-97001235D01*
X95746727Y-97006900D01*
X97542472Y-97006899D01*
X97602083Y-97000491D01*
X97736931Y-96950196D01*
X97852146Y-96863946D01*
X97938396Y-96748731D01*
X97988691Y-96613883D01*
X97995100Y-96554273D01*
X97995099Y-94758528D01*
X97988691Y-94698917D01*
X97938396Y-94564069D01*
X97938395Y-94564068D01*
X97938393Y-94564064D01*
X97852147Y-94448855D01*
X97852144Y-94448852D01*
X97736935Y-94362606D01*
X97736928Y-94362602D01*
X97605001Y-94313397D01*
X97549067Y-94271526D01*
X97524650Y-94206062D01*
X97539502Y-94137789D01*
X97560653Y-94109533D01*
X97682708Y-93987478D01*
X97818200Y-93793978D01*
X97918029Y-93579892D01*
X97918032Y-93579886D01*
X97975236Y-93366400D01*
X97077612Y-93366400D01*
X97110525Y-93309393D01*
X97144600Y-93182226D01*
X97144600Y-93050574D01*
X97110525Y-92923407D01*
X97077612Y-92866400D01*
X97975236Y-92866400D01*
X97975235Y-92866399D01*
X97918032Y-92652913D01*
X97918029Y-92652907D01*
X97818200Y-92438822D01*
X97818199Y-92438820D01*
X97682713Y-92245326D01*
X97682708Y-92245320D01*
X97602646Y-92165258D01*
X109429500Y-92165258D01*
X109429500Y-94894741D01*
X109454446Y-95084215D01*
X109459452Y-95122238D01*
X109459453Y-95122240D01*
X109518842Y-95343887D01*
X109606650Y-95555876D01*
X109606657Y-95555890D01*
X109721392Y-95754617D01*
X109861081Y-95936661D01*
X109861089Y-95936670D01*
X110023330Y-96098911D01*
X110023338Y-96098918D01*
X110205382Y-96238607D01*
X110205385Y-96238608D01*
X110205388Y-96238611D01*
X110404112Y-96353344D01*
X110404117Y-96353346D01*
X110404123Y-96353349D01*
X110495480Y-96391190D01*
X110616113Y-96441158D01*
X110837762Y-96500548D01*
X111065266Y-96530500D01*
X111065273Y-96530500D01*
X111294727Y-96530500D01*
X111294734Y-96530500D01*
X111522238Y-96500548D01*
X111743887Y-96441158D01*
X111955888Y-96353344D01*
X112154612Y-96238611D01*
X112336661Y-96098919D01*
X112336665Y-96098914D01*
X112336670Y-96098911D01*
X112498911Y-95936670D01*
X112498914Y-95936665D01*
X112498919Y-95936661D01*
X112638611Y-95754612D01*
X112753344Y-95555888D01*
X112841158Y-95343887D01*
X112900548Y-95122238D01*
X112930500Y-94894734D01*
X112930500Y-92277110D01*
X115555000Y-92277110D01*
X115555000Y-93280000D01*
X116680000Y-93280000D01*
X116680000Y-93780000D01*
X115555000Y-93780000D01*
X115555000Y-94782889D01*
X115595013Y-95035523D01*
X115674051Y-95278781D01*
X115674052Y-95278784D01*
X115790175Y-95506686D01*
X115940521Y-95713619D01*
X116121380Y-95894478D01*
X116328313Y-96044824D01*
X116556215Y-96160947D01*
X116556218Y-96160948D01*
X116799475Y-96239986D01*
X116930000Y-96260659D01*
X116930000Y-94963012D01*
X116987007Y-94995925D01*
X117114174Y-95030000D01*
X117245826Y-95030000D01*
X117372993Y-94995925D01*
X117430000Y-94963012D01*
X117430000Y-96260658D01*
X117560522Y-96239986D01*
X117560525Y-96239986D01*
X117803781Y-96160948D01*
X117803784Y-96160947D01*
X118031686Y-96044824D01*
X118238619Y-95894478D01*
X118419478Y-95713619D01*
X118569824Y-95506686D01*
X118685947Y-95278784D01*
X118685948Y-95278781D01*
X118764986Y-95035523D01*
X118805000Y-94782889D01*
X118805000Y-93780000D01*
X117680000Y-93780000D01*
X117680000Y-93280000D01*
X118805000Y-93280000D01*
X118805000Y-92277110D01*
X118764986Y-92024476D01*
X118685948Y-91781218D01*
X118685947Y-91781215D01*
X118569824Y-91553313D01*
X118419478Y-91346380D01*
X118238619Y-91165521D01*
X118031686Y-91015175D01*
X117803784Y-90899052D01*
X117803781Y-90899051D01*
X117560523Y-90820013D01*
X117430000Y-90799339D01*
X117430000Y-92096988D01*
X117372993Y-92064075D01*
X117245826Y-92030000D01*
X117114174Y-92030000D01*
X116987007Y-92064075D01*
X116930000Y-92096988D01*
X116930000Y-90799339D01*
X116799476Y-90820013D01*
X116556218Y-90899051D01*
X116556215Y-90899052D01*
X116328313Y-91015175D01*
X116121380Y-91165521D01*
X115940521Y-91346380D01*
X115790175Y-91553313D01*
X115674052Y-91781215D01*
X115674051Y-91781218D01*
X115595013Y-92024476D01*
X115555000Y-92277110D01*
X112930500Y-92277110D01*
X112930500Y-92165266D01*
X112900548Y-91937762D01*
X112841158Y-91716113D01*
X112753344Y-91504112D01*
X112638611Y-91305388D01*
X112638608Y-91305385D01*
X112638607Y-91305382D01*
X112498918Y-91123338D01*
X112498911Y-91123330D01*
X112336670Y-90961089D01*
X112336661Y-90961081D01*
X112154617Y-90821392D01*
X112138008Y-90811803D01*
X111955888Y-90706656D01*
X111955876Y-90706650D01*
X111743887Y-90618842D01*
X111522238Y-90559452D01*
X111484215Y-90554446D01*
X111294741Y-90529500D01*
X111294734Y-90529500D01*
X111065266Y-90529500D01*
X111065258Y-90529500D01*
X110848715Y-90558009D01*
X110837762Y-90559452D01*
X110744076Y-90584554D01*
X110616112Y-90618842D01*
X110404123Y-90706650D01*
X110404109Y-90706657D01*
X110205382Y-90821392D01*
X110023338Y-90961081D01*
X109861081Y-91123338D01*
X109721392Y-91305382D01*
X109606657Y-91504109D01*
X109606650Y-91504123D01*
X109518842Y-91716112D01*
X109459453Y-91937759D01*
X109459451Y-91937770D01*
X109429500Y-92165258D01*
X97602646Y-92165258D01*
X97515678Y-92078290D01*
X97330005Y-91948279D01*
X97286380Y-91893702D01*
X97279188Y-91824204D01*
X97310710Y-91761849D01*
X97330006Y-91745130D01*
X97330442Y-91744825D01*
X97516001Y-91614895D01*
X97683095Y-91447801D01*
X97818635Y-91254230D01*
X97918503Y-91040063D01*
X97979663Y-90811808D01*
X98000259Y-90576400D01*
X97979663Y-90340992D01*
X97918503Y-90112737D01*
X97818635Y-89898571D01*
X97811892Y-89888940D01*
X97683094Y-89704997D01*
X97516002Y-89537906D01*
X97515996Y-89537901D01*
X97330442Y-89407975D01*
X97286817Y-89353398D01*
X97279623Y-89283900D01*
X97311146Y-89221545D01*
X97330442Y-89204825D01*
X97352626Y-89189291D01*
X97516001Y-89074895D01*
X97683095Y-88907801D01*
X97818635Y-88714230D01*
X97824305Y-88702070D01*
X111429500Y-88702070D01*
X111429500Y-88957929D01*
X111469526Y-89210640D01*
X111548588Y-89453972D01*
X111548589Y-89453975D01*
X111664750Y-89681950D01*
X111815132Y-89888935D01*
X111815136Y-89888940D01*
X111996059Y-90069863D01*
X111996064Y-90069867D01*
X112055080Y-90112744D01*
X112203053Y-90220252D01*
X112352080Y-90296185D01*
X112431024Y-90336410D01*
X112431027Y-90336411D01*
X112552693Y-90375942D01*
X112674361Y-90415474D01*
X112927070Y-90455500D01*
X112927071Y-90455500D01*
X115432929Y-90455500D01*
X115432930Y-90455500D01*
X115685639Y-90415474D01*
X115928975Y-90336410D01*
X116156947Y-90220252D01*
X116363942Y-90069862D01*
X116544862Y-89888942D01*
X116695252Y-89681947D01*
X116811410Y-89453975D01*
X116890474Y-89210639D01*
X116930500Y-88957930D01*
X116930500Y-88702070D01*
X116890474Y-88449361D01*
X116832784Y-88271808D01*
X116811411Y-88206027D01*
X116811410Y-88206024D01*
X116724981Y-88036400D01*
X116695252Y-87978053D01*
X116613382Y-87865368D01*
X116544867Y-87771064D01*
X116544863Y-87771059D01*
X116363940Y-87590136D01*
X116363935Y-87590132D01*
X116156950Y-87439750D01*
X116156949Y-87439749D01*
X116156947Y-87439748D01*
X116083910Y-87402533D01*
X115928975Y-87323589D01*
X115928972Y-87323588D01*
X115685640Y-87244526D01*
X115559284Y-87224513D01*
X115432930Y-87204500D01*
X112927070Y-87204500D01*
X112842833Y-87217842D01*
X112674359Y-87244526D01*
X112431027Y-87323588D01*
X112431024Y-87323589D01*
X112203049Y-87439750D01*
X111996064Y-87590132D01*
X111996059Y-87590136D01*
X111815136Y-87771059D01*
X111815132Y-87771064D01*
X111664750Y-87978049D01*
X111548589Y-88206024D01*
X111548588Y-88206027D01*
X111469526Y-88449359D01*
X111429500Y-88702070D01*
X97824305Y-88702070D01*
X97918503Y-88500063D01*
X97979663Y-88271808D01*
X98000259Y-88036400D01*
X97979663Y-87800992D01*
X97933226Y-87627685D01*
X97918505Y-87572744D01*
X97918504Y-87572743D01*
X97918503Y-87572737D01*
X97818635Y-87358571D01*
X97794142Y-87323590D01*
X97683094Y-87164997D01*
X97516002Y-86997906D01*
X97515996Y-86997901D01*
X97447580Y-86949996D01*
X103964435Y-86949996D01*
X103964435Y-86950003D01*
X103984630Y-87129249D01*
X103984631Y-87129254D01*
X104044211Y-87299523D01*
X104081314Y-87358571D01*
X104140184Y-87452262D01*
X104267738Y-87579816D01*
X104420478Y-87675789D01*
X104517719Y-87709815D01*
X104590745Y-87735368D01*
X104590750Y-87735369D01*
X104769996Y-87755565D01*
X104770000Y-87755565D01*
X104770004Y-87755565D01*
X104949249Y-87735369D01*
X104949252Y-87735368D01*
X104949255Y-87735368D01*
X105119522Y-87675789D01*
X105245700Y-87596505D01*
X105311672Y-87577500D01*
X108154059Y-87577500D01*
X108221098Y-87597185D01*
X108241740Y-87613818D01*
X108337738Y-87709816D01*
X108410547Y-87755565D01*
X108482843Y-87800992D01*
X108490478Y-87805789D01*
X108660745Y-87865368D01*
X108660750Y-87865369D01*
X108839996Y-87885565D01*
X108840000Y-87885565D01*
X108840004Y-87885565D01*
X109019249Y-87865369D01*
X109019252Y-87865368D01*
X109019255Y-87865368D01*
X109189522Y-87805789D01*
X109342262Y-87709816D01*
X109469816Y-87582262D01*
X109565789Y-87429522D01*
X109625368Y-87259255D01*
X109627028Y-87244526D01*
X109645565Y-87080003D01*
X109645565Y-87079996D01*
X109625369Y-86900750D01*
X109625368Y-86900745D01*
X109579879Y-86770745D01*
X109565789Y-86730478D01*
X109558829Y-86719402D01*
X109524536Y-86664825D01*
X109469816Y-86577738D01*
X109342262Y-86450184D01*
X109338368Y-86447737D01*
X109189523Y-86354211D01*
X109019254Y-86294631D01*
X109019249Y-86294630D01*
X108840004Y-86274435D01*
X108839996Y-86274435D01*
X108660753Y-86294630D01*
X108660744Y-86294632D01*
X108600986Y-86315542D01*
X108560033Y-86322500D01*
X105311672Y-86322500D01*
X105245700Y-86303494D01*
X105119523Y-86224211D01*
X104949254Y-86164631D01*
X104949249Y-86164630D01*
X104770004Y-86144435D01*
X104769996Y-86144435D01*
X104590750Y-86164630D01*
X104590745Y-86164631D01*
X104420476Y-86224211D01*
X104267737Y-86320184D01*
X104140184Y-86447737D01*
X104044211Y-86600476D01*
X103984631Y-86770745D01*
X103984630Y-86770750D01*
X103964435Y-86949996D01*
X97447580Y-86949996D01*
X97330442Y-86867975D01*
X97286817Y-86813398D01*
X97279623Y-86743900D01*
X97311146Y-86681545D01*
X97330442Y-86664825D01*
X97422339Y-86600478D01*
X97516001Y-86534895D01*
X97683095Y-86367801D01*
X97818635Y-86174230D01*
X97918503Y-85960063D01*
X97979663Y-85731808D01*
X98000259Y-85496400D01*
X97979663Y-85260992D01*
X97918503Y-85032737D01*
X97818635Y-84818571D01*
X97683095Y-84624999D01*
X97683094Y-84624997D01*
X97516002Y-84457906D01*
X97515996Y-84457901D01*
X97330442Y-84327975D01*
X97286817Y-84273398D01*
X97279623Y-84203900D01*
X97311146Y-84141545D01*
X97330442Y-84124825D01*
X97352626Y-84109291D01*
X97516001Y-83994895D01*
X97683095Y-83827801D01*
X97818635Y-83634230D01*
X97918503Y-83420063D01*
X97979663Y-83191808D01*
X98000259Y-82956400D01*
X97979663Y-82720992D01*
X97918503Y-82492737D01*
X97818635Y-82278571D01*
X97683095Y-82084999D01*
X97683094Y-82084997D01*
X97516002Y-81917906D01*
X97515996Y-81917901D01*
X97330442Y-81787975D01*
X97286817Y-81733398D01*
X97279623Y-81663900D01*
X97311146Y-81601545D01*
X97330442Y-81584825D01*
X97449635Y-81501365D01*
X97516001Y-81454895D01*
X97683095Y-81287801D01*
X97818635Y-81094230D01*
X97918503Y-80880063D01*
X97979663Y-80651808D01*
X98000259Y-80416400D01*
X97979663Y-80180992D01*
X97933226Y-80007685D01*
X97918505Y-79952744D01*
X97918504Y-79952743D01*
X97918503Y-79952737D01*
X97818635Y-79738571D01*
X97793170Y-79702202D01*
X97683094Y-79544997D01*
X97516002Y-79377906D01*
X97515996Y-79377901D01*
X97330442Y-79247975D01*
X97286817Y-79193398D01*
X97279623Y-79123900D01*
X97311146Y-79061545D01*
X97330442Y-79044825D01*
X97394741Y-78999802D01*
X97516001Y-78914895D01*
X97683095Y-78747801D01*
X97818635Y-78554230D01*
X97918503Y-78340063D01*
X97979663Y-78111808D01*
X98000259Y-77876400D01*
X97979663Y-77640992D01*
X97918503Y-77412737D01*
X97818635Y-77198571D01*
X97804873Y-77178916D01*
X97683094Y-77004997D01*
X97516002Y-76837906D01*
X97515996Y-76837901D01*
X97330442Y-76707975D01*
X97286817Y-76653398D01*
X97279623Y-76583900D01*
X97311146Y-76521545D01*
X97330442Y-76504825D01*
X97352626Y-76489291D01*
X97516001Y-76374895D01*
X97683095Y-76207801D01*
X97818635Y-76014230D01*
X97918503Y-75800063D01*
X97979663Y-75571808D01*
X98000259Y-75336400D01*
X97979663Y-75100992D01*
X97918503Y-74872737D01*
X97818635Y-74658571D01*
X97767483Y-74585517D01*
X97683094Y-74464997D01*
X97516002Y-74297906D01*
X97515996Y-74297901D01*
X97330442Y-74167975D01*
X97286817Y-74113398D01*
X97279623Y-74043900D01*
X97311146Y-73981545D01*
X97330442Y-73964825D01*
X97433764Y-73892478D01*
X97516001Y-73834895D01*
X97683095Y-73667801D01*
X97818635Y-73474230D01*
X97918503Y-73260063D01*
X97979663Y-73031808D01*
X98000259Y-72796400D01*
X97979663Y-72560992D01*
X97918503Y-72332737D01*
X97818635Y-72118571D01*
X97690768Y-71935956D01*
X97683094Y-71924997D01*
X97516002Y-71757906D01*
X97515996Y-71757901D01*
X97330442Y-71627975D01*
X97286817Y-71573398D01*
X97279623Y-71503900D01*
X97311146Y-71441545D01*
X97330442Y-71424825D01*
X97505541Y-71302219D01*
X97505551Y-71302212D01*
X100997635Y-71302212D01*
X100997635Y-71302219D01*
X101017830Y-71481465D01*
X101017831Y-71481470D01*
X101077411Y-71651739D01*
X101173384Y-71804478D01*
X101217181Y-71848275D01*
X101250666Y-71909598D01*
X101253500Y-71935956D01*
X101253500Y-72807930D01*
X101253499Y-72807948D01*
X101253499Y-72973654D01*
X101253498Y-72973654D01*
X101264518Y-73014780D01*
X101280482Y-73074359D01*
X101294424Y-73126387D01*
X101307853Y-73149646D01*
X101307854Y-73149648D01*
X101373477Y-73263312D01*
X101373481Y-73263317D01*
X101492349Y-73382185D01*
X101492355Y-73382190D01*
X101928846Y-73818681D01*
X101962331Y-73880004D01*
X101964385Y-73892478D01*
X101974178Y-73979397D01*
X102033758Y-74149669D01*
X102126899Y-74297901D01*
X102129732Y-74302410D01*
X102257286Y-74429964D01*
X102410026Y-74525937D01*
X102580293Y-74585516D01*
X102580298Y-74585517D01*
X102759544Y-74605713D01*
X102759548Y-74605713D01*
X102759552Y-74605713D01*
X102938797Y-74585517D01*
X102938800Y-74585516D01*
X102938803Y-74585516D01*
X103109070Y-74525937D01*
X103261810Y-74429964D01*
X103389364Y-74302410D01*
X103485337Y-74149670D01*
X103544916Y-73979403D01*
X103544917Y-73979397D01*
X103565113Y-73800151D01*
X103565113Y-73800144D01*
X103544917Y-73620898D01*
X103544916Y-73620893D01*
X103485336Y-73450624D01*
X103389363Y-73297885D01*
X103261810Y-73170332D01*
X103109069Y-73074358D01*
X102938797Y-73014778D01*
X102851878Y-73004985D01*
X102787464Y-72977918D01*
X102778081Y-72969446D01*
X102490819Y-72682184D01*
X102457334Y-72620861D01*
X102454500Y-72594503D01*
X102454500Y-71806010D01*
X102473507Y-71740037D01*
X102528988Y-71651740D01*
X102539267Y-71622365D01*
X102588568Y-71481471D01*
X102593067Y-71441545D01*
X102608765Y-71302219D01*
X102608765Y-71302212D01*
X102588569Y-71122966D01*
X102588568Y-71122961D01*
X102528988Y-70952692D01*
X102433015Y-70799953D01*
X102305462Y-70672400D01*
X102152723Y-70576427D01*
X101982454Y-70516847D01*
X101982449Y-70516846D01*
X101803204Y-70496651D01*
X101803196Y-70496651D01*
X101623950Y-70516846D01*
X101623945Y-70516847D01*
X101453676Y-70576427D01*
X101300937Y-70672400D01*
X101173384Y-70799953D01*
X101077411Y-70952692D01*
X101017831Y-71122961D01*
X101017830Y-71122966D01*
X100997635Y-71302212D01*
X97505551Y-71302212D01*
X97516001Y-71294895D01*
X97683095Y-71127801D01*
X97818635Y-70934230D01*
X97918503Y-70720063D01*
X97979663Y-70491808D01*
X98000259Y-70256400D01*
X97979663Y-70020992D01*
X97918503Y-69792737D01*
X97818635Y-69578571D01*
X97683095Y-69384999D01*
X97683094Y-69384997D01*
X97516002Y-69217906D01*
X97515996Y-69217901D01*
X97330442Y-69087975D01*
X97286817Y-69033398D01*
X97279623Y-68963900D01*
X97311146Y-68901545D01*
X97330442Y-68884825D01*
X97352626Y-68869291D01*
X97516001Y-68754895D01*
X97683095Y-68587801D01*
X97818635Y-68394230D01*
X97918503Y-68180063D01*
X97979663Y-67951808D01*
X98000259Y-67716400D01*
X97979663Y-67480992D01*
X97918503Y-67252737D01*
X97818635Y-67038571D01*
X97683095Y-66844999D01*
X97683094Y-66844997D01*
X97516002Y-66677906D01*
X97515996Y-66677901D01*
X97330442Y-66547975D01*
X97286817Y-66493398D01*
X97279623Y-66423900D01*
X97311146Y-66361545D01*
X97330442Y-66344825D01*
X97352626Y-66329291D01*
X97516001Y-66214895D01*
X97683095Y-66047801D01*
X97818635Y-65854230D01*
X97918503Y-65640063D01*
X97979663Y-65411808D01*
X98000259Y-65176400D01*
X97979663Y-64940992D01*
X97918503Y-64712737D01*
X97818635Y-64498571D01*
X97683095Y-64304999D01*
X97683094Y-64304997D01*
X97516002Y-64137906D01*
X97515996Y-64137901D01*
X97330442Y-64007975D01*
X97286817Y-63953398D01*
X97279623Y-63883900D01*
X97311146Y-63821545D01*
X97330442Y-63804825D01*
X97433798Y-63732454D01*
X97516001Y-63674895D01*
X97683095Y-63507801D01*
X97818635Y-63314230D01*
X97918503Y-63100063D01*
X97979663Y-62871808D01*
X98000259Y-62636400D01*
X97979663Y-62400992D01*
X97933226Y-62227685D01*
X97918505Y-62172744D01*
X97918504Y-62172743D01*
X97918503Y-62172737D01*
X97818635Y-61958571D01*
X97815402Y-61953953D01*
X97683094Y-61764997D01*
X97516002Y-61597906D01*
X97515996Y-61597901D01*
X97330442Y-61467975D01*
X97286817Y-61413398D01*
X97279623Y-61343900D01*
X97311146Y-61281545D01*
X97330442Y-61264825D01*
X97356114Y-61246849D01*
X97516001Y-61134895D01*
X97683095Y-60967801D01*
X97818635Y-60774230D01*
X97918503Y-60560063D01*
X97979663Y-60331808D01*
X98000259Y-60096400D01*
X97979663Y-59860992D01*
X97918503Y-59632737D01*
X97818635Y-59418571D01*
X97683095Y-59224999D01*
X97683094Y-59224997D01*
X97516002Y-59057906D01*
X97515995Y-59057901D01*
X97322434Y-58922367D01*
X97322430Y-58922365D01*
X97322428Y-58922364D01*
X97108263Y-58822497D01*
X97108259Y-58822496D01*
X97108255Y-58822494D01*
X96880013Y-58761338D01*
X96880003Y-58761336D01*
X96644601Y-58740741D01*
X96644599Y-58740741D01*
X96409196Y-58761336D01*
X96409186Y-58761338D01*
X96180944Y-58822494D01*
X96180935Y-58822498D01*
X95966771Y-58922364D01*
X95966769Y-58922365D01*
X95773197Y-59057905D01*
X95606105Y-59224997D01*
X95470565Y-59418569D01*
X95470564Y-59418571D01*
X95370698Y-59632735D01*
X95370694Y-59632744D01*
X95309538Y-59860986D01*
X95309536Y-59860996D01*
X95288941Y-60096399D01*
X72670259Y-60096399D01*
X72649663Y-59860992D01*
X72588503Y-59632737D01*
X72488635Y-59418571D01*
X72353095Y-59224999D01*
X72353094Y-59224997D01*
X72186002Y-59057906D01*
X72185995Y-59057901D01*
X71992434Y-58922367D01*
X71992430Y-58922365D01*
X71992428Y-58922364D01*
X71778263Y-58822497D01*
X71778259Y-58822496D01*
X71778255Y-58822494D01*
X71550013Y-58761338D01*
X71550003Y-58761336D01*
X71314601Y-58740741D01*
X71314599Y-58740741D01*
X71079196Y-58761336D01*
X71079186Y-58761338D01*
X70850944Y-58822494D01*
X70850935Y-58822498D01*
X70636771Y-58922364D01*
X70636769Y-58922365D01*
X70443197Y-59057905D01*
X70276105Y-59224997D01*
X70140565Y-59418569D01*
X70140564Y-59418571D01*
X70040698Y-59632735D01*
X70040694Y-59632744D01*
X69979538Y-59860986D01*
X69979536Y-59860996D01*
X69958941Y-60096399D01*
X68370500Y-60096399D01*
X68370500Y-57950405D01*
X103763550Y-57950405D01*
X103763550Y-57950412D01*
X103783745Y-58129658D01*
X103783746Y-58129663D01*
X103843326Y-58299933D01*
X103911093Y-58407781D01*
X103930100Y-58473754D01*
X103930100Y-80085330D01*
X103930099Y-80085348D01*
X103930099Y-80251054D01*
X103930098Y-80251054D01*
X103953538Y-80338530D01*
X103971023Y-80403785D01*
X103978306Y-80416400D01*
X103999958Y-80453900D01*
X103999959Y-80453904D01*
X103999960Y-80453904D01*
X104050079Y-80540714D01*
X104050081Y-80540717D01*
X104168949Y-80659585D01*
X104168955Y-80659590D01*
X104223698Y-80714333D01*
X104257183Y-80775656D01*
X104259237Y-80788130D01*
X104269030Y-80875049D01*
X104328610Y-81045321D01*
X104359342Y-81094230D01*
X104424584Y-81198062D01*
X104552138Y-81325616D01*
X104704878Y-81421589D01*
X104800061Y-81454895D01*
X104875145Y-81481168D01*
X104875150Y-81481169D01*
X105054396Y-81501365D01*
X105054400Y-81501365D01*
X105054404Y-81501365D01*
X105233649Y-81481169D01*
X105233652Y-81481168D01*
X105233655Y-81481168D01*
X105403922Y-81421589D01*
X105556662Y-81325616D01*
X105684216Y-81198062D01*
X105780189Y-81045322D01*
X105819679Y-80932467D01*
X109113923Y-80932467D01*
X109272694Y-80988025D01*
X109440634Y-81006947D01*
X109440642Y-81006947D01*
X109608581Y-80988025D01*
X109767351Y-80932468D01*
X109767352Y-80932467D01*
X110213923Y-80932467D01*
X110372694Y-80988025D01*
X110540634Y-81006947D01*
X110540642Y-81006947D01*
X110708581Y-80988025D01*
X110867351Y-80932468D01*
X110867352Y-80932467D01*
X111313923Y-80932467D01*
X111472694Y-80988025D01*
X111640634Y-81006947D01*
X111640642Y-81006947D01*
X111808581Y-80988025D01*
X111967351Y-80932468D01*
X111967352Y-80932467D01*
X111640639Y-80605754D01*
X111640638Y-80605754D01*
X111313923Y-80932467D01*
X110867352Y-80932467D01*
X110540639Y-80605754D01*
X110540638Y-80605754D01*
X110213923Y-80932467D01*
X109767352Y-80932467D01*
X109440639Y-80605754D01*
X109440638Y-80605754D01*
X109113923Y-80932467D01*
X105819679Y-80932467D01*
X105839768Y-80875055D01*
X105849562Y-80788130D01*
X105859965Y-80695803D01*
X105859965Y-80695796D01*
X105839769Y-80516550D01*
X105839768Y-80516545D01*
X105817849Y-80453904D01*
X105780189Y-80346278D01*
X105721075Y-80252198D01*
X108685893Y-80252198D01*
X108685893Y-80252205D01*
X108704814Y-80420140D01*
X108704815Y-80420145D01*
X108760371Y-80578916D01*
X109087086Y-80252202D01*
X109056772Y-80221888D01*
X109288238Y-80221888D01*
X109288238Y-80282516D01*
X109311439Y-80338530D01*
X109354310Y-80381401D01*
X109410324Y-80404602D01*
X109470952Y-80404602D01*
X109526966Y-80381401D01*
X109569837Y-80338530D01*
X109593038Y-80282516D01*
X109593038Y-80252202D01*
X109794190Y-80252202D01*
X109990638Y-80448650D01*
X110187086Y-80252202D01*
X110156772Y-80221888D01*
X110388238Y-80221888D01*
X110388238Y-80282516D01*
X110411439Y-80338530D01*
X110454310Y-80381401D01*
X110510324Y-80404602D01*
X110570952Y-80404602D01*
X110626966Y-80381401D01*
X110669837Y-80338530D01*
X110693038Y-80282516D01*
X110693038Y-80252202D01*
X110894190Y-80252202D01*
X111090638Y-80448650D01*
X111287086Y-80252202D01*
X111256772Y-80221888D01*
X111488238Y-80221888D01*
X111488238Y-80282516D01*
X111511439Y-80338530D01*
X111554310Y-80381401D01*
X111610324Y-80404602D01*
X111670952Y-80404602D01*
X111726966Y-80381401D01*
X111769837Y-80338530D01*
X111793038Y-80282516D01*
X111793038Y-80252201D01*
X111994190Y-80252201D01*
X111994190Y-80252203D01*
X112320903Y-80578916D01*
X112320904Y-80578915D01*
X112376461Y-80420145D01*
X112395383Y-80252205D01*
X112395383Y-80252198D01*
X112376461Y-80084258D01*
X112320903Y-79925487D01*
X111994190Y-80252201D01*
X111793038Y-80252201D01*
X111793038Y-80221888D01*
X111769837Y-80165874D01*
X111726966Y-80123003D01*
X111670952Y-80099802D01*
X111610324Y-80099802D01*
X111554310Y-80123003D01*
X111511439Y-80165874D01*
X111488238Y-80221888D01*
X111256772Y-80221888D01*
X111090638Y-80055754D01*
X110894190Y-80252202D01*
X110693038Y-80252202D01*
X110693038Y-80221888D01*
X110669837Y-80165874D01*
X110626966Y-80123003D01*
X110570952Y-80099802D01*
X110510324Y-80099802D01*
X110454310Y-80123003D01*
X110411439Y-80165874D01*
X110388238Y-80221888D01*
X110156772Y-80221888D01*
X109990638Y-80055754D01*
X109794190Y-80252202D01*
X109593038Y-80252202D01*
X109593038Y-80221888D01*
X109569837Y-80165874D01*
X109526966Y-80123003D01*
X109470952Y-80099802D01*
X109410324Y-80099802D01*
X109354310Y-80123003D01*
X109311439Y-80165874D01*
X109288238Y-80221888D01*
X109056772Y-80221888D01*
X108760371Y-79925487D01*
X108704815Y-80084255D01*
X108704814Y-80084260D01*
X108685893Y-80252198D01*
X105721075Y-80252198D01*
X105684216Y-80193538D01*
X105556662Y-80065984D01*
X105540381Y-80055754D01*
X105403921Y-79970010D01*
X105293233Y-79931279D01*
X105233655Y-79910432D01*
X105233653Y-79910431D01*
X105227506Y-79909029D01*
X105166528Y-79874919D01*
X105133671Y-79813257D01*
X105131100Y-79788138D01*
X105131100Y-79702202D01*
X109244190Y-79702202D01*
X109440638Y-79898650D01*
X109637086Y-79702202D01*
X110344190Y-79702202D01*
X110540638Y-79898650D01*
X110737086Y-79702202D01*
X111444190Y-79702202D01*
X111640638Y-79898650D01*
X111837086Y-79702202D01*
X111640638Y-79505754D01*
X111444190Y-79702202D01*
X110737086Y-79702202D01*
X110540638Y-79505754D01*
X110344190Y-79702202D01*
X109637086Y-79702202D01*
X109440638Y-79505754D01*
X109244190Y-79702202D01*
X105131100Y-79702202D01*
X105131100Y-79152198D01*
X108685893Y-79152198D01*
X108685893Y-79152205D01*
X108704814Y-79320140D01*
X108704815Y-79320145D01*
X108760371Y-79478916D01*
X109087086Y-79152202D01*
X109056772Y-79121888D01*
X109288238Y-79121888D01*
X109288238Y-79182516D01*
X109311439Y-79238530D01*
X109354310Y-79281401D01*
X109410324Y-79304602D01*
X109470952Y-79304602D01*
X109526966Y-79281401D01*
X109569837Y-79238530D01*
X109593038Y-79182516D01*
X109593038Y-79152202D01*
X109794190Y-79152202D01*
X109990638Y-79348650D01*
X110187086Y-79152202D01*
X110156772Y-79121888D01*
X110388238Y-79121888D01*
X110388238Y-79182516D01*
X110411439Y-79238530D01*
X110454310Y-79281401D01*
X110510324Y-79304602D01*
X110570952Y-79304602D01*
X110626966Y-79281401D01*
X110669837Y-79238530D01*
X110693038Y-79182516D01*
X110693038Y-79152202D01*
X110894190Y-79152202D01*
X111090638Y-79348650D01*
X111287086Y-79152202D01*
X111256772Y-79121888D01*
X111488238Y-79121888D01*
X111488238Y-79182516D01*
X111511439Y-79238530D01*
X111554310Y-79281401D01*
X111610324Y-79304602D01*
X111670952Y-79304602D01*
X111726966Y-79281401D01*
X111769837Y-79238530D01*
X111793038Y-79182516D01*
X111793038Y-79152201D01*
X111994190Y-79152201D01*
X111994190Y-79152203D01*
X112320903Y-79478916D01*
X112320904Y-79478915D01*
X112376461Y-79320145D01*
X112395383Y-79152205D01*
X112395383Y-79152198D01*
X112376461Y-78984258D01*
X112320903Y-78825487D01*
X111994190Y-79152201D01*
X111793038Y-79152201D01*
X111793038Y-79121888D01*
X111769837Y-79065874D01*
X111726966Y-79023003D01*
X111670952Y-78999802D01*
X111610324Y-78999802D01*
X111554310Y-79023003D01*
X111511439Y-79065874D01*
X111488238Y-79121888D01*
X111256772Y-79121888D01*
X111090638Y-78955754D01*
X110894190Y-79152202D01*
X110693038Y-79152202D01*
X110693038Y-79121888D01*
X110669837Y-79065874D01*
X110626966Y-79023003D01*
X110570952Y-78999802D01*
X110510324Y-78999802D01*
X110454310Y-79023003D01*
X110411439Y-79065874D01*
X110388238Y-79121888D01*
X110156772Y-79121888D01*
X109990638Y-78955754D01*
X109794190Y-79152202D01*
X109593038Y-79152202D01*
X109593038Y-79121888D01*
X109569837Y-79065874D01*
X109526966Y-79023003D01*
X109470952Y-78999802D01*
X109410324Y-78999802D01*
X109354310Y-79023003D01*
X109311439Y-79065874D01*
X109288238Y-79121888D01*
X109056772Y-79121888D01*
X108760371Y-78825487D01*
X108704815Y-78984255D01*
X108704814Y-78984260D01*
X108685893Y-79152198D01*
X105131100Y-79152198D01*
X105131100Y-78552202D01*
X109194190Y-78552202D01*
X109440638Y-78798650D01*
X109687086Y-78552202D01*
X110294190Y-78552202D01*
X110540638Y-78798650D01*
X110787086Y-78552202D01*
X111394190Y-78552202D01*
X111640638Y-78798650D01*
X111887086Y-78552202D01*
X111640638Y-78305754D01*
X111394190Y-78552202D01*
X110787086Y-78552202D01*
X110540638Y-78305754D01*
X110294190Y-78552202D01*
X109687086Y-78552202D01*
X109440638Y-78305754D01*
X109194190Y-78552202D01*
X105131100Y-78552202D01*
X105131100Y-77952198D01*
X108685893Y-77952198D01*
X108685893Y-77952205D01*
X108704814Y-78120140D01*
X108704815Y-78120145D01*
X108760371Y-78278916D01*
X109087086Y-77952202D01*
X109056772Y-77921888D01*
X109288238Y-77921888D01*
X109288238Y-77982516D01*
X109311439Y-78038530D01*
X109354310Y-78081401D01*
X109410324Y-78104602D01*
X109470952Y-78104602D01*
X109526966Y-78081401D01*
X109569837Y-78038530D01*
X109593038Y-77982516D01*
X109593038Y-77952202D01*
X109794190Y-77952202D01*
X109990638Y-78148650D01*
X110187086Y-77952202D01*
X110156772Y-77921888D01*
X110388238Y-77921888D01*
X110388238Y-77982516D01*
X110411439Y-78038530D01*
X110454310Y-78081401D01*
X110510324Y-78104602D01*
X110570952Y-78104602D01*
X110626966Y-78081401D01*
X110669837Y-78038530D01*
X110693038Y-77982516D01*
X110693038Y-77952202D01*
X110894190Y-77952202D01*
X111090638Y-78148650D01*
X111287086Y-77952202D01*
X111256772Y-77921888D01*
X111488238Y-77921888D01*
X111488238Y-77982516D01*
X111511439Y-78038530D01*
X111554310Y-78081401D01*
X111610324Y-78104602D01*
X111670952Y-78104602D01*
X111726966Y-78081401D01*
X111769837Y-78038530D01*
X111793038Y-77982516D01*
X111793038Y-77952201D01*
X111994190Y-77952201D01*
X111994190Y-77952203D01*
X112320903Y-78278916D01*
X112320904Y-78278915D01*
X112376461Y-78120145D01*
X112395383Y-77952205D01*
X112395383Y-77952198D01*
X112376461Y-77784258D01*
X112320903Y-77625487D01*
X111994190Y-77952201D01*
X111793038Y-77952201D01*
X111793038Y-77921888D01*
X111769837Y-77865874D01*
X111726966Y-77823003D01*
X111670952Y-77799802D01*
X111610324Y-77799802D01*
X111554310Y-77823003D01*
X111511439Y-77865874D01*
X111488238Y-77921888D01*
X111256772Y-77921888D01*
X111090638Y-77755754D01*
X110894190Y-77952202D01*
X110693038Y-77952202D01*
X110693038Y-77921888D01*
X110669837Y-77865874D01*
X110626966Y-77823003D01*
X110570952Y-77799802D01*
X110510324Y-77799802D01*
X110454310Y-77823003D01*
X110411439Y-77865874D01*
X110388238Y-77921888D01*
X110156772Y-77921888D01*
X109990638Y-77755754D01*
X109794190Y-77952202D01*
X109593038Y-77952202D01*
X109593038Y-77921888D01*
X109569837Y-77865874D01*
X109526966Y-77823003D01*
X109470952Y-77799802D01*
X109410324Y-77799802D01*
X109354310Y-77823003D01*
X109311439Y-77865874D01*
X109288238Y-77921888D01*
X109056772Y-77921888D01*
X108760371Y-77625487D01*
X108704815Y-77784255D01*
X108704814Y-77784260D01*
X108685893Y-77952198D01*
X105131100Y-77952198D01*
X105131100Y-77402202D01*
X109244190Y-77402202D01*
X109440638Y-77598650D01*
X109637086Y-77402202D01*
X110344190Y-77402202D01*
X110540638Y-77598650D01*
X110737086Y-77402202D01*
X111444190Y-77402202D01*
X111640638Y-77598650D01*
X111837086Y-77402202D01*
X111640638Y-77205754D01*
X111444190Y-77402202D01*
X110737086Y-77402202D01*
X110540638Y-77205754D01*
X110344190Y-77402202D01*
X109637086Y-77402202D01*
X109440638Y-77205754D01*
X109244190Y-77402202D01*
X105131100Y-77402202D01*
X105131100Y-76852198D01*
X108685893Y-76852198D01*
X108685893Y-76852205D01*
X108704814Y-77020140D01*
X108704815Y-77020145D01*
X108760371Y-77178916D01*
X109087086Y-76852202D01*
X109056772Y-76821888D01*
X109288238Y-76821888D01*
X109288238Y-76882516D01*
X109311439Y-76938530D01*
X109354310Y-76981401D01*
X109410324Y-77004602D01*
X109470952Y-77004602D01*
X109526966Y-76981401D01*
X109569837Y-76938530D01*
X109593038Y-76882516D01*
X109593038Y-76852202D01*
X109794190Y-76852202D01*
X109990638Y-77048650D01*
X110187086Y-76852202D01*
X110156772Y-76821888D01*
X110388238Y-76821888D01*
X110388238Y-76882516D01*
X110411439Y-76938530D01*
X110454310Y-76981401D01*
X110510324Y-77004602D01*
X110570952Y-77004602D01*
X110626966Y-76981401D01*
X110669837Y-76938530D01*
X110693038Y-76882516D01*
X110693038Y-76852202D01*
X110894190Y-76852202D01*
X111090638Y-77048650D01*
X111287086Y-76852202D01*
X111256772Y-76821888D01*
X111488238Y-76821888D01*
X111488238Y-76882516D01*
X111511439Y-76938530D01*
X111554310Y-76981401D01*
X111610324Y-77004602D01*
X111670952Y-77004602D01*
X111726966Y-76981401D01*
X111769837Y-76938530D01*
X111793038Y-76882516D01*
X111793038Y-76852201D01*
X111994190Y-76852201D01*
X111994190Y-76852203D01*
X112320903Y-77178916D01*
X112320904Y-77178915D01*
X112376461Y-77020145D01*
X112395383Y-76852205D01*
X112395383Y-76852198D01*
X112376461Y-76684258D01*
X112320903Y-76525487D01*
X111994190Y-76852201D01*
X111793038Y-76852201D01*
X111793038Y-76821888D01*
X111769837Y-76765874D01*
X111726966Y-76723003D01*
X111670952Y-76699802D01*
X111610324Y-76699802D01*
X111554310Y-76723003D01*
X111511439Y-76765874D01*
X111488238Y-76821888D01*
X111256772Y-76821888D01*
X111090638Y-76655754D01*
X110894190Y-76852202D01*
X110693038Y-76852202D01*
X110693038Y-76821888D01*
X110669837Y-76765874D01*
X110626966Y-76723003D01*
X110570952Y-76699802D01*
X110510324Y-76699802D01*
X110454310Y-76723003D01*
X110411439Y-76765874D01*
X110388238Y-76821888D01*
X110156772Y-76821888D01*
X109990638Y-76655754D01*
X109794190Y-76852202D01*
X109593038Y-76852202D01*
X109593038Y-76821888D01*
X109569837Y-76765874D01*
X109526966Y-76723003D01*
X109470952Y-76699802D01*
X109410324Y-76699802D01*
X109354310Y-76723003D01*
X109311439Y-76765874D01*
X109288238Y-76821888D01*
X109056772Y-76821888D01*
X108760371Y-76525487D01*
X108704815Y-76684255D01*
X108704814Y-76684260D01*
X108685893Y-76852198D01*
X105131100Y-76852198D01*
X105131100Y-76171935D01*
X109113923Y-76171935D01*
X109440638Y-76498650D01*
X109440639Y-76498650D01*
X109767352Y-76171935D01*
X110213923Y-76171935D01*
X110540638Y-76498650D01*
X110540639Y-76498650D01*
X110867352Y-76171935D01*
X111313923Y-76171935D01*
X111640638Y-76498650D01*
X111640639Y-76498650D01*
X111967352Y-76171935D01*
X111808581Y-76116379D01*
X111808576Y-76116378D01*
X111640642Y-76097457D01*
X111640634Y-76097457D01*
X111472696Y-76116378D01*
X111472691Y-76116379D01*
X111313923Y-76171935D01*
X110867352Y-76171935D01*
X110708581Y-76116379D01*
X110708576Y-76116378D01*
X110540642Y-76097457D01*
X110540634Y-76097457D01*
X110372696Y-76116378D01*
X110372691Y-76116379D01*
X110213923Y-76171935D01*
X109767352Y-76171935D01*
X109608581Y-76116379D01*
X109608576Y-76116378D01*
X109440642Y-76097457D01*
X109440634Y-76097457D01*
X109272696Y-76116378D01*
X109272691Y-76116379D01*
X109113923Y-76171935D01*
X105131100Y-76171935D01*
X105131100Y-64580666D01*
X108987004Y-64580666D01*
X109145775Y-64636224D01*
X109313715Y-64655146D01*
X109313723Y-64655146D01*
X109481662Y-64636224D01*
X109640432Y-64580667D01*
X109640433Y-64580666D01*
X110087004Y-64580666D01*
X110245775Y-64636224D01*
X110413715Y-64655146D01*
X110413723Y-64655146D01*
X110581662Y-64636224D01*
X110740432Y-64580667D01*
X110740433Y-64580666D01*
X111187004Y-64580666D01*
X111345775Y-64636224D01*
X111513715Y-64655146D01*
X111513723Y-64655146D01*
X111681662Y-64636224D01*
X111840432Y-64580667D01*
X111840433Y-64580666D01*
X111513720Y-64253953D01*
X111513719Y-64253953D01*
X111187004Y-64580666D01*
X110740433Y-64580666D01*
X110413720Y-64253953D01*
X110413719Y-64253953D01*
X110087004Y-64580666D01*
X109640433Y-64580666D01*
X109313720Y-64253953D01*
X109313719Y-64253953D01*
X108987004Y-64580666D01*
X105131100Y-64580666D01*
X105131100Y-63900397D01*
X108558974Y-63900397D01*
X108558974Y-63900404D01*
X108577895Y-64068339D01*
X108577896Y-64068344D01*
X108633452Y-64227115D01*
X108960167Y-63900401D01*
X108929853Y-63870087D01*
X109161319Y-63870087D01*
X109161319Y-63930715D01*
X109184520Y-63986729D01*
X109227391Y-64029600D01*
X109283405Y-64052801D01*
X109344033Y-64052801D01*
X109400047Y-64029600D01*
X109442918Y-63986729D01*
X109466119Y-63930715D01*
X109466119Y-63900401D01*
X109667271Y-63900401D01*
X109863719Y-64096849D01*
X110060167Y-63900401D01*
X110029853Y-63870087D01*
X110261319Y-63870087D01*
X110261319Y-63930715D01*
X110284520Y-63986729D01*
X110327391Y-64029600D01*
X110383405Y-64052801D01*
X110444033Y-64052801D01*
X110500047Y-64029600D01*
X110542918Y-63986729D01*
X110566119Y-63930715D01*
X110566119Y-63900401D01*
X110767271Y-63900401D01*
X110963719Y-64096849D01*
X111160167Y-63900401D01*
X111129853Y-63870087D01*
X111361319Y-63870087D01*
X111361319Y-63930715D01*
X111384520Y-63986729D01*
X111427391Y-64029600D01*
X111483405Y-64052801D01*
X111544033Y-64052801D01*
X111600047Y-64029600D01*
X111642918Y-63986729D01*
X111666119Y-63930715D01*
X111666119Y-63900400D01*
X111867271Y-63900400D01*
X111867271Y-63900402D01*
X112193984Y-64227115D01*
X112193985Y-64227114D01*
X112249542Y-64068344D01*
X112268464Y-63900404D01*
X112268464Y-63900397D01*
X112249542Y-63732457D01*
X112193984Y-63573686D01*
X111867271Y-63900400D01*
X111666119Y-63900400D01*
X111666119Y-63870087D01*
X111642918Y-63814073D01*
X111600047Y-63771202D01*
X111544033Y-63748001D01*
X111483405Y-63748001D01*
X111427391Y-63771202D01*
X111384520Y-63814073D01*
X111361319Y-63870087D01*
X111129853Y-63870087D01*
X110963719Y-63703953D01*
X110767271Y-63900401D01*
X110566119Y-63900401D01*
X110566119Y-63870087D01*
X110542918Y-63814073D01*
X110500047Y-63771202D01*
X110444033Y-63748001D01*
X110383405Y-63748001D01*
X110327391Y-63771202D01*
X110284520Y-63814073D01*
X110261319Y-63870087D01*
X110029853Y-63870087D01*
X109863719Y-63703953D01*
X109667271Y-63900401D01*
X109466119Y-63900401D01*
X109466119Y-63870087D01*
X109442918Y-63814073D01*
X109400047Y-63771202D01*
X109344033Y-63748001D01*
X109283405Y-63748001D01*
X109227391Y-63771202D01*
X109184520Y-63814073D01*
X109161319Y-63870087D01*
X108929853Y-63870087D01*
X108633452Y-63573686D01*
X108577896Y-63732454D01*
X108577895Y-63732459D01*
X108558974Y-63900397D01*
X105131100Y-63900397D01*
X105131100Y-63350401D01*
X109117271Y-63350401D01*
X109313719Y-63546849D01*
X109510167Y-63350401D01*
X110217271Y-63350401D01*
X110413719Y-63546849D01*
X110610167Y-63350401D01*
X111317271Y-63350401D01*
X111513719Y-63546849D01*
X111710167Y-63350401D01*
X111513719Y-63153953D01*
X111317271Y-63350401D01*
X110610167Y-63350401D01*
X110413719Y-63153953D01*
X110217271Y-63350401D01*
X109510167Y-63350401D01*
X109313719Y-63153953D01*
X109117271Y-63350401D01*
X105131100Y-63350401D01*
X105131100Y-62800397D01*
X108558974Y-62800397D01*
X108558974Y-62800404D01*
X108577895Y-62968339D01*
X108577896Y-62968344D01*
X108633452Y-63127115D01*
X108960167Y-62800401D01*
X108929853Y-62770087D01*
X109161319Y-62770087D01*
X109161319Y-62830715D01*
X109184520Y-62886729D01*
X109227391Y-62929600D01*
X109283405Y-62952801D01*
X109344033Y-62952801D01*
X109400047Y-62929600D01*
X109442918Y-62886729D01*
X109466119Y-62830715D01*
X109466119Y-62800401D01*
X109667271Y-62800401D01*
X109863719Y-62996849D01*
X110060167Y-62800401D01*
X110029853Y-62770087D01*
X110261319Y-62770087D01*
X110261319Y-62830715D01*
X110284520Y-62886729D01*
X110327391Y-62929600D01*
X110383405Y-62952801D01*
X110444033Y-62952801D01*
X110500047Y-62929600D01*
X110542918Y-62886729D01*
X110566119Y-62830715D01*
X110566119Y-62800401D01*
X110767271Y-62800401D01*
X110963719Y-62996849D01*
X111160167Y-62800401D01*
X111129853Y-62770087D01*
X111361319Y-62770087D01*
X111361319Y-62830715D01*
X111384520Y-62886729D01*
X111427391Y-62929600D01*
X111483405Y-62952801D01*
X111544033Y-62952801D01*
X111600047Y-62929600D01*
X111642918Y-62886729D01*
X111666119Y-62830715D01*
X111666119Y-62800400D01*
X111867271Y-62800400D01*
X111867271Y-62800402D01*
X112193984Y-63127115D01*
X112193985Y-63127114D01*
X112249542Y-62968344D01*
X112268464Y-62800404D01*
X112268464Y-62800397D01*
X112249542Y-62632457D01*
X112193984Y-62473686D01*
X111867271Y-62800400D01*
X111666119Y-62800400D01*
X111666119Y-62770087D01*
X111642918Y-62714073D01*
X111600047Y-62671202D01*
X111544033Y-62648001D01*
X111483405Y-62648001D01*
X111427391Y-62671202D01*
X111384520Y-62714073D01*
X111361319Y-62770087D01*
X111129853Y-62770087D01*
X110963719Y-62603953D01*
X110767271Y-62800401D01*
X110566119Y-62800401D01*
X110566119Y-62770087D01*
X110542918Y-62714073D01*
X110500047Y-62671202D01*
X110444033Y-62648001D01*
X110383405Y-62648001D01*
X110327391Y-62671202D01*
X110284520Y-62714073D01*
X110261319Y-62770087D01*
X110029853Y-62770087D01*
X109863719Y-62603953D01*
X109667271Y-62800401D01*
X109466119Y-62800401D01*
X109466119Y-62770087D01*
X109442918Y-62714073D01*
X109400047Y-62671202D01*
X109344033Y-62648001D01*
X109283405Y-62648001D01*
X109227391Y-62671202D01*
X109184520Y-62714073D01*
X109161319Y-62770087D01*
X108929853Y-62770087D01*
X108633452Y-62473686D01*
X108577896Y-62632454D01*
X108577895Y-62632459D01*
X108558974Y-62800397D01*
X105131100Y-62800397D01*
X105131100Y-62200401D01*
X109067271Y-62200401D01*
X109313719Y-62446849D01*
X109560167Y-62200401D01*
X110167271Y-62200401D01*
X110413719Y-62446849D01*
X110660167Y-62200401D01*
X111267271Y-62200401D01*
X111513719Y-62446849D01*
X111760167Y-62200401D01*
X111513719Y-61953953D01*
X111267271Y-62200401D01*
X110660167Y-62200401D01*
X110413719Y-61953953D01*
X110167271Y-62200401D01*
X109560167Y-62200401D01*
X109313719Y-61953953D01*
X109067271Y-62200401D01*
X105131100Y-62200401D01*
X105131100Y-61600397D01*
X108558974Y-61600397D01*
X108558974Y-61600404D01*
X108577895Y-61768339D01*
X108577896Y-61768344D01*
X108633452Y-61927115D01*
X108960167Y-61600401D01*
X108929853Y-61570087D01*
X109161319Y-61570087D01*
X109161319Y-61630715D01*
X109184520Y-61686729D01*
X109227391Y-61729600D01*
X109283405Y-61752801D01*
X109344033Y-61752801D01*
X109400047Y-61729600D01*
X109442918Y-61686729D01*
X109466119Y-61630715D01*
X109466119Y-61600401D01*
X109667271Y-61600401D01*
X109863719Y-61796849D01*
X110060167Y-61600401D01*
X110029853Y-61570087D01*
X110261319Y-61570087D01*
X110261319Y-61630715D01*
X110284520Y-61686729D01*
X110327391Y-61729600D01*
X110383405Y-61752801D01*
X110444033Y-61752801D01*
X110500047Y-61729600D01*
X110542918Y-61686729D01*
X110566119Y-61630715D01*
X110566119Y-61600401D01*
X110767271Y-61600401D01*
X110963719Y-61796849D01*
X111160167Y-61600401D01*
X111129853Y-61570087D01*
X111361319Y-61570087D01*
X111361319Y-61630715D01*
X111384520Y-61686729D01*
X111427391Y-61729600D01*
X111483405Y-61752801D01*
X111544033Y-61752801D01*
X111600047Y-61729600D01*
X111642918Y-61686729D01*
X111666119Y-61630715D01*
X111666119Y-61600400D01*
X111867271Y-61600400D01*
X111867271Y-61600402D01*
X112193984Y-61927115D01*
X112193985Y-61927114D01*
X112249542Y-61768344D01*
X112268464Y-61600404D01*
X112268464Y-61600397D01*
X112249542Y-61432457D01*
X112193984Y-61273686D01*
X111867271Y-61600400D01*
X111666119Y-61600400D01*
X111666119Y-61570087D01*
X111642918Y-61514073D01*
X111600047Y-61471202D01*
X111544033Y-61448001D01*
X111483405Y-61448001D01*
X111427391Y-61471202D01*
X111384520Y-61514073D01*
X111361319Y-61570087D01*
X111129853Y-61570087D01*
X110963719Y-61403953D01*
X110767271Y-61600401D01*
X110566119Y-61600401D01*
X110566119Y-61570087D01*
X110542918Y-61514073D01*
X110500047Y-61471202D01*
X110444033Y-61448001D01*
X110383405Y-61448001D01*
X110327391Y-61471202D01*
X110284520Y-61514073D01*
X110261319Y-61570087D01*
X110029853Y-61570087D01*
X109863719Y-61403953D01*
X109667271Y-61600401D01*
X109466119Y-61600401D01*
X109466119Y-61570087D01*
X109442918Y-61514073D01*
X109400047Y-61471202D01*
X109344033Y-61448001D01*
X109283405Y-61448001D01*
X109227391Y-61471202D01*
X109184520Y-61514073D01*
X109161319Y-61570087D01*
X108929853Y-61570087D01*
X108633452Y-61273686D01*
X108577896Y-61432454D01*
X108577895Y-61432459D01*
X108558974Y-61600397D01*
X105131100Y-61600397D01*
X105131100Y-61050401D01*
X109117271Y-61050401D01*
X109313719Y-61246849D01*
X109510167Y-61050401D01*
X110217271Y-61050401D01*
X110413719Y-61246849D01*
X110610167Y-61050401D01*
X111317271Y-61050401D01*
X111513719Y-61246849D01*
X111710167Y-61050401D01*
X111513719Y-60853953D01*
X111317271Y-61050401D01*
X110610167Y-61050401D01*
X110413719Y-60853953D01*
X110217271Y-61050401D01*
X109510167Y-61050401D01*
X109313719Y-60853953D01*
X109117271Y-61050401D01*
X105131100Y-61050401D01*
X105131100Y-60500397D01*
X108558974Y-60500397D01*
X108558974Y-60500404D01*
X108577895Y-60668339D01*
X108577896Y-60668344D01*
X108633452Y-60827115D01*
X108960167Y-60500401D01*
X108929853Y-60470087D01*
X109161319Y-60470087D01*
X109161319Y-60530715D01*
X109184520Y-60586729D01*
X109227391Y-60629600D01*
X109283405Y-60652801D01*
X109344033Y-60652801D01*
X109400047Y-60629600D01*
X109442918Y-60586729D01*
X109466119Y-60530715D01*
X109466119Y-60500401D01*
X109667271Y-60500401D01*
X109863719Y-60696849D01*
X110060167Y-60500401D01*
X110029853Y-60470087D01*
X110261319Y-60470087D01*
X110261319Y-60530715D01*
X110284520Y-60586729D01*
X110327391Y-60629600D01*
X110383405Y-60652801D01*
X110444033Y-60652801D01*
X110500047Y-60629600D01*
X110542918Y-60586729D01*
X110566119Y-60530715D01*
X110566119Y-60500401D01*
X110767271Y-60500401D01*
X110963719Y-60696849D01*
X111160167Y-60500401D01*
X111129853Y-60470087D01*
X111361319Y-60470087D01*
X111361319Y-60530715D01*
X111384520Y-60586729D01*
X111427391Y-60629600D01*
X111483405Y-60652801D01*
X111544033Y-60652801D01*
X111600047Y-60629600D01*
X111642918Y-60586729D01*
X111666119Y-60530715D01*
X111666119Y-60500400D01*
X111867271Y-60500400D01*
X111867271Y-60500402D01*
X112193984Y-60827115D01*
X112193985Y-60827114D01*
X112249542Y-60668344D01*
X112268464Y-60500404D01*
X112268464Y-60500397D01*
X112249542Y-60332457D01*
X112193984Y-60173686D01*
X111867271Y-60500400D01*
X111666119Y-60500400D01*
X111666119Y-60470087D01*
X111642918Y-60414073D01*
X111600047Y-60371202D01*
X111544033Y-60348001D01*
X111483405Y-60348001D01*
X111427391Y-60371202D01*
X111384520Y-60414073D01*
X111361319Y-60470087D01*
X111129853Y-60470087D01*
X110963719Y-60303953D01*
X110767271Y-60500401D01*
X110566119Y-60500401D01*
X110566119Y-60470087D01*
X110542918Y-60414073D01*
X110500047Y-60371202D01*
X110444033Y-60348001D01*
X110383405Y-60348001D01*
X110327391Y-60371202D01*
X110284520Y-60414073D01*
X110261319Y-60470087D01*
X110029853Y-60470087D01*
X109863719Y-60303953D01*
X109667271Y-60500401D01*
X109466119Y-60500401D01*
X109466119Y-60470087D01*
X109442918Y-60414073D01*
X109400047Y-60371202D01*
X109344033Y-60348001D01*
X109283405Y-60348001D01*
X109227391Y-60371202D01*
X109184520Y-60414073D01*
X109161319Y-60470087D01*
X108929853Y-60470087D01*
X108633452Y-60173686D01*
X108577896Y-60332454D01*
X108577895Y-60332459D01*
X108558974Y-60500397D01*
X105131100Y-60500397D01*
X105131100Y-59820134D01*
X108987004Y-59820134D01*
X109313719Y-60146849D01*
X109313720Y-60146849D01*
X109640433Y-59820134D01*
X110087004Y-59820134D01*
X110413719Y-60146849D01*
X110413720Y-60146849D01*
X110740433Y-59820134D01*
X111187004Y-59820134D01*
X111513719Y-60146849D01*
X111513720Y-60146849D01*
X111840433Y-59820134D01*
X111681662Y-59764578D01*
X111681657Y-59764577D01*
X111513723Y-59745656D01*
X111513715Y-59745656D01*
X111345777Y-59764577D01*
X111345772Y-59764578D01*
X111187004Y-59820134D01*
X110740433Y-59820134D01*
X110581662Y-59764578D01*
X110581657Y-59764577D01*
X110413723Y-59745656D01*
X110413715Y-59745656D01*
X110245777Y-59764577D01*
X110245772Y-59764578D01*
X110087004Y-59820134D01*
X109640433Y-59820134D01*
X109481662Y-59764578D01*
X109481657Y-59764577D01*
X109313723Y-59745656D01*
X109313715Y-59745656D01*
X109145777Y-59764577D01*
X109145772Y-59764578D01*
X108987004Y-59820134D01*
X105131100Y-59820134D01*
X105131100Y-58571864D01*
X105150785Y-58504825D01*
X105167419Y-58484183D01*
X105177848Y-58473754D01*
X105198931Y-58452671D01*
X105294904Y-58299931D01*
X105354483Y-58129664D01*
X105374680Y-57950409D01*
X105354483Y-57771154D01*
X105294904Y-57600887D01*
X105209636Y-57465185D01*
X105190637Y-57397950D01*
X105211005Y-57331114D01*
X105264272Y-57285900D01*
X105300751Y-57275993D01*
X105309855Y-57274968D01*
X105480122Y-57215389D01*
X105632862Y-57119416D01*
X105760416Y-56991862D01*
X105856389Y-56839122D01*
X105915968Y-56668855D01*
X105925761Y-56581929D01*
X105952826Y-56517518D01*
X105961290Y-56508143D01*
X107454654Y-55014779D01*
X107515975Y-54981296D01*
X107585667Y-54986280D01*
X107608305Y-54997468D01*
X107635859Y-55014781D01*
X107702078Y-55056389D01*
X107872345Y-55115968D01*
X107872350Y-55115969D01*
X108051596Y-55136165D01*
X108051600Y-55136165D01*
X108051604Y-55136165D01*
X108230849Y-55115969D01*
X108230852Y-55115968D01*
X108230855Y-55115968D01*
X108401122Y-55056389D01*
X108553862Y-54960416D01*
X108681416Y-54832862D01*
X108777389Y-54680122D01*
X108836968Y-54509855D01*
X108857165Y-54330600D01*
X108836968Y-54151345D01*
X108777389Y-53981078D01*
X108681416Y-53828338D01*
X108553862Y-53700784D01*
X108401123Y-53604811D01*
X108230854Y-53545231D01*
X108230849Y-53545230D01*
X108051604Y-53525035D01*
X108051596Y-53525035D01*
X107872350Y-53545230D01*
X107872345Y-53545231D01*
X107702076Y-53604811D01*
X107549336Y-53700785D01*
X107546503Y-53703045D01*
X107544324Y-53703934D01*
X107543442Y-53704489D01*
X107543344Y-53704334D01*
X107481817Y-53729455D01*
X107469188Y-53730100D01*
X107368657Y-53730100D01*
X107210543Y-53730100D01*
X107057815Y-53771023D01*
X107057814Y-53771023D01*
X107057812Y-53771024D01*
X107057809Y-53771025D01*
X107022666Y-53791316D01*
X107022664Y-53791317D01*
X106920890Y-53850075D01*
X106920882Y-53850081D01*
X106809078Y-53961886D01*
X105112065Y-55658898D01*
X105050742Y-55692383D01*
X105038268Y-55694437D01*
X104951350Y-55704230D01*
X104781078Y-55763810D01*
X104628337Y-55859784D01*
X104500784Y-55987337D01*
X104404811Y-56140076D01*
X104345231Y-56310345D01*
X104345230Y-56310350D01*
X104325035Y-56489596D01*
X104325035Y-56489603D01*
X104345230Y-56668849D01*
X104345231Y-56668854D01*
X104404811Y-56839123D01*
X104490077Y-56974822D01*
X104509077Y-57042059D01*
X104488709Y-57108894D01*
X104435441Y-57154108D01*
X104398969Y-57164014D01*
X104389863Y-57165040D01*
X104389860Y-57165040D01*
X104219591Y-57224620D01*
X104066852Y-57320593D01*
X103939299Y-57448146D01*
X103843326Y-57600885D01*
X103783746Y-57771154D01*
X103783745Y-57771159D01*
X103763550Y-57950405D01*
X68370500Y-57950405D01*
X68370500Y-51984500D01*
X68390185Y-51917461D01*
X68442989Y-51871706D01*
X68494500Y-51860500D01*
X120995500Y-51860500D01*
X121062539Y-51880185D01*
G37*
%TD.AperFunction*%
%TD*%
M02*
