%TF.GenerationSoftware,KiCad,Pcbnew,8.0.5*%
%TF.CreationDate,2025-03-07T15:27:17-05:00*%
%TF.ProjectId,TrainTrackerTest,54726169-6e54-4726-9163-6b6572546573,rev?*%
%TF.SameCoordinates,Original*%
%TF.FileFunction,Drillmap*%
%TF.FilePolarity,Positive*%
%FSLAX45Y45*%
G04 Gerber Fmt 4.5, Leading zero omitted, Abs format (unit mm)*
G04 Created by KiCad (PCBNEW 8.0.5) date 2025-03-07 15:27:17*
%MOMM*%
%LPD*%
G01*
G04 APERTURE LIST*
%ADD10C,0.050000*%
%ADD11C,0.200000*%
%ADD12C,0.100000*%
G04 APERTURE END LIST*
D10*
X6787000Y-5136000D02*
X12162000Y-5136000D01*
X12162000Y-10497820D01*
X6787000Y-10497820D01*
X6787000Y-5136000D01*
D11*
D12*
X7298000Y-6186000D02*
X7328000Y-6216000D01*
X7328000Y-6186000D02*
X7298000Y-6216000D01*
X9423640Y-9118840D02*
X9453640Y-9148840D01*
X9453640Y-9118840D02*
X9423640Y-9148840D01*
X10165320Y-7115222D02*
X10195320Y-7145222D01*
X10195320Y-7115222D02*
X10165320Y-7145222D01*
X10260955Y-7365015D02*
X10290955Y-7395015D01*
X10290955Y-7365015D02*
X10260955Y-7395015D01*
X10441912Y-5780041D02*
X10471912Y-5810041D01*
X10471912Y-5780041D02*
X10441912Y-5810041D01*
X10462000Y-8680000D02*
X10492000Y-8710000D01*
X10492000Y-8680000D02*
X10462000Y-8710000D01*
X10490440Y-8054580D02*
X10520440Y-8084580D01*
X10520440Y-8054580D02*
X10490440Y-8084580D01*
X10498060Y-5633960D02*
X10528060Y-5663960D01*
X10528060Y-5633960D02*
X10498060Y-5663960D01*
X10790160Y-5418060D02*
X10820160Y-5448060D01*
X10820160Y-5418060D02*
X10790160Y-5448060D01*
X10869000Y-8693000D02*
X10899000Y-8723000D01*
X10899000Y-8693000D02*
X10869000Y-8723000D01*
X10981000Y-8172000D02*
X11011000Y-8202000D01*
X11011000Y-8172000D02*
X10981000Y-8202000D01*
X11081380Y-6525500D02*
X11111380Y-6555500D01*
X11111380Y-6525500D02*
X11081380Y-6555500D01*
X11488660Y-5463780D02*
X11518660Y-5493780D01*
X11518660Y-5463780D02*
X11488660Y-5493780D01*
X11532000Y-8534000D02*
X11562000Y-8564000D01*
X11562000Y-8534000D02*
X11532000Y-8564000D01*
X11559780Y-6898880D02*
X11589780Y-6928880D01*
X11589780Y-6898880D02*
X11559780Y-6928880D01*
X11560000Y-9896000D02*
X11590000Y-9926000D01*
X11590000Y-9896000D02*
X11560000Y-9926000D01*
X11754000Y-7315000D02*
X11784000Y-7345000D01*
X11784000Y-7315000D02*
X11754000Y-7345000D01*
X10946612Y-6050040D02*
G75*
G02*
X10916132Y-6050040I-15240J0D01*
G01*
X10916132Y-6050040D02*
G75*
G02*
X10946612Y-6050040I15240J0D01*
G01*
X10946612Y-6160040D02*
G75*
G02*
X10916132Y-6160040I-15240J0D01*
G01*
X10916132Y-6160040D02*
G75*
G02*
X10946612Y-6160040I15240J0D01*
G01*
X10946612Y-6280040D02*
G75*
G02*
X10916132Y-6280040I-15240J0D01*
G01*
X10916132Y-6280040D02*
G75*
G02*
X10946612Y-6280040I15240J0D01*
G01*
X10946612Y-6390040D02*
G75*
G02*
X10916132Y-6390040I-15240J0D01*
G01*
X10916132Y-6390040D02*
G75*
G02*
X10946612Y-6390040I15240J0D01*
G01*
X10959304Y-7685220D02*
G75*
G02*
X10928824Y-7685220I-15240J0D01*
G01*
X10928824Y-7685220D02*
G75*
G02*
X10959304Y-7685220I15240J0D01*
G01*
X10959304Y-7795220D02*
G75*
G02*
X10928824Y-7795220I-15240J0D01*
G01*
X10928824Y-7795220D02*
G75*
G02*
X10959304Y-7795220I15240J0D01*
G01*
X10959304Y-7915220D02*
G75*
G02*
X10928824Y-7915220I-15240J0D01*
G01*
X10928824Y-7915220D02*
G75*
G02*
X10959304Y-7915220I15240J0D01*
G01*
X10959304Y-8025220D02*
G75*
G02*
X10928824Y-8025220I-15240J0D01*
G01*
X10928824Y-8025220D02*
G75*
G02*
X10959304Y-8025220I15240J0D01*
G01*
X11056612Y-6050040D02*
G75*
G02*
X11026132Y-6050040I-15240J0D01*
G01*
X11026132Y-6050040D02*
G75*
G02*
X11056612Y-6050040I15240J0D01*
G01*
X11056612Y-6160040D02*
G75*
G02*
X11026132Y-6160040I-15240J0D01*
G01*
X11026132Y-6160040D02*
G75*
G02*
X11056612Y-6160040I15240J0D01*
G01*
X11056612Y-6280040D02*
G75*
G02*
X11026132Y-6280040I-15240J0D01*
G01*
X11026132Y-6280040D02*
G75*
G02*
X11056612Y-6280040I15240J0D01*
G01*
X11056612Y-6390040D02*
G75*
G02*
X11026132Y-6390040I-15240J0D01*
G01*
X11026132Y-6390040D02*
G75*
G02*
X11056612Y-6390040I15240J0D01*
G01*
X11069304Y-7685220D02*
G75*
G02*
X11038824Y-7685220I-15240J0D01*
G01*
X11038824Y-7685220D02*
G75*
G02*
X11069304Y-7685220I15240J0D01*
G01*
X11069304Y-7795220D02*
G75*
G02*
X11038824Y-7795220I-15240J0D01*
G01*
X11038824Y-7795220D02*
G75*
G02*
X11069304Y-7795220I15240J0D01*
G01*
X11069304Y-7915220D02*
G75*
G02*
X11038824Y-7915220I-15240J0D01*
G01*
X11038824Y-7915220D02*
G75*
G02*
X11069304Y-7915220I15240J0D01*
G01*
X11069304Y-8025220D02*
G75*
G02*
X11038824Y-8025220I-15240J0D01*
G01*
X11038824Y-8025220D02*
G75*
G02*
X11069304Y-8025220I15240J0D01*
G01*
X11166612Y-6050040D02*
G75*
G02*
X11136132Y-6050040I-15240J0D01*
G01*
X11136132Y-6050040D02*
G75*
G02*
X11166612Y-6050040I15240J0D01*
G01*
X11166612Y-6160040D02*
G75*
G02*
X11136132Y-6160040I-15240J0D01*
G01*
X11136132Y-6160040D02*
G75*
G02*
X11166612Y-6160040I15240J0D01*
G01*
X11166612Y-6280040D02*
G75*
G02*
X11136132Y-6280040I-15240J0D01*
G01*
X11136132Y-6280040D02*
G75*
G02*
X11166612Y-6280040I15240J0D01*
G01*
X11166612Y-6390040D02*
G75*
G02*
X11136132Y-6390040I-15240J0D01*
G01*
X11136132Y-6390040D02*
G75*
G02*
X11166612Y-6390040I15240J0D01*
G01*
X11179304Y-7685220D02*
G75*
G02*
X11148824Y-7685220I-15240J0D01*
G01*
X11148824Y-7685220D02*
G75*
G02*
X11179304Y-7685220I15240J0D01*
G01*
X11179304Y-7795220D02*
G75*
G02*
X11148824Y-7795220I-15240J0D01*
G01*
X11148824Y-7795220D02*
G75*
G02*
X11179304Y-7795220I15240J0D01*
G01*
X11179304Y-7915220D02*
G75*
G02*
X11148824Y-7915220I-15240J0D01*
G01*
X11148824Y-7915220D02*
G75*
G02*
X11179304Y-7915220I15240J0D01*
G01*
X11179304Y-8025220D02*
G75*
G02*
X11148824Y-8025220I-15240J0D01*
G01*
X11148824Y-8025220D02*
G75*
G02*
X11179304Y-8025220I15240J0D01*
G01*
X10187485Y-9858820D02*
X10187485Y-9945180D01*
X10144305Y-9902000D02*
X10230665Y-9902000D01*
X10687865Y-9858820D02*
X10687865Y-9945180D01*
X10644685Y-9902000D02*
X10731045Y-9902000D01*
X7166816Y-6044996D02*
X7166816Y-5974284D01*
X7096104Y-5974284D01*
X7096104Y-6044996D01*
X7166816Y-6044996D01*
X7166816Y-6298996D02*
X7166816Y-6228284D01*
X7096104Y-6228284D01*
X7096104Y-6298996D01*
X7166816Y-6298996D01*
X7166816Y-6552996D02*
X7166816Y-6482284D01*
X7096104Y-6482284D01*
X7096104Y-6552996D01*
X7166816Y-6552996D01*
X7166816Y-6806996D02*
X7166816Y-6736284D01*
X7096104Y-6736284D01*
X7096104Y-6806996D01*
X7166816Y-6806996D01*
X7166816Y-7060996D02*
X7166816Y-6990284D01*
X7096104Y-6990284D01*
X7096104Y-7060996D01*
X7166816Y-7060996D01*
X7166816Y-7314996D02*
X7166816Y-7244284D01*
X7096104Y-7244284D01*
X7096104Y-7314996D01*
X7166816Y-7314996D01*
X7166816Y-7568996D02*
X7166816Y-7498284D01*
X7096104Y-7498284D01*
X7096104Y-7568996D01*
X7166816Y-7568996D01*
X7166816Y-7822996D02*
X7166816Y-7752284D01*
X7096104Y-7752284D01*
X7096104Y-7822996D01*
X7166816Y-7822996D01*
X7166816Y-8076996D02*
X7166816Y-8006284D01*
X7096104Y-8006284D01*
X7096104Y-8076996D01*
X7166816Y-8076996D01*
X7166816Y-8330996D02*
X7166816Y-8260284D01*
X7096104Y-8260284D01*
X7096104Y-8330996D01*
X7166816Y-8330996D01*
X7166816Y-8584996D02*
X7166816Y-8514284D01*
X7096104Y-8514284D01*
X7096104Y-8584996D01*
X7166816Y-8584996D01*
X7166816Y-8838996D02*
X7166816Y-8768284D01*
X7096104Y-8768284D01*
X7096104Y-8838996D01*
X7166816Y-8838996D01*
X7166816Y-9092996D02*
X7166816Y-9022284D01*
X7096104Y-9022284D01*
X7096104Y-9092996D01*
X7166816Y-9092996D01*
X7166816Y-9346996D02*
X7166816Y-9276284D01*
X7096104Y-9276284D01*
X7096104Y-9346996D01*
X7166816Y-9346996D01*
X7166816Y-9600996D02*
X7166816Y-9530284D01*
X7096104Y-9530284D01*
X7096104Y-9600996D01*
X7166816Y-9600996D01*
X9699816Y-6044996D02*
X9699816Y-5974284D01*
X9629104Y-5974284D01*
X9629104Y-6044996D01*
X9699816Y-6044996D01*
X9699816Y-6298996D02*
X9699816Y-6228284D01*
X9629104Y-6228284D01*
X9629104Y-6298996D01*
X9699816Y-6298996D01*
X9699816Y-6552996D02*
X9699816Y-6482284D01*
X9629104Y-6482284D01*
X9629104Y-6552996D01*
X9699816Y-6552996D01*
X9699816Y-6806996D02*
X9699816Y-6736284D01*
X9629104Y-6736284D01*
X9629104Y-6806996D01*
X9699816Y-6806996D01*
X9699816Y-7060996D02*
X9699816Y-6990284D01*
X9629104Y-6990284D01*
X9629104Y-7060996D01*
X9699816Y-7060996D01*
X9699816Y-7314996D02*
X9699816Y-7244284D01*
X9629104Y-7244284D01*
X9629104Y-7314996D01*
X9699816Y-7314996D01*
X9699816Y-7568996D02*
X9699816Y-7498284D01*
X9629104Y-7498284D01*
X9629104Y-7568996D01*
X9699816Y-7568996D01*
X9699816Y-7822996D02*
X9699816Y-7752284D01*
X9629104Y-7752284D01*
X9629104Y-7822996D01*
X9699816Y-7822996D01*
X9699816Y-8076996D02*
X9699816Y-8006284D01*
X9629104Y-8006284D01*
X9629104Y-8076996D01*
X9699816Y-8076996D01*
X9699816Y-8330996D02*
X9699816Y-8260284D01*
X9629104Y-8260284D01*
X9629104Y-8330996D01*
X9699816Y-8330996D01*
X9699816Y-8584996D02*
X9699816Y-8514284D01*
X9629104Y-8514284D01*
X9629104Y-8584996D01*
X9699816Y-8584996D01*
X9699816Y-8838996D02*
X9699816Y-8768284D01*
X9629104Y-8768284D01*
X9629104Y-8838996D01*
X9699816Y-8838996D01*
X9699816Y-9092996D02*
X9699816Y-9022284D01*
X9629104Y-9022284D01*
X9629104Y-9092996D01*
X9699816Y-9092996D01*
X9699816Y-9346996D02*
X9699816Y-9276284D01*
X9629104Y-9276284D01*
X9629104Y-9346996D01*
X9699816Y-9346996D01*
X9699816Y-9600996D02*
X9699816Y-9530284D01*
X9629104Y-9530284D01*
X9629104Y-9600996D01*
X9699816Y-9600996D01*
X11153356Y-9388356D02*
X11153356Y-9317644D01*
X11082644Y-9317644D01*
X11082644Y-9388356D01*
X11153356Y-9388356D01*
X11068000Y-9228000D02*
X11068000Y-9478000D01*
X11168000Y-9478000D02*
G75*
G02*
X11068000Y-9478000I-50000J0D01*
G01*
X11168000Y-9478000D02*
X11168000Y-9228000D01*
X11168000Y-9228000D02*
G75*
G03*
X11068000Y-9228000I-50000J0D01*
G01*
X11453356Y-8918356D02*
X11453356Y-8847644D01*
X11382644Y-8847644D01*
X11382644Y-8918356D01*
X11453356Y-8918356D01*
X11318000Y-8933000D02*
X11518000Y-8933000D01*
X11518000Y-8833000D02*
G75*
G02*
X11518000Y-8933000I0J-50000D01*
G01*
X11518000Y-8833000D02*
X11318000Y-8833000D01*
X11318000Y-8833000D02*
G75*
G03*
X11318000Y-8933000I0J-50000D01*
G01*
X11753356Y-9388356D02*
X11753356Y-9317644D01*
X11682644Y-9317644D01*
X11682644Y-9388356D01*
X11753356Y-9388356D01*
X11668000Y-9253000D02*
X11668000Y-9453000D01*
X11768000Y-9453000D02*
G75*
G02*
X11668000Y-9453000I-50000J0D01*
G01*
X11768000Y-9453000D02*
X11768000Y-9253000D01*
X11768000Y-9253000D02*
G75*
G03*
X11668000Y-9253000I-50000J0D01*
G01*
D11*
X7045277Y-10811804D02*
X7045277Y-10611804D01*
X7045277Y-10611804D02*
X7092896Y-10611804D01*
X7092896Y-10611804D02*
X7121467Y-10621328D01*
X7121467Y-10621328D02*
X7140515Y-10640375D01*
X7140515Y-10640375D02*
X7150039Y-10659423D01*
X7150039Y-10659423D02*
X7159562Y-10697518D01*
X7159562Y-10697518D02*
X7159562Y-10726090D01*
X7159562Y-10726090D02*
X7150039Y-10764185D01*
X7150039Y-10764185D02*
X7140515Y-10783232D01*
X7140515Y-10783232D02*
X7121467Y-10802280D01*
X7121467Y-10802280D02*
X7092896Y-10811804D01*
X7092896Y-10811804D02*
X7045277Y-10811804D01*
X7245277Y-10811804D02*
X7245277Y-10678470D01*
X7245277Y-10716566D02*
X7254801Y-10697518D01*
X7254801Y-10697518D02*
X7264324Y-10687994D01*
X7264324Y-10687994D02*
X7283372Y-10678470D01*
X7283372Y-10678470D02*
X7302420Y-10678470D01*
X7369086Y-10811804D02*
X7369086Y-10678470D01*
X7369086Y-10611804D02*
X7359562Y-10621328D01*
X7359562Y-10621328D02*
X7369086Y-10630851D01*
X7369086Y-10630851D02*
X7378610Y-10621328D01*
X7378610Y-10621328D02*
X7369086Y-10611804D01*
X7369086Y-10611804D02*
X7369086Y-10630851D01*
X7492896Y-10811804D02*
X7473848Y-10802280D01*
X7473848Y-10802280D02*
X7464324Y-10783232D01*
X7464324Y-10783232D02*
X7464324Y-10611804D01*
X7597658Y-10811804D02*
X7578610Y-10802280D01*
X7578610Y-10802280D02*
X7569086Y-10783232D01*
X7569086Y-10783232D02*
X7569086Y-10611804D01*
X7826229Y-10811804D02*
X7826229Y-10611804D01*
X7826229Y-10611804D02*
X7892896Y-10754661D01*
X7892896Y-10754661D02*
X7959562Y-10611804D01*
X7959562Y-10611804D02*
X7959562Y-10811804D01*
X8140515Y-10811804D02*
X8140515Y-10707042D01*
X8140515Y-10707042D02*
X8130991Y-10687994D01*
X8130991Y-10687994D02*
X8111943Y-10678470D01*
X8111943Y-10678470D02*
X8073848Y-10678470D01*
X8073848Y-10678470D02*
X8054801Y-10687994D01*
X8140515Y-10802280D02*
X8121467Y-10811804D01*
X8121467Y-10811804D02*
X8073848Y-10811804D01*
X8073848Y-10811804D02*
X8054801Y-10802280D01*
X8054801Y-10802280D02*
X8045277Y-10783232D01*
X8045277Y-10783232D02*
X8045277Y-10764185D01*
X8045277Y-10764185D02*
X8054801Y-10745137D01*
X8054801Y-10745137D02*
X8073848Y-10735613D01*
X8073848Y-10735613D02*
X8121467Y-10735613D01*
X8121467Y-10735613D02*
X8140515Y-10726090D01*
X8235753Y-10678470D02*
X8235753Y-10878470D01*
X8235753Y-10687994D02*
X8254801Y-10678470D01*
X8254801Y-10678470D02*
X8292896Y-10678470D01*
X8292896Y-10678470D02*
X8311943Y-10687994D01*
X8311943Y-10687994D02*
X8321467Y-10697518D01*
X8321467Y-10697518D02*
X8330991Y-10716566D01*
X8330991Y-10716566D02*
X8330991Y-10773709D01*
X8330991Y-10773709D02*
X8321467Y-10792756D01*
X8321467Y-10792756D02*
X8311943Y-10802280D01*
X8311943Y-10802280D02*
X8292896Y-10811804D01*
X8292896Y-10811804D02*
X8254801Y-10811804D01*
X8254801Y-10811804D02*
X8235753Y-10802280D01*
X8416705Y-10792756D02*
X8426229Y-10802280D01*
X8426229Y-10802280D02*
X8416705Y-10811804D01*
X8416705Y-10811804D02*
X8407182Y-10802280D01*
X8407182Y-10802280D02*
X8416705Y-10792756D01*
X8416705Y-10792756D02*
X8416705Y-10811804D01*
X8416705Y-10687994D02*
X8426229Y-10697518D01*
X8426229Y-10697518D02*
X8416705Y-10707042D01*
X8416705Y-10707042D02*
X8407182Y-10697518D01*
X8407182Y-10697518D02*
X8416705Y-10687994D01*
X8416705Y-10687994D02*
X8416705Y-10707042D01*
D12*
X6754500Y-11125320D02*
X6784500Y-11155320D01*
X6784500Y-11125320D02*
X6754500Y-11155320D01*
D11*
X7083372Y-11031804D02*
X7102420Y-11031804D01*
X7102420Y-11031804D02*
X7121467Y-11041328D01*
X7121467Y-11041328D02*
X7130991Y-11050851D01*
X7130991Y-11050851D02*
X7140515Y-11069899D01*
X7140515Y-11069899D02*
X7150039Y-11107994D01*
X7150039Y-11107994D02*
X7150039Y-11155613D01*
X7150039Y-11155613D02*
X7140515Y-11193708D01*
X7140515Y-11193708D02*
X7130991Y-11212756D01*
X7130991Y-11212756D02*
X7121467Y-11222280D01*
X7121467Y-11222280D02*
X7102420Y-11231804D01*
X7102420Y-11231804D02*
X7083372Y-11231804D01*
X7083372Y-11231804D02*
X7064324Y-11222280D01*
X7064324Y-11222280D02*
X7054801Y-11212756D01*
X7054801Y-11212756D02*
X7045277Y-11193708D01*
X7045277Y-11193708D02*
X7035753Y-11155613D01*
X7035753Y-11155613D02*
X7035753Y-11107994D01*
X7035753Y-11107994D02*
X7045277Y-11069899D01*
X7045277Y-11069899D02*
X7054801Y-11050851D01*
X7054801Y-11050851D02*
X7064324Y-11041328D01*
X7064324Y-11041328D02*
X7083372Y-11031804D01*
X7235753Y-11212756D02*
X7245277Y-11222280D01*
X7245277Y-11222280D02*
X7235753Y-11231804D01*
X7235753Y-11231804D02*
X7226229Y-11222280D01*
X7226229Y-11222280D02*
X7235753Y-11212756D01*
X7235753Y-11212756D02*
X7235753Y-11231804D01*
X7311943Y-11031804D02*
X7435753Y-11031804D01*
X7435753Y-11031804D02*
X7369086Y-11107994D01*
X7369086Y-11107994D02*
X7397658Y-11107994D01*
X7397658Y-11107994D02*
X7416705Y-11117518D01*
X7416705Y-11117518D02*
X7426229Y-11127042D01*
X7426229Y-11127042D02*
X7435753Y-11146090D01*
X7435753Y-11146090D02*
X7435753Y-11193708D01*
X7435753Y-11193708D02*
X7426229Y-11212756D01*
X7426229Y-11212756D02*
X7416705Y-11222280D01*
X7416705Y-11222280D02*
X7397658Y-11231804D01*
X7397658Y-11231804D02*
X7340515Y-11231804D01*
X7340515Y-11231804D02*
X7321467Y-11222280D01*
X7321467Y-11222280D02*
X7311943Y-11212756D01*
X7559562Y-11031804D02*
X7578610Y-11031804D01*
X7578610Y-11031804D02*
X7597658Y-11041328D01*
X7597658Y-11041328D02*
X7607182Y-11050851D01*
X7607182Y-11050851D02*
X7616705Y-11069899D01*
X7616705Y-11069899D02*
X7626229Y-11107994D01*
X7626229Y-11107994D02*
X7626229Y-11155613D01*
X7626229Y-11155613D02*
X7616705Y-11193708D01*
X7616705Y-11193708D02*
X7607182Y-11212756D01*
X7607182Y-11212756D02*
X7597658Y-11222280D01*
X7597658Y-11222280D02*
X7578610Y-11231804D01*
X7578610Y-11231804D02*
X7559562Y-11231804D01*
X7559562Y-11231804D02*
X7540515Y-11222280D01*
X7540515Y-11222280D02*
X7530991Y-11212756D01*
X7530991Y-11212756D02*
X7521467Y-11193708D01*
X7521467Y-11193708D02*
X7511943Y-11155613D01*
X7511943Y-11155613D02*
X7511943Y-11107994D01*
X7511943Y-11107994D02*
X7521467Y-11069899D01*
X7521467Y-11069899D02*
X7530991Y-11050851D01*
X7530991Y-11050851D02*
X7540515Y-11041328D01*
X7540515Y-11041328D02*
X7559562Y-11031804D01*
X7750039Y-11031804D02*
X7769086Y-11031804D01*
X7769086Y-11031804D02*
X7788134Y-11041328D01*
X7788134Y-11041328D02*
X7797658Y-11050851D01*
X7797658Y-11050851D02*
X7807182Y-11069899D01*
X7807182Y-11069899D02*
X7816705Y-11107994D01*
X7816705Y-11107994D02*
X7816705Y-11155613D01*
X7816705Y-11155613D02*
X7807182Y-11193708D01*
X7807182Y-11193708D02*
X7797658Y-11212756D01*
X7797658Y-11212756D02*
X7788134Y-11222280D01*
X7788134Y-11222280D02*
X7769086Y-11231804D01*
X7769086Y-11231804D02*
X7750039Y-11231804D01*
X7750039Y-11231804D02*
X7730991Y-11222280D01*
X7730991Y-11222280D02*
X7721467Y-11212756D01*
X7721467Y-11212756D02*
X7711943Y-11193708D01*
X7711943Y-11193708D02*
X7702420Y-11155613D01*
X7702420Y-11155613D02*
X7702420Y-11107994D01*
X7702420Y-11107994D02*
X7711943Y-11069899D01*
X7711943Y-11069899D02*
X7721467Y-11050851D01*
X7721467Y-11050851D02*
X7730991Y-11041328D01*
X7730991Y-11041328D02*
X7750039Y-11031804D01*
X7902420Y-11231804D02*
X7902420Y-11098470D01*
X7902420Y-11117518D02*
X7911943Y-11107994D01*
X7911943Y-11107994D02*
X7930991Y-11098470D01*
X7930991Y-11098470D02*
X7959563Y-11098470D01*
X7959563Y-11098470D02*
X7978610Y-11107994D01*
X7978610Y-11107994D02*
X7988134Y-11127042D01*
X7988134Y-11127042D02*
X7988134Y-11231804D01*
X7988134Y-11127042D02*
X7997658Y-11107994D01*
X7997658Y-11107994D02*
X8016705Y-11098470D01*
X8016705Y-11098470D02*
X8045277Y-11098470D01*
X8045277Y-11098470D02*
X8064324Y-11107994D01*
X8064324Y-11107994D02*
X8073848Y-11127042D01*
X8073848Y-11127042D02*
X8073848Y-11231804D01*
X8169086Y-11231804D02*
X8169086Y-11098470D01*
X8169086Y-11117518D02*
X8178610Y-11107994D01*
X8178610Y-11107994D02*
X8197658Y-11098470D01*
X8197658Y-11098470D02*
X8226229Y-11098470D01*
X8226229Y-11098470D02*
X8245277Y-11107994D01*
X8245277Y-11107994D02*
X8254801Y-11127042D01*
X8254801Y-11127042D02*
X8254801Y-11231804D01*
X8254801Y-11127042D02*
X8264324Y-11107994D01*
X8264324Y-11107994D02*
X8283372Y-11098470D01*
X8283372Y-11098470D02*
X8311943Y-11098470D01*
X8311943Y-11098470D02*
X8330991Y-11107994D01*
X8330991Y-11107994D02*
X8340515Y-11127042D01*
X8340515Y-11127042D02*
X8340515Y-11231804D01*
X8730991Y-11022280D02*
X8559563Y-11279423D01*
X8988134Y-11031804D02*
X9007182Y-11031804D01*
X9007182Y-11031804D02*
X9026229Y-11041328D01*
X9026229Y-11041328D02*
X9035753Y-11050851D01*
X9035753Y-11050851D02*
X9045277Y-11069899D01*
X9045277Y-11069899D02*
X9054801Y-11107994D01*
X9054801Y-11107994D02*
X9054801Y-11155613D01*
X9054801Y-11155613D02*
X9045277Y-11193708D01*
X9045277Y-11193708D02*
X9035753Y-11212756D01*
X9035753Y-11212756D02*
X9026229Y-11222280D01*
X9026229Y-11222280D02*
X9007182Y-11231804D01*
X9007182Y-11231804D02*
X8988134Y-11231804D01*
X8988134Y-11231804D02*
X8969087Y-11222280D01*
X8969087Y-11222280D02*
X8959563Y-11212756D01*
X8959563Y-11212756D02*
X8950039Y-11193708D01*
X8950039Y-11193708D02*
X8940515Y-11155613D01*
X8940515Y-11155613D02*
X8940515Y-11107994D01*
X8940515Y-11107994D02*
X8950039Y-11069899D01*
X8950039Y-11069899D02*
X8959563Y-11050851D01*
X8959563Y-11050851D02*
X8969087Y-11041328D01*
X8969087Y-11041328D02*
X8988134Y-11031804D01*
X9140515Y-11212756D02*
X9150039Y-11222280D01*
X9150039Y-11222280D02*
X9140515Y-11231804D01*
X9140515Y-11231804D02*
X9130991Y-11222280D01*
X9130991Y-11222280D02*
X9140515Y-11212756D01*
X9140515Y-11212756D02*
X9140515Y-11231804D01*
X9273848Y-11031804D02*
X9292896Y-11031804D01*
X9292896Y-11031804D02*
X9311944Y-11041328D01*
X9311944Y-11041328D02*
X9321468Y-11050851D01*
X9321468Y-11050851D02*
X9330991Y-11069899D01*
X9330991Y-11069899D02*
X9340515Y-11107994D01*
X9340515Y-11107994D02*
X9340515Y-11155613D01*
X9340515Y-11155613D02*
X9330991Y-11193708D01*
X9330991Y-11193708D02*
X9321468Y-11212756D01*
X9321468Y-11212756D02*
X9311944Y-11222280D01*
X9311944Y-11222280D02*
X9292896Y-11231804D01*
X9292896Y-11231804D02*
X9273848Y-11231804D01*
X9273848Y-11231804D02*
X9254801Y-11222280D01*
X9254801Y-11222280D02*
X9245277Y-11212756D01*
X9245277Y-11212756D02*
X9235753Y-11193708D01*
X9235753Y-11193708D02*
X9226229Y-11155613D01*
X9226229Y-11155613D02*
X9226229Y-11107994D01*
X9226229Y-11107994D02*
X9235753Y-11069899D01*
X9235753Y-11069899D02*
X9245277Y-11050851D01*
X9245277Y-11050851D02*
X9254801Y-11041328D01*
X9254801Y-11041328D02*
X9273848Y-11031804D01*
X9530991Y-11231804D02*
X9416706Y-11231804D01*
X9473848Y-11231804D02*
X9473848Y-11031804D01*
X9473848Y-11031804D02*
X9454801Y-11060375D01*
X9454801Y-11060375D02*
X9435753Y-11079423D01*
X9435753Y-11079423D02*
X9416706Y-11088947D01*
X9721468Y-11231804D02*
X9607182Y-11231804D01*
X9664325Y-11231804D02*
X9664325Y-11031804D01*
X9664325Y-11031804D02*
X9645277Y-11060375D01*
X9645277Y-11060375D02*
X9626229Y-11079423D01*
X9626229Y-11079423D02*
X9607182Y-11088947D01*
X9835753Y-11117518D02*
X9816706Y-11107994D01*
X9816706Y-11107994D02*
X9807182Y-11098470D01*
X9807182Y-11098470D02*
X9797658Y-11079423D01*
X9797658Y-11079423D02*
X9797658Y-11069899D01*
X9797658Y-11069899D02*
X9807182Y-11050851D01*
X9807182Y-11050851D02*
X9816706Y-11041328D01*
X9816706Y-11041328D02*
X9835753Y-11031804D01*
X9835753Y-11031804D02*
X9873849Y-11031804D01*
X9873849Y-11031804D02*
X9892896Y-11041328D01*
X9892896Y-11041328D02*
X9902420Y-11050851D01*
X9902420Y-11050851D02*
X9911944Y-11069899D01*
X9911944Y-11069899D02*
X9911944Y-11079423D01*
X9911944Y-11079423D02*
X9902420Y-11098470D01*
X9902420Y-11098470D02*
X9892896Y-11107994D01*
X9892896Y-11107994D02*
X9873849Y-11117518D01*
X9873849Y-11117518D02*
X9835753Y-11117518D01*
X9835753Y-11117518D02*
X9816706Y-11127042D01*
X9816706Y-11127042D02*
X9807182Y-11136566D01*
X9807182Y-11136566D02*
X9797658Y-11155613D01*
X9797658Y-11155613D02*
X9797658Y-11193708D01*
X9797658Y-11193708D02*
X9807182Y-11212756D01*
X9807182Y-11212756D02*
X9816706Y-11222280D01*
X9816706Y-11222280D02*
X9835753Y-11231804D01*
X9835753Y-11231804D02*
X9873849Y-11231804D01*
X9873849Y-11231804D02*
X9892896Y-11222280D01*
X9892896Y-11222280D02*
X9902420Y-11212756D01*
X9902420Y-11212756D02*
X9911944Y-11193708D01*
X9911944Y-11193708D02*
X9911944Y-11155613D01*
X9911944Y-11155613D02*
X9902420Y-11136566D01*
X9902420Y-11136566D02*
X9892896Y-11127042D01*
X9892896Y-11127042D02*
X9873849Y-11117518D01*
X9988134Y-11031804D02*
X9988134Y-11069899D01*
X10064325Y-11031804D02*
X10064325Y-11069899D01*
X10359563Y-11307994D02*
X10350039Y-11298470D01*
X10350039Y-11298470D02*
X10330991Y-11269899D01*
X10330991Y-11269899D02*
X10321468Y-11250851D01*
X10321468Y-11250851D02*
X10311944Y-11222280D01*
X10311944Y-11222280D02*
X10302420Y-11174661D01*
X10302420Y-11174661D02*
X10302420Y-11136566D01*
X10302420Y-11136566D02*
X10311944Y-11088947D01*
X10311944Y-11088947D02*
X10321468Y-11060375D01*
X10321468Y-11060375D02*
X10330991Y-11041328D01*
X10330991Y-11041328D02*
X10350039Y-11012756D01*
X10350039Y-11012756D02*
X10359563Y-11003232D01*
X10540515Y-11231804D02*
X10426230Y-11231804D01*
X10483372Y-11231804D02*
X10483372Y-11031804D01*
X10483372Y-11031804D02*
X10464325Y-11060375D01*
X10464325Y-11060375D02*
X10445277Y-11079423D01*
X10445277Y-11079423D02*
X10426230Y-11088947D01*
X10607182Y-11031804D02*
X10740515Y-11031804D01*
X10740515Y-11031804D02*
X10654801Y-11231804D01*
X10969087Y-11231804D02*
X10969087Y-11031804D01*
X11054801Y-11231804D02*
X11054801Y-11127042D01*
X11054801Y-11127042D02*
X11045277Y-11107994D01*
X11045277Y-11107994D02*
X11026230Y-11098470D01*
X11026230Y-11098470D02*
X10997658Y-11098470D01*
X10997658Y-11098470D02*
X10978611Y-11107994D01*
X10978611Y-11107994D02*
X10969087Y-11117518D01*
X11178611Y-11231804D02*
X11159563Y-11222280D01*
X11159563Y-11222280D02*
X11150039Y-11212756D01*
X11150039Y-11212756D02*
X11140515Y-11193708D01*
X11140515Y-11193708D02*
X11140515Y-11136566D01*
X11140515Y-11136566D02*
X11150039Y-11117518D01*
X11150039Y-11117518D02*
X11159563Y-11107994D01*
X11159563Y-11107994D02*
X11178611Y-11098470D01*
X11178611Y-11098470D02*
X11207182Y-11098470D01*
X11207182Y-11098470D02*
X11226230Y-11107994D01*
X11226230Y-11107994D02*
X11235753Y-11117518D01*
X11235753Y-11117518D02*
X11245277Y-11136566D01*
X11245277Y-11136566D02*
X11245277Y-11193708D01*
X11245277Y-11193708D02*
X11235753Y-11212756D01*
X11235753Y-11212756D02*
X11226230Y-11222280D01*
X11226230Y-11222280D02*
X11207182Y-11231804D01*
X11207182Y-11231804D02*
X11178611Y-11231804D01*
X11359563Y-11231804D02*
X11340515Y-11222280D01*
X11340515Y-11222280D02*
X11330991Y-11203232D01*
X11330991Y-11203232D02*
X11330991Y-11031804D01*
X11511944Y-11222280D02*
X11492896Y-11231804D01*
X11492896Y-11231804D02*
X11454801Y-11231804D01*
X11454801Y-11231804D02*
X11435753Y-11222280D01*
X11435753Y-11222280D02*
X11426230Y-11203232D01*
X11426230Y-11203232D02*
X11426230Y-11127042D01*
X11426230Y-11127042D02*
X11435753Y-11107994D01*
X11435753Y-11107994D02*
X11454801Y-11098470D01*
X11454801Y-11098470D02*
X11492896Y-11098470D01*
X11492896Y-11098470D02*
X11511944Y-11107994D01*
X11511944Y-11107994D02*
X11521468Y-11127042D01*
X11521468Y-11127042D02*
X11521468Y-11146090D01*
X11521468Y-11146090D02*
X11426230Y-11165137D01*
X11597658Y-11222280D02*
X11616706Y-11231804D01*
X11616706Y-11231804D02*
X11654801Y-11231804D01*
X11654801Y-11231804D02*
X11673849Y-11222280D01*
X11673849Y-11222280D02*
X11683372Y-11203232D01*
X11683372Y-11203232D02*
X11683372Y-11193708D01*
X11683372Y-11193708D02*
X11673849Y-11174661D01*
X11673849Y-11174661D02*
X11654801Y-11165137D01*
X11654801Y-11165137D02*
X11626230Y-11165137D01*
X11626230Y-11165137D02*
X11607182Y-11155613D01*
X11607182Y-11155613D02*
X11597658Y-11136566D01*
X11597658Y-11136566D02*
X11597658Y-11127042D01*
X11597658Y-11127042D02*
X11607182Y-11107994D01*
X11607182Y-11107994D02*
X11626230Y-11098470D01*
X11626230Y-11098470D02*
X11654801Y-11098470D01*
X11654801Y-11098470D02*
X11673849Y-11107994D01*
X11750039Y-11307994D02*
X11759563Y-11298470D01*
X11759563Y-11298470D02*
X11778611Y-11269899D01*
X11778611Y-11269899D02*
X11788134Y-11250851D01*
X11788134Y-11250851D02*
X11797658Y-11222280D01*
X11797658Y-11222280D02*
X11807182Y-11174661D01*
X11807182Y-11174661D02*
X11807182Y-11136566D01*
X11807182Y-11136566D02*
X11797658Y-11088947D01*
X11797658Y-11088947D02*
X11788134Y-11060375D01*
X11788134Y-11060375D02*
X11778611Y-11041328D01*
X11778611Y-11041328D02*
X11759563Y-11012756D01*
X11759563Y-11012756D02*
X11750039Y-11003232D01*
D12*
X6784500Y-11404320D02*
G75*
G02*
X6754020Y-11404320I-15240J0D01*
G01*
X6754020Y-11404320D02*
G75*
G02*
X6784500Y-11404320I15240J0D01*
G01*
D11*
X7083372Y-11295804D02*
X7102420Y-11295804D01*
X7102420Y-11295804D02*
X7121467Y-11305328D01*
X7121467Y-11305328D02*
X7130991Y-11314851D01*
X7130991Y-11314851D02*
X7140515Y-11333899D01*
X7140515Y-11333899D02*
X7150039Y-11371994D01*
X7150039Y-11371994D02*
X7150039Y-11419613D01*
X7150039Y-11419613D02*
X7140515Y-11457708D01*
X7140515Y-11457708D02*
X7130991Y-11476756D01*
X7130991Y-11476756D02*
X7121467Y-11486280D01*
X7121467Y-11486280D02*
X7102420Y-11495804D01*
X7102420Y-11495804D02*
X7083372Y-11495804D01*
X7083372Y-11495804D02*
X7064324Y-11486280D01*
X7064324Y-11486280D02*
X7054801Y-11476756D01*
X7054801Y-11476756D02*
X7045277Y-11457708D01*
X7045277Y-11457708D02*
X7035753Y-11419613D01*
X7035753Y-11419613D02*
X7035753Y-11371994D01*
X7035753Y-11371994D02*
X7045277Y-11333899D01*
X7045277Y-11333899D02*
X7054801Y-11314851D01*
X7054801Y-11314851D02*
X7064324Y-11305328D01*
X7064324Y-11305328D02*
X7083372Y-11295804D01*
X7235753Y-11476756D02*
X7245277Y-11486280D01*
X7245277Y-11486280D02*
X7235753Y-11495804D01*
X7235753Y-11495804D02*
X7226229Y-11486280D01*
X7226229Y-11486280D02*
X7235753Y-11476756D01*
X7235753Y-11476756D02*
X7235753Y-11495804D01*
X7311943Y-11295804D02*
X7435753Y-11295804D01*
X7435753Y-11295804D02*
X7369086Y-11371994D01*
X7369086Y-11371994D02*
X7397658Y-11371994D01*
X7397658Y-11371994D02*
X7416705Y-11381518D01*
X7416705Y-11381518D02*
X7426229Y-11391042D01*
X7426229Y-11391042D02*
X7435753Y-11410089D01*
X7435753Y-11410089D02*
X7435753Y-11457708D01*
X7435753Y-11457708D02*
X7426229Y-11476756D01*
X7426229Y-11476756D02*
X7416705Y-11486280D01*
X7416705Y-11486280D02*
X7397658Y-11495804D01*
X7397658Y-11495804D02*
X7340515Y-11495804D01*
X7340515Y-11495804D02*
X7321467Y-11486280D01*
X7321467Y-11486280D02*
X7311943Y-11476756D01*
X7559562Y-11295804D02*
X7578610Y-11295804D01*
X7578610Y-11295804D02*
X7597658Y-11305328D01*
X7597658Y-11305328D02*
X7607182Y-11314851D01*
X7607182Y-11314851D02*
X7616705Y-11333899D01*
X7616705Y-11333899D02*
X7626229Y-11371994D01*
X7626229Y-11371994D02*
X7626229Y-11419613D01*
X7626229Y-11419613D02*
X7616705Y-11457708D01*
X7616705Y-11457708D02*
X7607182Y-11476756D01*
X7607182Y-11476756D02*
X7597658Y-11486280D01*
X7597658Y-11486280D02*
X7578610Y-11495804D01*
X7578610Y-11495804D02*
X7559562Y-11495804D01*
X7559562Y-11495804D02*
X7540515Y-11486280D01*
X7540515Y-11486280D02*
X7530991Y-11476756D01*
X7530991Y-11476756D02*
X7521467Y-11457708D01*
X7521467Y-11457708D02*
X7511943Y-11419613D01*
X7511943Y-11419613D02*
X7511943Y-11371994D01*
X7511943Y-11371994D02*
X7521467Y-11333899D01*
X7521467Y-11333899D02*
X7530991Y-11314851D01*
X7530991Y-11314851D02*
X7540515Y-11305328D01*
X7540515Y-11305328D02*
X7559562Y-11295804D01*
X7807182Y-11295804D02*
X7711943Y-11295804D01*
X7711943Y-11295804D02*
X7702420Y-11391042D01*
X7702420Y-11391042D02*
X7711943Y-11381518D01*
X7711943Y-11381518D02*
X7730991Y-11371994D01*
X7730991Y-11371994D02*
X7778610Y-11371994D01*
X7778610Y-11371994D02*
X7797658Y-11381518D01*
X7797658Y-11381518D02*
X7807182Y-11391042D01*
X7807182Y-11391042D02*
X7816705Y-11410089D01*
X7816705Y-11410089D02*
X7816705Y-11457708D01*
X7816705Y-11457708D02*
X7807182Y-11476756D01*
X7807182Y-11476756D02*
X7797658Y-11486280D01*
X7797658Y-11486280D02*
X7778610Y-11495804D01*
X7778610Y-11495804D02*
X7730991Y-11495804D01*
X7730991Y-11495804D02*
X7711943Y-11486280D01*
X7711943Y-11486280D02*
X7702420Y-11476756D01*
X7902420Y-11495804D02*
X7902420Y-11362470D01*
X7902420Y-11381518D02*
X7911943Y-11371994D01*
X7911943Y-11371994D02*
X7930991Y-11362470D01*
X7930991Y-11362470D02*
X7959563Y-11362470D01*
X7959563Y-11362470D02*
X7978610Y-11371994D01*
X7978610Y-11371994D02*
X7988134Y-11391042D01*
X7988134Y-11391042D02*
X7988134Y-11495804D01*
X7988134Y-11391042D02*
X7997658Y-11371994D01*
X7997658Y-11371994D02*
X8016705Y-11362470D01*
X8016705Y-11362470D02*
X8045277Y-11362470D01*
X8045277Y-11362470D02*
X8064324Y-11371994D01*
X8064324Y-11371994D02*
X8073848Y-11391042D01*
X8073848Y-11391042D02*
X8073848Y-11495804D01*
X8169086Y-11495804D02*
X8169086Y-11362470D01*
X8169086Y-11381518D02*
X8178610Y-11371994D01*
X8178610Y-11371994D02*
X8197658Y-11362470D01*
X8197658Y-11362470D02*
X8226229Y-11362470D01*
X8226229Y-11362470D02*
X8245277Y-11371994D01*
X8245277Y-11371994D02*
X8254801Y-11391042D01*
X8254801Y-11391042D02*
X8254801Y-11495804D01*
X8254801Y-11391042D02*
X8264324Y-11371994D01*
X8264324Y-11371994D02*
X8283372Y-11362470D01*
X8283372Y-11362470D02*
X8311943Y-11362470D01*
X8311943Y-11362470D02*
X8330991Y-11371994D01*
X8330991Y-11371994D02*
X8340515Y-11391042D01*
X8340515Y-11391042D02*
X8340515Y-11495804D01*
X8730991Y-11286280D02*
X8559563Y-11543423D01*
X8988134Y-11295804D02*
X9007182Y-11295804D01*
X9007182Y-11295804D02*
X9026229Y-11305328D01*
X9026229Y-11305328D02*
X9035753Y-11314851D01*
X9035753Y-11314851D02*
X9045277Y-11333899D01*
X9045277Y-11333899D02*
X9054801Y-11371994D01*
X9054801Y-11371994D02*
X9054801Y-11419613D01*
X9054801Y-11419613D02*
X9045277Y-11457708D01*
X9045277Y-11457708D02*
X9035753Y-11476756D01*
X9035753Y-11476756D02*
X9026229Y-11486280D01*
X9026229Y-11486280D02*
X9007182Y-11495804D01*
X9007182Y-11495804D02*
X8988134Y-11495804D01*
X8988134Y-11495804D02*
X8969087Y-11486280D01*
X8969087Y-11486280D02*
X8959563Y-11476756D01*
X8959563Y-11476756D02*
X8950039Y-11457708D01*
X8950039Y-11457708D02*
X8940515Y-11419613D01*
X8940515Y-11419613D02*
X8940515Y-11371994D01*
X8940515Y-11371994D02*
X8950039Y-11333899D01*
X8950039Y-11333899D02*
X8959563Y-11314851D01*
X8959563Y-11314851D02*
X8969087Y-11305328D01*
X8969087Y-11305328D02*
X8988134Y-11295804D01*
X9140515Y-11476756D02*
X9150039Y-11486280D01*
X9150039Y-11486280D02*
X9140515Y-11495804D01*
X9140515Y-11495804D02*
X9130991Y-11486280D01*
X9130991Y-11486280D02*
X9140515Y-11476756D01*
X9140515Y-11476756D02*
X9140515Y-11495804D01*
X9273848Y-11295804D02*
X9292896Y-11295804D01*
X9292896Y-11295804D02*
X9311944Y-11305328D01*
X9311944Y-11305328D02*
X9321468Y-11314851D01*
X9321468Y-11314851D02*
X9330991Y-11333899D01*
X9330991Y-11333899D02*
X9340515Y-11371994D01*
X9340515Y-11371994D02*
X9340515Y-11419613D01*
X9340515Y-11419613D02*
X9330991Y-11457708D01*
X9330991Y-11457708D02*
X9321468Y-11476756D01*
X9321468Y-11476756D02*
X9311944Y-11486280D01*
X9311944Y-11486280D02*
X9292896Y-11495804D01*
X9292896Y-11495804D02*
X9273848Y-11495804D01*
X9273848Y-11495804D02*
X9254801Y-11486280D01*
X9254801Y-11486280D02*
X9245277Y-11476756D01*
X9245277Y-11476756D02*
X9235753Y-11457708D01*
X9235753Y-11457708D02*
X9226229Y-11419613D01*
X9226229Y-11419613D02*
X9226229Y-11371994D01*
X9226229Y-11371994D02*
X9235753Y-11333899D01*
X9235753Y-11333899D02*
X9245277Y-11314851D01*
X9245277Y-11314851D02*
X9254801Y-11305328D01*
X9254801Y-11305328D02*
X9273848Y-11295804D01*
X9530991Y-11495804D02*
X9416706Y-11495804D01*
X9473848Y-11495804D02*
X9473848Y-11295804D01*
X9473848Y-11295804D02*
X9454801Y-11324375D01*
X9454801Y-11324375D02*
X9435753Y-11343423D01*
X9435753Y-11343423D02*
X9416706Y-11352947D01*
X9607182Y-11314851D02*
X9616706Y-11305328D01*
X9616706Y-11305328D02*
X9635753Y-11295804D01*
X9635753Y-11295804D02*
X9683372Y-11295804D01*
X9683372Y-11295804D02*
X9702420Y-11305328D01*
X9702420Y-11305328D02*
X9711944Y-11314851D01*
X9711944Y-11314851D02*
X9721468Y-11333899D01*
X9721468Y-11333899D02*
X9721468Y-11352947D01*
X9721468Y-11352947D02*
X9711944Y-11381518D01*
X9711944Y-11381518D02*
X9597658Y-11495804D01*
X9597658Y-11495804D02*
X9721468Y-11495804D01*
X9845277Y-11295804D02*
X9864325Y-11295804D01*
X9864325Y-11295804D02*
X9883372Y-11305328D01*
X9883372Y-11305328D02*
X9892896Y-11314851D01*
X9892896Y-11314851D02*
X9902420Y-11333899D01*
X9902420Y-11333899D02*
X9911944Y-11371994D01*
X9911944Y-11371994D02*
X9911944Y-11419613D01*
X9911944Y-11419613D02*
X9902420Y-11457708D01*
X9902420Y-11457708D02*
X9892896Y-11476756D01*
X9892896Y-11476756D02*
X9883372Y-11486280D01*
X9883372Y-11486280D02*
X9864325Y-11495804D01*
X9864325Y-11495804D02*
X9845277Y-11495804D01*
X9845277Y-11495804D02*
X9826229Y-11486280D01*
X9826229Y-11486280D02*
X9816706Y-11476756D01*
X9816706Y-11476756D02*
X9807182Y-11457708D01*
X9807182Y-11457708D02*
X9797658Y-11419613D01*
X9797658Y-11419613D02*
X9797658Y-11371994D01*
X9797658Y-11371994D02*
X9807182Y-11333899D01*
X9807182Y-11333899D02*
X9816706Y-11314851D01*
X9816706Y-11314851D02*
X9826229Y-11305328D01*
X9826229Y-11305328D02*
X9845277Y-11295804D01*
X9988134Y-11295804D02*
X9988134Y-11333899D01*
X10064325Y-11295804D02*
X10064325Y-11333899D01*
X10359563Y-11571994D02*
X10350039Y-11562470D01*
X10350039Y-11562470D02*
X10330991Y-11533899D01*
X10330991Y-11533899D02*
X10321468Y-11514851D01*
X10321468Y-11514851D02*
X10311944Y-11486280D01*
X10311944Y-11486280D02*
X10302420Y-11438661D01*
X10302420Y-11438661D02*
X10302420Y-11400566D01*
X10302420Y-11400566D02*
X10311944Y-11352947D01*
X10311944Y-11352947D02*
X10321468Y-11324375D01*
X10321468Y-11324375D02*
X10330991Y-11305328D01*
X10330991Y-11305328D02*
X10350039Y-11276756D01*
X10350039Y-11276756D02*
X10359563Y-11267232D01*
X10426230Y-11314851D02*
X10435753Y-11305328D01*
X10435753Y-11305328D02*
X10454801Y-11295804D01*
X10454801Y-11295804D02*
X10502420Y-11295804D01*
X10502420Y-11295804D02*
X10521468Y-11305328D01*
X10521468Y-11305328D02*
X10530991Y-11314851D01*
X10530991Y-11314851D02*
X10540515Y-11333899D01*
X10540515Y-11333899D02*
X10540515Y-11352947D01*
X10540515Y-11352947D02*
X10530991Y-11381518D01*
X10530991Y-11381518D02*
X10416706Y-11495804D01*
X10416706Y-11495804D02*
X10540515Y-11495804D01*
X10711944Y-11362470D02*
X10711944Y-11495804D01*
X10664325Y-11286280D02*
X10616706Y-11429137D01*
X10616706Y-11429137D02*
X10740515Y-11429137D01*
X10969087Y-11495804D02*
X10969087Y-11295804D01*
X11054801Y-11495804D02*
X11054801Y-11391042D01*
X11054801Y-11391042D02*
X11045277Y-11371994D01*
X11045277Y-11371994D02*
X11026230Y-11362470D01*
X11026230Y-11362470D02*
X10997658Y-11362470D01*
X10997658Y-11362470D02*
X10978611Y-11371994D01*
X10978611Y-11371994D02*
X10969087Y-11381518D01*
X11178611Y-11495804D02*
X11159563Y-11486280D01*
X11159563Y-11486280D02*
X11150039Y-11476756D01*
X11150039Y-11476756D02*
X11140515Y-11457708D01*
X11140515Y-11457708D02*
X11140515Y-11400566D01*
X11140515Y-11400566D02*
X11150039Y-11381518D01*
X11150039Y-11381518D02*
X11159563Y-11371994D01*
X11159563Y-11371994D02*
X11178611Y-11362470D01*
X11178611Y-11362470D02*
X11207182Y-11362470D01*
X11207182Y-11362470D02*
X11226230Y-11371994D01*
X11226230Y-11371994D02*
X11235753Y-11381518D01*
X11235753Y-11381518D02*
X11245277Y-11400566D01*
X11245277Y-11400566D02*
X11245277Y-11457708D01*
X11245277Y-11457708D02*
X11235753Y-11476756D01*
X11235753Y-11476756D02*
X11226230Y-11486280D01*
X11226230Y-11486280D02*
X11207182Y-11495804D01*
X11207182Y-11495804D02*
X11178611Y-11495804D01*
X11359563Y-11495804D02*
X11340515Y-11486280D01*
X11340515Y-11486280D02*
X11330991Y-11467232D01*
X11330991Y-11467232D02*
X11330991Y-11295804D01*
X11511944Y-11486280D02*
X11492896Y-11495804D01*
X11492896Y-11495804D02*
X11454801Y-11495804D01*
X11454801Y-11495804D02*
X11435753Y-11486280D01*
X11435753Y-11486280D02*
X11426230Y-11467232D01*
X11426230Y-11467232D02*
X11426230Y-11391042D01*
X11426230Y-11391042D02*
X11435753Y-11371994D01*
X11435753Y-11371994D02*
X11454801Y-11362470D01*
X11454801Y-11362470D02*
X11492896Y-11362470D01*
X11492896Y-11362470D02*
X11511944Y-11371994D01*
X11511944Y-11371994D02*
X11521468Y-11391042D01*
X11521468Y-11391042D02*
X11521468Y-11410089D01*
X11521468Y-11410089D02*
X11426230Y-11429137D01*
X11597658Y-11486280D02*
X11616706Y-11495804D01*
X11616706Y-11495804D02*
X11654801Y-11495804D01*
X11654801Y-11495804D02*
X11673849Y-11486280D01*
X11673849Y-11486280D02*
X11683372Y-11467232D01*
X11683372Y-11467232D02*
X11683372Y-11457708D01*
X11683372Y-11457708D02*
X11673849Y-11438661D01*
X11673849Y-11438661D02*
X11654801Y-11429137D01*
X11654801Y-11429137D02*
X11626230Y-11429137D01*
X11626230Y-11429137D02*
X11607182Y-11419613D01*
X11607182Y-11419613D02*
X11597658Y-11400566D01*
X11597658Y-11400566D02*
X11597658Y-11391042D01*
X11597658Y-11391042D02*
X11607182Y-11371994D01*
X11607182Y-11371994D02*
X11626230Y-11362470D01*
X11626230Y-11362470D02*
X11654801Y-11362470D01*
X11654801Y-11362470D02*
X11673849Y-11371994D01*
X11750039Y-11571994D02*
X11759563Y-11562470D01*
X11759563Y-11562470D02*
X11778611Y-11533899D01*
X11778611Y-11533899D02*
X11788134Y-11514851D01*
X11788134Y-11514851D02*
X11797658Y-11486280D01*
X11797658Y-11486280D02*
X11807182Y-11438661D01*
X11807182Y-11438661D02*
X11807182Y-11400566D01*
X11807182Y-11400566D02*
X11797658Y-11352947D01*
X11797658Y-11352947D02*
X11788134Y-11324375D01*
X11788134Y-11324375D02*
X11778611Y-11305328D01*
X11778611Y-11305328D02*
X11759563Y-11276756D01*
X11759563Y-11276756D02*
X11750039Y-11267232D01*
D12*
X6741320Y-11625140D02*
X6741320Y-11711500D01*
X6698140Y-11668320D02*
X6784500Y-11668320D01*
D11*
X7083372Y-11559804D02*
X7102420Y-11559804D01*
X7102420Y-11559804D02*
X7121467Y-11569328D01*
X7121467Y-11569328D02*
X7130991Y-11578851D01*
X7130991Y-11578851D02*
X7140515Y-11597899D01*
X7140515Y-11597899D02*
X7150039Y-11635994D01*
X7150039Y-11635994D02*
X7150039Y-11683613D01*
X7150039Y-11683613D02*
X7140515Y-11721708D01*
X7140515Y-11721708D02*
X7130991Y-11740756D01*
X7130991Y-11740756D02*
X7121467Y-11750280D01*
X7121467Y-11750280D02*
X7102420Y-11759804D01*
X7102420Y-11759804D02*
X7083372Y-11759804D01*
X7083372Y-11759804D02*
X7064324Y-11750280D01*
X7064324Y-11750280D02*
X7054801Y-11740756D01*
X7054801Y-11740756D02*
X7045277Y-11721708D01*
X7045277Y-11721708D02*
X7035753Y-11683613D01*
X7035753Y-11683613D02*
X7035753Y-11635994D01*
X7035753Y-11635994D02*
X7045277Y-11597899D01*
X7045277Y-11597899D02*
X7054801Y-11578851D01*
X7054801Y-11578851D02*
X7064324Y-11569328D01*
X7064324Y-11569328D02*
X7083372Y-11559804D01*
X7235753Y-11740756D02*
X7245277Y-11750280D01*
X7245277Y-11750280D02*
X7235753Y-11759804D01*
X7235753Y-11759804D02*
X7226229Y-11750280D01*
X7226229Y-11750280D02*
X7235753Y-11740756D01*
X7235753Y-11740756D02*
X7235753Y-11759804D01*
X7359562Y-11645518D02*
X7340515Y-11635994D01*
X7340515Y-11635994D02*
X7330991Y-11626470D01*
X7330991Y-11626470D02*
X7321467Y-11607423D01*
X7321467Y-11607423D02*
X7321467Y-11597899D01*
X7321467Y-11597899D02*
X7330991Y-11578851D01*
X7330991Y-11578851D02*
X7340515Y-11569328D01*
X7340515Y-11569328D02*
X7359562Y-11559804D01*
X7359562Y-11559804D02*
X7397658Y-11559804D01*
X7397658Y-11559804D02*
X7416705Y-11569328D01*
X7416705Y-11569328D02*
X7426229Y-11578851D01*
X7426229Y-11578851D02*
X7435753Y-11597899D01*
X7435753Y-11597899D02*
X7435753Y-11607423D01*
X7435753Y-11607423D02*
X7426229Y-11626470D01*
X7426229Y-11626470D02*
X7416705Y-11635994D01*
X7416705Y-11635994D02*
X7397658Y-11645518D01*
X7397658Y-11645518D02*
X7359562Y-11645518D01*
X7359562Y-11645518D02*
X7340515Y-11655042D01*
X7340515Y-11655042D02*
X7330991Y-11664566D01*
X7330991Y-11664566D02*
X7321467Y-11683613D01*
X7321467Y-11683613D02*
X7321467Y-11721708D01*
X7321467Y-11721708D02*
X7330991Y-11740756D01*
X7330991Y-11740756D02*
X7340515Y-11750280D01*
X7340515Y-11750280D02*
X7359562Y-11759804D01*
X7359562Y-11759804D02*
X7397658Y-11759804D01*
X7397658Y-11759804D02*
X7416705Y-11750280D01*
X7416705Y-11750280D02*
X7426229Y-11740756D01*
X7426229Y-11740756D02*
X7435753Y-11721708D01*
X7435753Y-11721708D02*
X7435753Y-11683613D01*
X7435753Y-11683613D02*
X7426229Y-11664566D01*
X7426229Y-11664566D02*
X7416705Y-11655042D01*
X7416705Y-11655042D02*
X7397658Y-11645518D01*
X7607182Y-11559804D02*
X7569086Y-11559804D01*
X7569086Y-11559804D02*
X7550039Y-11569328D01*
X7550039Y-11569328D02*
X7540515Y-11578851D01*
X7540515Y-11578851D02*
X7521467Y-11607423D01*
X7521467Y-11607423D02*
X7511943Y-11645518D01*
X7511943Y-11645518D02*
X7511943Y-11721708D01*
X7511943Y-11721708D02*
X7521467Y-11740756D01*
X7521467Y-11740756D02*
X7530991Y-11750280D01*
X7530991Y-11750280D02*
X7550039Y-11759804D01*
X7550039Y-11759804D02*
X7588134Y-11759804D01*
X7588134Y-11759804D02*
X7607182Y-11750280D01*
X7607182Y-11750280D02*
X7616705Y-11740756D01*
X7616705Y-11740756D02*
X7626229Y-11721708D01*
X7626229Y-11721708D02*
X7626229Y-11674089D01*
X7626229Y-11674089D02*
X7616705Y-11655042D01*
X7616705Y-11655042D02*
X7607182Y-11645518D01*
X7607182Y-11645518D02*
X7588134Y-11635994D01*
X7588134Y-11635994D02*
X7550039Y-11635994D01*
X7550039Y-11635994D02*
X7530991Y-11645518D01*
X7530991Y-11645518D02*
X7521467Y-11655042D01*
X7521467Y-11655042D02*
X7511943Y-11674089D01*
X7797658Y-11626470D02*
X7797658Y-11759804D01*
X7750039Y-11550280D02*
X7702420Y-11693137D01*
X7702420Y-11693137D02*
X7826229Y-11693137D01*
X7902420Y-11759804D02*
X7902420Y-11626470D01*
X7902420Y-11645518D02*
X7911943Y-11635994D01*
X7911943Y-11635994D02*
X7930991Y-11626470D01*
X7930991Y-11626470D02*
X7959563Y-11626470D01*
X7959563Y-11626470D02*
X7978610Y-11635994D01*
X7978610Y-11635994D02*
X7988134Y-11655042D01*
X7988134Y-11655042D02*
X7988134Y-11759804D01*
X7988134Y-11655042D02*
X7997658Y-11635994D01*
X7997658Y-11635994D02*
X8016705Y-11626470D01*
X8016705Y-11626470D02*
X8045277Y-11626470D01*
X8045277Y-11626470D02*
X8064324Y-11635994D01*
X8064324Y-11635994D02*
X8073848Y-11655042D01*
X8073848Y-11655042D02*
X8073848Y-11759804D01*
X8169086Y-11759804D02*
X8169086Y-11626470D01*
X8169086Y-11645518D02*
X8178610Y-11635994D01*
X8178610Y-11635994D02*
X8197658Y-11626470D01*
X8197658Y-11626470D02*
X8226229Y-11626470D01*
X8226229Y-11626470D02*
X8245277Y-11635994D01*
X8245277Y-11635994D02*
X8254801Y-11655042D01*
X8254801Y-11655042D02*
X8254801Y-11759804D01*
X8254801Y-11655042D02*
X8264324Y-11635994D01*
X8264324Y-11635994D02*
X8283372Y-11626470D01*
X8283372Y-11626470D02*
X8311943Y-11626470D01*
X8311943Y-11626470D02*
X8330991Y-11635994D01*
X8330991Y-11635994D02*
X8340515Y-11655042D01*
X8340515Y-11655042D02*
X8340515Y-11759804D01*
X8730991Y-11550280D02*
X8559563Y-11807423D01*
X8988134Y-11559804D02*
X9007182Y-11559804D01*
X9007182Y-11559804D02*
X9026229Y-11569328D01*
X9026229Y-11569328D02*
X9035753Y-11578851D01*
X9035753Y-11578851D02*
X9045277Y-11597899D01*
X9045277Y-11597899D02*
X9054801Y-11635994D01*
X9054801Y-11635994D02*
X9054801Y-11683613D01*
X9054801Y-11683613D02*
X9045277Y-11721708D01*
X9045277Y-11721708D02*
X9035753Y-11740756D01*
X9035753Y-11740756D02*
X9026229Y-11750280D01*
X9026229Y-11750280D02*
X9007182Y-11759804D01*
X9007182Y-11759804D02*
X8988134Y-11759804D01*
X8988134Y-11759804D02*
X8969087Y-11750280D01*
X8969087Y-11750280D02*
X8959563Y-11740756D01*
X8959563Y-11740756D02*
X8950039Y-11721708D01*
X8950039Y-11721708D02*
X8940515Y-11683613D01*
X8940515Y-11683613D02*
X8940515Y-11635994D01*
X8940515Y-11635994D02*
X8950039Y-11597899D01*
X8950039Y-11597899D02*
X8959563Y-11578851D01*
X8959563Y-11578851D02*
X8969087Y-11569328D01*
X8969087Y-11569328D02*
X8988134Y-11559804D01*
X9140515Y-11740756D02*
X9150039Y-11750280D01*
X9150039Y-11750280D02*
X9140515Y-11759804D01*
X9140515Y-11759804D02*
X9130991Y-11750280D01*
X9130991Y-11750280D02*
X9140515Y-11740756D01*
X9140515Y-11740756D02*
X9140515Y-11759804D01*
X9273848Y-11559804D02*
X9292896Y-11559804D01*
X9292896Y-11559804D02*
X9311944Y-11569328D01*
X9311944Y-11569328D02*
X9321468Y-11578851D01*
X9321468Y-11578851D02*
X9330991Y-11597899D01*
X9330991Y-11597899D02*
X9340515Y-11635994D01*
X9340515Y-11635994D02*
X9340515Y-11683613D01*
X9340515Y-11683613D02*
X9330991Y-11721708D01*
X9330991Y-11721708D02*
X9321468Y-11740756D01*
X9321468Y-11740756D02*
X9311944Y-11750280D01*
X9311944Y-11750280D02*
X9292896Y-11759804D01*
X9292896Y-11759804D02*
X9273848Y-11759804D01*
X9273848Y-11759804D02*
X9254801Y-11750280D01*
X9254801Y-11750280D02*
X9245277Y-11740756D01*
X9245277Y-11740756D02*
X9235753Y-11721708D01*
X9235753Y-11721708D02*
X9226229Y-11683613D01*
X9226229Y-11683613D02*
X9226229Y-11635994D01*
X9226229Y-11635994D02*
X9235753Y-11597899D01*
X9235753Y-11597899D02*
X9245277Y-11578851D01*
X9245277Y-11578851D02*
X9254801Y-11569328D01*
X9254801Y-11569328D02*
X9273848Y-11559804D01*
X9407182Y-11559804D02*
X9530991Y-11559804D01*
X9530991Y-11559804D02*
X9464325Y-11635994D01*
X9464325Y-11635994D02*
X9492896Y-11635994D01*
X9492896Y-11635994D02*
X9511944Y-11645518D01*
X9511944Y-11645518D02*
X9521468Y-11655042D01*
X9521468Y-11655042D02*
X9530991Y-11674089D01*
X9530991Y-11674089D02*
X9530991Y-11721708D01*
X9530991Y-11721708D02*
X9521468Y-11740756D01*
X9521468Y-11740756D02*
X9511944Y-11750280D01*
X9511944Y-11750280D02*
X9492896Y-11759804D01*
X9492896Y-11759804D02*
X9435753Y-11759804D01*
X9435753Y-11759804D02*
X9416706Y-11750280D01*
X9416706Y-11750280D02*
X9407182Y-11740756D01*
X9702420Y-11626470D02*
X9702420Y-11759804D01*
X9654801Y-11550280D02*
X9607182Y-11693137D01*
X9607182Y-11693137D02*
X9730991Y-11693137D01*
X9845277Y-11559804D02*
X9864325Y-11559804D01*
X9864325Y-11559804D02*
X9883372Y-11569328D01*
X9883372Y-11569328D02*
X9892896Y-11578851D01*
X9892896Y-11578851D02*
X9902420Y-11597899D01*
X9902420Y-11597899D02*
X9911944Y-11635994D01*
X9911944Y-11635994D02*
X9911944Y-11683613D01*
X9911944Y-11683613D02*
X9902420Y-11721708D01*
X9902420Y-11721708D02*
X9892896Y-11740756D01*
X9892896Y-11740756D02*
X9883372Y-11750280D01*
X9883372Y-11750280D02*
X9864325Y-11759804D01*
X9864325Y-11759804D02*
X9845277Y-11759804D01*
X9845277Y-11759804D02*
X9826229Y-11750280D01*
X9826229Y-11750280D02*
X9816706Y-11740756D01*
X9816706Y-11740756D02*
X9807182Y-11721708D01*
X9807182Y-11721708D02*
X9797658Y-11683613D01*
X9797658Y-11683613D02*
X9797658Y-11635994D01*
X9797658Y-11635994D02*
X9807182Y-11597899D01*
X9807182Y-11597899D02*
X9816706Y-11578851D01*
X9816706Y-11578851D02*
X9826229Y-11569328D01*
X9826229Y-11569328D02*
X9845277Y-11559804D01*
X9988134Y-11559804D02*
X9988134Y-11597899D01*
X10064325Y-11559804D02*
X10064325Y-11597899D01*
X10359563Y-11835994D02*
X10350039Y-11826470D01*
X10350039Y-11826470D02*
X10330991Y-11797899D01*
X10330991Y-11797899D02*
X10321468Y-11778851D01*
X10321468Y-11778851D02*
X10311944Y-11750280D01*
X10311944Y-11750280D02*
X10302420Y-11702661D01*
X10302420Y-11702661D02*
X10302420Y-11664566D01*
X10302420Y-11664566D02*
X10311944Y-11616947D01*
X10311944Y-11616947D02*
X10321468Y-11588375D01*
X10321468Y-11588375D02*
X10330991Y-11569328D01*
X10330991Y-11569328D02*
X10350039Y-11540756D01*
X10350039Y-11540756D02*
X10359563Y-11531232D01*
X10426230Y-11578851D02*
X10435753Y-11569328D01*
X10435753Y-11569328D02*
X10454801Y-11559804D01*
X10454801Y-11559804D02*
X10502420Y-11559804D01*
X10502420Y-11559804D02*
X10521468Y-11569328D01*
X10521468Y-11569328D02*
X10530991Y-11578851D01*
X10530991Y-11578851D02*
X10540515Y-11597899D01*
X10540515Y-11597899D02*
X10540515Y-11616947D01*
X10540515Y-11616947D02*
X10530991Y-11645518D01*
X10530991Y-11645518D02*
X10416706Y-11759804D01*
X10416706Y-11759804D02*
X10540515Y-11759804D01*
X10778611Y-11759804D02*
X10778611Y-11559804D01*
X10864325Y-11759804D02*
X10864325Y-11655042D01*
X10864325Y-11655042D02*
X10854801Y-11635994D01*
X10854801Y-11635994D02*
X10835753Y-11626470D01*
X10835753Y-11626470D02*
X10807182Y-11626470D01*
X10807182Y-11626470D02*
X10788134Y-11635994D01*
X10788134Y-11635994D02*
X10778611Y-11645518D01*
X10988134Y-11759804D02*
X10969087Y-11750280D01*
X10969087Y-11750280D02*
X10959563Y-11740756D01*
X10959563Y-11740756D02*
X10950039Y-11721708D01*
X10950039Y-11721708D02*
X10950039Y-11664566D01*
X10950039Y-11664566D02*
X10959563Y-11645518D01*
X10959563Y-11645518D02*
X10969087Y-11635994D01*
X10969087Y-11635994D02*
X10988134Y-11626470D01*
X10988134Y-11626470D02*
X11016706Y-11626470D01*
X11016706Y-11626470D02*
X11035753Y-11635994D01*
X11035753Y-11635994D02*
X11045277Y-11645518D01*
X11045277Y-11645518D02*
X11054801Y-11664566D01*
X11054801Y-11664566D02*
X11054801Y-11721708D01*
X11054801Y-11721708D02*
X11045277Y-11740756D01*
X11045277Y-11740756D02*
X11035753Y-11750280D01*
X11035753Y-11750280D02*
X11016706Y-11759804D01*
X11016706Y-11759804D02*
X10988134Y-11759804D01*
X11169087Y-11759804D02*
X11150039Y-11750280D01*
X11150039Y-11750280D02*
X11140515Y-11731232D01*
X11140515Y-11731232D02*
X11140515Y-11559804D01*
X11321468Y-11750280D02*
X11302420Y-11759804D01*
X11302420Y-11759804D02*
X11264325Y-11759804D01*
X11264325Y-11759804D02*
X11245277Y-11750280D01*
X11245277Y-11750280D02*
X11235753Y-11731232D01*
X11235753Y-11731232D02*
X11235753Y-11655042D01*
X11235753Y-11655042D02*
X11245277Y-11635994D01*
X11245277Y-11635994D02*
X11264325Y-11626470D01*
X11264325Y-11626470D02*
X11302420Y-11626470D01*
X11302420Y-11626470D02*
X11321468Y-11635994D01*
X11321468Y-11635994D02*
X11330991Y-11655042D01*
X11330991Y-11655042D02*
X11330991Y-11674089D01*
X11330991Y-11674089D02*
X11235753Y-11693137D01*
X11407182Y-11750280D02*
X11426230Y-11759804D01*
X11426230Y-11759804D02*
X11464325Y-11759804D01*
X11464325Y-11759804D02*
X11483372Y-11750280D01*
X11483372Y-11750280D02*
X11492896Y-11731232D01*
X11492896Y-11731232D02*
X11492896Y-11721708D01*
X11492896Y-11721708D02*
X11483372Y-11702661D01*
X11483372Y-11702661D02*
X11464325Y-11693137D01*
X11464325Y-11693137D02*
X11435753Y-11693137D01*
X11435753Y-11693137D02*
X11416706Y-11683613D01*
X11416706Y-11683613D02*
X11407182Y-11664566D01*
X11407182Y-11664566D02*
X11407182Y-11655042D01*
X11407182Y-11655042D02*
X11416706Y-11635994D01*
X11416706Y-11635994D02*
X11435753Y-11626470D01*
X11435753Y-11626470D02*
X11464325Y-11626470D01*
X11464325Y-11626470D02*
X11483372Y-11635994D01*
X11559563Y-11835994D02*
X11569087Y-11826470D01*
X11569087Y-11826470D02*
X11588134Y-11797899D01*
X11588134Y-11797899D02*
X11597658Y-11778851D01*
X11597658Y-11778851D02*
X11607182Y-11750280D01*
X11607182Y-11750280D02*
X11616706Y-11702661D01*
X11616706Y-11702661D02*
X11616706Y-11664566D01*
X11616706Y-11664566D02*
X11607182Y-11616947D01*
X11607182Y-11616947D02*
X11597658Y-11588375D01*
X11597658Y-11588375D02*
X11588134Y-11569328D01*
X11588134Y-11569328D02*
X11569087Y-11540756D01*
X11569087Y-11540756D02*
X11559563Y-11531232D01*
D12*
X6769856Y-11967676D02*
X6769856Y-11896964D01*
X6699144Y-11896964D01*
X6699144Y-11967676D01*
X6769856Y-11967676D01*
D11*
X7150039Y-12023804D02*
X7035753Y-12023804D01*
X7092896Y-12023804D02*
X7092896Y-11823804D01*
X7092896Y-11823804D02*
X7073848Y-11852375D01*
X7073848Y-11852375D02*
X7054801Y-11871423D01*
X7054801Y-11871423D02*
X7035753Y-11880947D01*
X7235753Y-12004756D02*
X7245277Y-12014280D01*
X7245277Y-12014280D02*
X7235753Y-12023804D01*
X7235753Y-12023804D02*
X7226229Y-12014280D01*
X7226229Y-12014280D02*
X7235753Y-12004756D01*
X7235753Y-12004756D02*
X7235753Y-12023804D01*
X7369086Y-11823804D02*
X7388134Y-11823804D01*
X7388134Y-11823804D02*
X7407182Y-11833328D01*
X7407182Y-11833328D02*
X7416705Y-11842851D01*
X7416705Y-11842851D02*
X7426229Y-11861899D01*
X7426229Y-11861899D02*
X7435753Y-11899994D01*
X7435753Y-11899994D02*
X7435753Y-11947613D01*
X7435753Y-11947613D02*
X7426229Y-11985708D01*
X7426229Y-11985708D02*
X7416705Y-12004756D01*
X7416705Y-12004756D02*
X7407182Y-12014280D01*
X7407182Y-12014280D02*
X7388134Y-12023804D01*
X7388134Y-12023804D02*
X7369086Y-12023804D01*
X7369086Y-12023804D02*
X7350039Y-12014280D01*
X7350039Y-12014280D02*
X7340515Y-12004756D01*
X7340515Y-12004756D02*
X7330991Y-11985708D01*
X7330991Y-11985708D02*
X7321467Y-11947613D01*
X7321467Y-11947613D02*
X7321467Y-11899994D01*
X7321467Y-11899994D02*
X7330991Y-11861899D01*
X7330991Y-11861899D02*
X7340515Y-11842851D01*
X7340515Y-11842851D02*
X7350039Y-11833328D01*
X7350039Y-11833328D02*
X7369086Y-11823804D01*
X7559562Y-11823804D02*
X7578610Y-11823804D01*
X7578610Y-11823804D02*
X7597658Y-11833328D01*
X7597658Y-11833328D02*
X7607182Y-11842851D01*
X7607182Y-11842851D02*
X7616705Y-11861899D01*
X7616705Y-11861899D02*
X7626229Y-11899994D01*
X7626229Y-11899994D02*
X7626229Y-11947613D01*
X7626229Y-11947613D02*
X7616705Y-11985708D01*
X7616705Y-11985708D02*
X7607182Y-12004756D01*
X7607182Y-12004756D02*
X7597658Y-12014280D01*
X7597658Y-12014280D02*
X7578610Y-12023804D01*
X7578610Y-12023804D02*
X7559562Y-12023804D01*
X7559562Y-12023804D02*
X7540515Y-12014280D01*
X7540515Y-12014280D02*
X7530991Y-12004756D01*
X7530991Y-12004756D02*
X7521467Y-11985708D01*
X7521467Y-11985708D02*
X7511943Y-11947613D01*
X7511943Y-11947613D02*
X7511943Y-11899994D01*
X7511943Y-11899994D02*
X7521467Y-11861899D01*
X7521467Y-11861899D02*
X7530991Y-11842851D01*
X7530991Y-11842851D02*
X7540515Y-11833328D01*
X7540515Y-11833328D02*
X7559562Y-11823804D01*
X7750039Y-11823804D02*
X7769086Y-11823804D01*
X7769086Y-11823804D02*
X7788134Y-11833328D01*
X7788134Y-11833328D02*
X7797658Y-11842851D01*
X7797658Y-11842851D02*
X7807182Y-11861899D01*
X7807182Y-11861899D02*
X7816705Y-11899994D01*
X7816705Y-11899994D02*
X7816705Y-11947613D01*
X7816705Y-11947613D02*
X7807182Y-11985708D01*
X7807182Y-11985708D02*
X7797658Y-12004756D01*
X7797658Y-12004756D02*
X7788134Y-12014280D01*
X7788134Y-12014280D02*
X7769086Y-12023804D01*
X7769086Y-12023804D02*
X7750039Y-12023804D01*
X7750039Y-12023804D02*
X7730991Y-12014280D01*
X7730991Y-12014280D02*
X7721467Y-12004756D01*
X7721467Y-12004756D02*
X7711943Y-11985708D01*
X7711943Y-11985708D02*
X7702420Y-11947613D01*
X7702420Y-11947613D02*
X7702420Y-11899994D01*
X7702420Y-11899994D02*
X7711943Y-11861899D01*
X7711943Y-11861899D02*
X7721467Y-11842851D01*
X7721467Y-11842851D02*
X7730991Y-11833328D01*
X7730991Y-11833328D02*
X7750039Y-11823804D01*
X7902420Y-12023804D02*
X7902420Y-11890470D01*
X7902420Y-11909518D02*
X7911943Y-11899994D01*
X7911943Y-11899994D02*
X7930991Y-11890470D01*
X7930991Y-11890470D02*
X7959563Y-11890470D01*
X7959563Y-11890470D02*
X7978610Y-11899994D01*
X7978610Y-11899994D02*
X7988134Y-11919042D01*
X7988134Y-11919042D02*
X7988134Y-12023804D01*
X7988134Y-11919042D02*
X7997658Y-11899994D01*
X7997658Y-11899994D02*
X8016705Y-11890470D01*
X8016705Y-11890470D02*
X8045277Y-11890470D01*
X8045277Y-11890470D02*
X8064324Y-11899994D01*
X8064324Y-11899994D02*
X8073848Y-11919042D01*
X8073848Y-11919042D02*
X8073848Y-12023804D01*
X8169086Y-12023804D02*
X8169086Y-11890470D01*
X8169086Y-11909518D02*
X8178610Y-11899994D01*
X8178610Y-11899994D02*
X8197658Y-11890470D01*
X8197658Y-11890470D02*
X8226229Y-11890470D01*
X8226229Y-11890470D02*
X8245277Y-11899994D01*
X8245277Y-11899994D02*
X8254801Y-11919042D01*
X8254801Y-11919042D02*
X8254801Y-12023804D01*
X8254801Y-11919042D02*
X8264324Y-11899994D01*
X8264324Y-11899994D02*
X8283372Y-11890470D01*
X8283372Y-11890470D02*
X8311943Y-11890470D01*
X8311943Y-11890470D02*
X8330991Y-11899994D01*
X8330991Y-11899994D02*
X8340515Y-11919042D01*
X8340515Y-11919042D02*
X8340515Y-12023804D01*
X8730991Y-11814280D02*
X8559563Y-12071423D01*
X8988134Y-11823804D02*
X9007182Y-11823804D01*
X9007182Y-11823804D02*
X9026229Y-11833328D01*
X9026229Y-11833328D02*
X9035753Y-11842851D01*
X9035753Y-11842851D02*
X9045277Y-11861899D01*
X9045277Y-11861899D02*
X9054801Y-11899994D01*
X9054801Y-11899994D02*
X9054801Y-11947613D01*
X9054801Y-11947613D02*
X9045277Y-11985708D01*
X9045277Y-11985708D02*
X9035753Y-12004756D01*
X9035753Y-12004756D02*
X9026229Y-12014280D01*
X9026229Y-12014280D02*
X9007182Y-12023804D01*
X9007182Y-12023804D02*
X8988134Y-12023804D01*
X8988134Y-12023804D02*
X8969087Y-12014280D01*
X8969087Y-12014280D02*
X8959563Y-12004756D01*
X8959563Y-12004756D02*
X8950039Y-11985708D01*
X8950039Y-11985708D02*
X8940515Y-11947613D01*
X8940515Y-11947613D02*
X8940515Y-11899994D01*
X8940515Y-11899994D02*
X8950039Y-11861899D01*
X8950039Y-11861899D02*
X8959563Y-11842851D01*
X8959563Y-11842851D02*
X8969087Y-11833328D01*
X8969087Y-11833328D02*
X8988134Y-11823804D01*
X9140515Y-12004756D02*
X9150039Y-12014280D01*
X9150039Y-12014280D02*
X9140515Y-12023804D01*
X9140515Y-12023804D02*
X9130991Y-12014280D01*
X9130991Y-12014280D02*
X9140515Y-12004756D01*
X9140515Y-12004756D02*
X9140515Y-12023804D01*
X9273848Y-11823804D02*
X9292896Y-11823804D01*
X9292896Y-11823804D02*
X9311944Y-11833328D01*
X9311944Y-11833328D02*
X9321468Y-11842851D01*
X9321468Y-11842851D02*
X9330991Y-11861899D01*
X9330991Y-11861899D02*
X9340515Y-11899994D01*
X9340515Y-11899994D02*
X9340515Y-11947613D01*
X9340515Y-11947613D02*
X9330991Y-11985708D01*
X9330991Y-11985708D02*
X9321468Y-12004756D01*
X9321468Y-12004756D02*
X9311944Y-12014280D01*
X9311944Y-12014280D02*
X9292896Y-12023804D01*
X9292896Y-12023804D02*
X9273848Y-12023804D01*
X9273848Y-12023804D02*
X9254801Y-12014280D01*
X9254801Y-12014280D02*
X9245277Y-12004756D01*
X9245277Y-12004756D02*
X9235753Y-11985708D01*
X9235753Y-11985708D02*
X9226229Y-11947613D01*
X9226229Y-11947613D02*
X9226229Y-11899994D01*
X9226229Y-11899994D02*
X9235753Y-11861899D01*
X9235753Y-11861899D02*
X9245277Y-11842851D01*
X9245277Y-11842851D02*
X9254801Y-11833328D01*
X9254801Y-11833328D02*
X9273848Y-11823804D01*
X9407182Y-11823804D02*
X9530991Y-11823804D01*
X9530991Y-11823804D02*
X9464325Y-11899994D01*
X9464325Y-11899994D02*
X9492896Y-11899994D01*
X9492896Y-11899994D02*
X9511944Y-11909518D01*
X9511944Y-11909518D02*
X9521468Y-11919042D01*
X9521468Y-11919042D02*
X9530991Y-11938089D01*
X9530991Y-11938089D02*
X9530991Y-11985708D01*
X9530991Y-11985708D02*
X9521468Y-12004756D01*
X9521468Y-12004756D02*
X9511944Y-12014280D01*
X9511944Y-12014280D02*
X9492896Y-12023804D01*
X9492896Y-12023804D02*
X9435753Y-12023804D01*
X9435753Y-12023804D02*
X9416706Y-12014280D01*
X9416706Y-12014280D02*
X9407182Y-12004756D01*
X9626229Y-12023804D02*
X9664325Y-12023804D01*
X9664325Y-12023804D02*
X9683372Y-12014280D01*
X9683372Y-12014280D02*
X9692896Y-12004756D01*
X9692896Y-12004756D02*
X9711944Y-11976185D01*
X9711944Y-11976185D02*
X9721468Y-11938089D01*
X9721468Y-11938089D02*
X9721468Y-11861899D01*
X9721468Y-11861899D02*
X9711944Y-11842851D01*
X9711944Y-11842851D02*
X9702420Y-11833328D01*
X9702420Y-11833328D02*
X9683372Y-11823804D01*
X9683372Y-11823804D02*
X9645277Y-11823804D01*
X9645277Y-11823804D02*
X9626229Y-11833328D01*
X9626229Y-11833328D02*
X9616706Y-11842851D01*
X9616706Y-11842851D02*
X9607182Y-11861899D01*
X9607182Y-11861899D02*
X9607182Y-11909518D01*
X9607182Y-11909518D02*
X9616706Y-11928566D01*
X9616706Y-11928566D02*
X9626229Y-11938089D01*
X9626229Y-11938089D02*
X9645277Y-11947613D01*
X9645277Y-11947613D02*
X9683372Y-11947613D01*
X9683372Y-11947613D02*
X9702420Y-11938089D01*
X9702420Y-11938089D02*
X9711944Y-11928566D01*
X9711944Y-11928566D02*
X9721468Y-11909518D01*
X9892896Y-11890470D02*
X9892896Y-12023804D01*
X9845277Y-11814280D02*
X9797658Y-11957137D01*
X9797658Y-11957137D02*
X9921468Y-11957137D01*
X9988134Y-11823804D02*
X9988134Y-11861899D01*
X10064325Y-11823804D02*
X10064325Y-11861899D01*
X10359563Y-12099994D02*
X10350039Y-12090470D01*
X10350039Y-12090470D02*
X10330991Y-12061899D01*
X10330991Y-12061899D02*
X10321468Y-12042851D01*
X10321468Y-12042851D02*
X10311944Y-12014280D01*
X10311944Y-12014280D02*
X10302420Y-11966661D01*
X10302420Y-11966661D02*
X10302420Y-11928566D01*
X10302420Y-11928566D02*
X10311944Y-11880947D01*
X10311944Y-11880947D02*
X10321468Y-11852375D01*
X10321468Y-11852375D02*
X10330991Y-11833328D01*
X10330991Y-11833328D02*
X10350039Y-11804756D01*
X10350039Y-11804756D02*
X10359563Y-11795232D01*
X10416706Y-11823804D02*
X10540515Y-11823804D01*
X10540515Y-11823804D02*
X10473849Y-11899994D01*
X10473849Y-11899994D02*
X10502420Y-11899994D01*
X10502420Y-11899994D02*
X10521468Y-11909518D01*
X10521468Y-11909518D02*
X10530991Y-11919042D01*
X10530991Y-11919042D02*
X10540515Y-11938089D01*
X10540515Y-11938089D02*
X10540515Y-11985708D01*
X10540515Y-11985708D02*
X10530991Y-12004756D01*
X10530991Y-12004756D02*
X10521468Y-12014280D01*
X10521468Y-12014280D02*
X10502420Y-12023804D01*
X10502420Y-12023804D02*
X10445277Y-12023804D01*
X10445277Y-12023804D02*
X10426230Y-12014280D01*
X10426230Y-12014280D02*
X10416706Y-12004756D01*
X10664325Y-11823804D02*
X10683372Y-11823804D01*
X10683372Y-11823804D02*
X10702420Y-11833328D01*
X10702420Y-11833328D02*
X10711944Y-11842851D01*
X10711944Y-11842851D02*
X10721468Y-11861899D01*
X10721468Y-11861899D02*
X10730991Y-11899994D01*
X10730991Y-11899994D02*
X10730991Y-11947613D01*
X10730991Y-11947613D02*
X10721468Y-11985708D01*
X10721468Y-11985708D02*
X10711944Y-12004756D01*
X10711944Y-12004756D02*
X10702420Y-12014280D01*
X10702420Y-12014280D02*
X10683372Y-12023804D01*
X10683372Y-12023804D02*
X10664325Y-12023804D01*
X10664325Y-12023804D02*
X10645277Y-12014280D01*
X10645277Y-12014280D02*
X10635753Y-12004756D01*
X10635753Y-12004756D02*
X10626230Y-11985708D01*
X10626230Y-11985708D02*
X10616706Y-11947613D01*
X10616706Y-11947613D02*
X10616706Y-11899994D01*
X10616706Y-11899994D02*
X10626230Y-11861899D01*
X10626230Y-11861899D02*
X10635753Y-11842851D01*
X10635753Y-11842851D02*
X10645277Y-11833328D01*
X10645277Y-11833328D02*
X10664325Y-11823804D01*
X10969087Y-12023804D02*
X10969087Y-11823804D01*
X11054801Y-12023804D02*
X11054801Y-11919042D01*
X11054801Y-11919042D02*
X11045277Y-11899994D01*
X11045277Y-11899994D02*
X11026230Y-11890470D01*
X11026230Y-11890470D02*
X10997658Y-11890470D01*
X10997658Y-11890470D02*
X10978611Y-11899994D01*
X10978611Y-11899994D02*
X10969087Y-11909518D01*
X11178611Y-12023804D02*
X11159563Y-12014280D01*
X11159563Y-12014280D02*
X11150039Y-12004756D01*
X11150039Y-12004756D02*
X11140515Y-11985708D01*
X11140515Y-11985708D02*
X11140515Y-11928566D01*
X11140515Y-11928566D02*
X11150039Y-11909518D01*
X11150039Y-11909518D02*
X11159563Y-11899994D01*
X11159563Y-11899994D02*
X11178611Y-11890470D01*
X11178611Y-11890470D02*
X11207182Y-11890470D01*
X11207182Y-11890470D02*
X11226230Y-11899994D01*
X11226230Y-11899994D02*
X11235753Y-11909518D01*
X11235753Y-11909518D02*
X11245277Y-11928566D01*
X11245277Y-11928566D02*
X11245277Y-11985708D01*
X11245277Y-11985708D02*
X11235753Y-12004756D01*
X11235753Y-12004756D02*
X11226230Y-12014280D01*
X11226230Y-12014280D02*
X11207182Y-12023804D01*
X11207182Y-12023804D02*
X11178611Y-12023804D01*
X11359563Y-12023804D02*
X11340515Y-12014280D01*
X11340515Y-12014280D02*
X11330991Y-11995232D01*
X11330991Y-11995232D02*
X11330991Y-11823804D01*
X11511944Y-12014280D02*
X11492896Y-12023804D01*
X11492896Y-12023804D02*
X11454801Y-12023804D01*
X11454801Y-12023804D02*
X11435753Y-12014280D01*
X11435753Y-12014280D02*
X11426230Y-11995232D01*
X11426230Y-11995232D02*
X11426230Y-11919042D01*
X11426230Y-11919042D02*
X11435753Y-11899994D01*
X11435753Y-11899994D02*
X11454801Y-11890470D01*
X11454801Y-11890470D02*
X11492896Y-11890470D01*
X11492896Y-11890470D02*
X11511944Y-11899994D01*
X11511944Y-11899994D02*
X11521468Y-11919042D01*
X11521468Y-11919042D02*
X11521468Y-11938089D01*
X11521468Y-11938089D02*
X11426230Y-11957137D01*
X11597658Y-12014280D02*
X11616706Y-12023804D01*
X11616706Y-12023804D02*
X11654801Y-12023804D01*
X11654801Y-12023804D02*
X11673849Y-12014280D01*
X11673849Y-12014280D02*
X11683372Y-11995232D01*
X11683372Y-11995232D02*
X11683372Y-11985708D01*
X11683372Y-11985708D02*
X11673849Y-11966661D01*
X11673849Y-11966661D02*
X11654801Y-11957137D01*
X11654801Y-11957137D02*
X11626230Y-11957137D01*
X11626230Y-11957137D02*
X11607182Y-11947613D01*
X11607182Y-11947613D02*
X11597658Y-11928566D01*
X11597658Y-11928566D02*
X11597658Y-11919042D01*
X11597658Y-11919042D02*
X11607182Y-11899994D01*
X11607182Y-11899994D02*
X11626230Y-11890470D01*
X11626230Y-11890470D02*
X11654801Y-11890470D01*
X11654801Y-11890470D02*
X11673849Y-11899994D01*
X11921468Y-11947613D02*
X12073849Y-11947613D01*
X11997658Y-12023804D02*
X11997658Y-11871423D01*
X12302420Y-11823804D02*
X12426230Y-11823804D01*
X12426230Y-11823804D02*
X12359563Y-11899994D01*
X12359563Y-11899994D02*
X12388134Y-11899994D01*
X12388134Y-11899994D02*
X12407182Y-11909518D01*
X12407182Y-11909518D02*
X12416706Y-11919042D01*
X12416706Y-11919042D02*
X12426230Y-11938089D01*
X12426230Y-11938089D02*
X12426230Y-11985708D01*
X12426230Y-11985708D02*
X12416706Y-12004756D01*
X12416706Y-12004756D02*
X12407182Y-12014280D01*
X12407182Y-12014280D02*
X12388134Y-12023804D01*
X12388134Y-12023804D02*
X12330992Y-12023804D01*
X12330992Y-12023804D02*
X12311944Y-12014280D01*
X12311944Y-12014280D02*
X12302420Y-12004756D01*
X12654801Y-12014280D02*
X12673849Y-12023804D01*
X12673849Y-12023804D02*
X12711944Y-12023804D01*
X12711944Y-12023804D02*
X12730992Y-12014280D01*
X12730992Y-12014280D02*
X12740515Y-11995232D01*
X12740515Y-11995232D02*
X12740515Y-11985708D01*
X12740515Y-11985708D02*
X12730992Y-11966661D01*
X12730992Y-11966661D02*
X12711944Y-11957137D01*
X12711944Y-11957137D02*
X12683373Y-11957137D01*
X12683373Y-11957137D02*
X12664325Y-11947613D01*
X12664325Y-11947613D02*
X12654801Y-11928566D01*
X12654801Y-11928566D02*
X12654801Y-11919042D01*
X12654801Y-11919042D02*
X12664325Y-11899994D01*
X12664325Y-11899994D02*
X12683373Y-11890470D01*
X12683373Y-11890470D02*
X12711944Y-11890470D01*
X12711944Y-11890470D02*
X12730992Y-11899994D01*
X12854801Y-12023804D02*
X12835754Y-12014280D01*
X12835754Y-12014280D02*
X12826230Y-11995232D01*
X12826230Y-11995232D02*
X12826230Y-11823804D01*
X12959563Y-12023804D02*
X12940515Y-12014280D01*
X12940515Y-12014280D02*
X12930992Y-12004756D01*
X12930992Y-12004756D02*
X12921468Y-11985708D01*
X12921468Y-11985708D02*
X12921468Y-11928566D01*
X12921468Y-11928566D02*
X12930992Y-11909518D01*
X12930992Y-11909518D02*
X12940515Y-11899994D01*
X12940515Y-11899994D02*
X12959563Y-11890470D01*
X12959563Y-11890470D02*
X12988135Y-11890470D01*
X12988135Y-11890470D02*
X13007182Y-11899994D01*
X13007182Y-11899994D02*
X13016706Y-11909518D01*
X13016706Y-11909518D02*
X13026230Y-11928566D01*
X13026230Y-11928566D02*
X13026230Y-11985708D01*
X13026230Y-11985708D02*
X13016706Y-12004756D01*
X13016706Y-12004756D02*
X13007182Y-12014280D01*
X13007182Y-12014280D02*
X12988135Y-12023804D01*
X12988135Y-12023804D02*
X12959563Y-12023804D01*
X13083373Y-11890470D02*
X13159563Y-11890470D01*
X13111944Y-11823804D02*
X13111944Y-11995232D01*
X13111944Y-11995232D02*
X13121468Y-12014280D01*
X13121468Y-12014280D02*
X13140515Y-12023804D01*
X13140515Y-12023804D02*
X13159563Y-12023804D01*
X13216706Y-12014280D02*
X13235754Y-12023804D01*
X13235754Y-12023804D02*
X13273849Y-12023804D01*
X13273849Y-12023804D02*
X13292896Y-12014280D01*
X13292896Y-12014280D02*
X13302420Y-11995232D01*
X13302420Y-11995232D02*
X13302420Y-11985708D01*
X13302420Y-11985708D02*
X13292896Y-11966661D01*
X13292896Y-11966661D02*
X13273849Y-11957137D01*
X13273849Y-11957137D02*
X13245277Y-11957137D01*
X13245277Y-11957137D02*
X13226230Y-11947613D01*
X13226230Y-11947613D02*
X13216706Y-11928566D01*
X13216706Y-11928566D02*
X13216706Y-11919042D01*
X13216706Y-11919042D02*
X13226230Y-11899994D01*
X13226230Y-11899994D02*
X13245277Y-11890470D01*
X13245277Y-11890470D02*
X13273849Y-11890470D01*
X13273849Y-11890470D02*
X13292896Y-11899994D01*
X13369087Y-12099994D02*
X13378611Y-12090470D01*
X13378611Y-12090470D02*
X13397658Y-12061899D01*
X13397658Y-12061899D02*
X13407182Y-12042851D01*
X13407182Y-12042851D02*
X13416706Y-12014280D01*
X13416706Y-12014280D02*
X13426230Y-11966661D01*
X13426230Y-11966661D02*
X13426230Y-11928566D01*
X13426230Y-11928566D02*
X13416706Y-11880947D01*
X13416706Y-11880947D02*
X13407182Y-11852375D01*
X13407182Y-11852375D02*
X13397658Y-11833328D01*
X13397658Y-11833328D02*
X13378611Y-11804756D01*
X13378611Y-11804756D02*
X13369087Y-11795232D01*
M02*
