M48
; DRILL file {KiCad 8.0.5} date 2025-03-07T15:27:10-0500
; FORMAT={-:-/ absolute / inch / decimal}
; #@! TF.CreationDate,2025-03-07T15:27:10-05:00
; #@! TF.GenerationSoftware,Kicad,Pcbnew,8.0.5
; #@! TF.FileFunction,Plated,1,2,PTH
FMAT,2
INCH
; #@! TA.AperFunction,Plated,PTH,ViaDrill
T1C0.0118
; #@! TA.AperFunction,Plated,PTH,ComponentDrill
T2C0.0120
; #@! TA.AperFunction,Plated,PTH,ComponentDrill
T3C0.0340
; #@! TA.AperFunction,Plated,PTH,ComponentDrill
T4C0.0394
%
G90
G05
T1
X2.8791Y-2.4413
X3.716Y-3.596
X4.008Y-2.8072
X4.0457Y-2.9055
X4.1169Y-2.2815
X4.1248Y-3.4232
X4.136Y-3.177
X4.139Y-2.224
X4.254Y-2.139
X4.285Y-3.4283
X4.3291Y-3.2232
X4.3687Y-2.575
X4.529Y-2.157
X4.5461Y-3.3657
X4.557Y-2.722
X4.5571Y-3.902
X4.6335Y-2.8858
T2
X4.3037Y-2.3819
X4.3037Y-2.4252
X4.3037Y-2.4725
X4.3037Y-2.5158
X4.3087Y-3.0257
X4.3087Y-3.069
X4.3087Y-3.1162
X4.3087Y-3.1595
X4.347Y-2.3819
X4.347Y-2.4252
X4.347Y-2.4725
X4.347Y-2.5158
X4.352Y-3.0257
X4.352Y-3.069
X4.352Y-3.1162
X4.352Y-3.1595
X4.3903Y-2.3819
X4.3903Y-2.4252
X4.3903Y-2.4725
X4.3903Y-2.5158
X4.3953Y-3.0257
X4.3953Y-3.069
X4.3953Y-3.1162
X4.3953Y-3.1595
T3
X4.0108Y-3.8984
X4.2078Y-3.8984
T4
X2.8077Y-2.366
X2.8077Y-2.466
X2.8077Y-2.566
X2.8077Y-2.666
X2.8077Y-2.766
X2.8077Y-2.866
X2.8077Y-2.966
X2.8077Y-3.066
X2.8077Y-3.166
X2.8077Y-3.266
X2.8077Y-3.366
X2.8077Y-3.466
X2.8077Y-3.566
X2.8077Y-3.666
X2.8077Y-3.766
X3.8049Y-2.366
X3.8049Y-2.466
X3.8049Y-2.566
X3.8049Y-2.666
X3.8049Y-2.766
X3.8049Y-2.866
X3.8049Y-2.966
X3.8049Y-3.066
X3.8049Y-3.166
X3.8049Y-3.266
X3.8049Y-3.366
X3.8049Y-3.466
X3.8049Y-3.566
X3.8049Y-3.666
X3.8049Y-3.766
T4
G00X4.3772Y-3.6331
M15
G01X4.3772Y-3.7315
M16
G05
G00X4.4559Y-3.4972
M15
G01X4.5346Y-3.4972
M16
G05
G00X4.6134Y-3.6429
M15
G01X4.6134Y-3.7217
M16
G05
M30
