%TF.GenerationSoftware,KiCad,Pcbnew,8.0.5*%
%TF.CreationDate,2025-03-07T15:27:06-05:00*%
%TF.ProjectId,TrainTrackerTest,54726169-6e54-4726-9163-6b6572546573,rev?*%
%TF.SameCoordinates,Original*%
%TF.FileFunction,Legend,Bot*%
%TF.FilePolarity,Positive*%
%FSLAX46Y46*%
G04 Gerber Fmt 4.6, Leading zero omitted, Abs format (unit mm)*
G04 Created by KiCad (PCBNEW 8.0.5) date 2025-03-07 15:27:06*
%MOMM*%
%LPD*%
G01*
G04 APERTURE LIST*
%ADD10C,0.100000*%
G04 APERTURE END LIST*
D10*
X70081027Y-55787524D02*
X70652455Y-55787524D01*
X70366741Y-54787524D02*
X70366741Y-55787524D01*
X70985789Y-54787524D02*
X70985789Y-55454191D01*
X70985789Y-55263715D02*
X71033408Y-55358953D01*
X71033408Y-55358953D02*
X71081027Y-55406572D01*
X71081027Y-55406572D02*
X71176265Y-55454191D01*
X71176265Y-55454191D02*
X71271503Y-55454191D01*
X72033408Y-54787524D02*
X72033408Y-55311334D01*
X72033408Y-55311334D02*
X71985789Y-55406572D01*
X71985789Y-55406572D02*
X71890551Y-55454191D01*
X71890551Y-55454191D02*
X71700075Y-55454191D01*
X71700075Y-55454191D02*
X71604837Y-55406572D01*
X72033408Y-54835144D02*
X71938170Y-54787524D01*
X71938170Y-54787524D02*
X71700075Y-54787524D01*
X71700075Y-54787524D02*
X71604837Y-54835144D01*
X71604837Y-54835144D02*
X71557218Y-54930382D01*
X71557218Y-54930382D02*
X71557218Y-55025620D01*
X71557218Y-55025620D02*
X71604837Y-55120858D01*
X71604837Y-55120858D02*
X71700075Y-55168477D01*
X71700075Y-55168477D02*
X71938170Y-55168477D01*
X71938170Y-55168477D02*
X72033408Y-55216096D01*
X72509599Y-54787524D02*
X72509599Y-55454191D01*
X72509599Y-55787524D02*
X72461980Y-55739905D01*
X72461980Y-55739905D02*
X72509599Y-55692286D01*
X72509599Y-55692286D02*
X72557218Y-55739905D01*
X72557218Y-55739905D02*
X72509599Y-55787524D01*
X72509599Y-55787524D02*
X72509599Y-55692286D01*
X72985789Y-55454191D02*
X72985789Y-54787524D01*
X72985789Y-55358953D02*
X73033408Y-55406572D01*
X73033408Y-55406572D02*
X73128646Y-55454191D01*
X73128646Y-55454191D02*
X73271503Y-55454191D01*
X73271503Y-55454191D02*
X73366741Y-55406572D01*
X73366741Y-55406572D02*
X73414360Y-55311334D01*
X73414360Y-55311334D02*
X73414360Y-54787524D01*
X74509599Y-55787524D02*
X75081027Y-55787524D01*
X74795313Y-54787524D02*
X74795313Y-55787524D01*
X75414361Y-54787524D02*
X75414361Y-55454191D01*
X75414361Y-55263715D02*
X75461980Y-55358953D01*
X75461980Y-55358953D02*
X75509599Y-55406572D01*
X75509599Y-55406572D02*
X75604837Y-55454191D01*
X75604837Y-55454191D02*
X75700075Y-55454191D01*
X76461980Y-54787524D02*
X76461980Y-55311334D01*
X76461980Y-55311334D02*
X76414361Y-55406572D01*
X76414361Y-55406572D02*
X76319123Y-55454191D01*
X76319123Y-55454191D02*
X76128647Y-55454191D01*
X76128647Y-55454191D02*
X76033409Y-55406572D01*
X76461980Y-54835144D02*
X76366742Y-54787524D01*
X76366742Y-54787524D02*
X76128647Y-54787524D01*
X76128647Y-54787524D02*
X76033409Y-54835144D01*
X76033409Y-54835144D02*
X75985790Y-54930382D01*
X75985790Y-54930382D02*
X75985790Y-55025620D01*
X75985790Y-55025620D02*
X76033409Y-55120858D01*
X76033409Y-55120858D02*
X76128647Y-55168477D01*
X76128647Y-55168477D02*
X76366742Y-55168477D01*
X76366742Y-55168477D02*
X76461980Y-55216096D01*
X77366742Y-54835144D02*
X77271504Y-54787524D01*
X77271504Y-54787524D02*
X77081028Y-54787524D01*
X77081028Y-54787524D02*
X76985790Y-54835144D01*
X76985790Y-54835144D02*
X76938171Y-54882763D01*
X76938171Y-54882763D02*
X76890552Y-54978001D01*
X76890552Y-54978001D02*
X76890552Y-55263715D01*
X76890552Y-55263715D02*
X76938171Y-55358953D01*
X76938171Y-55358953D02*
X76985790Y-55406572D01*
X76985790Y-55406572D02*
X77081028Y-55454191D01*
X77081028Y-55454191D02*
X77271504Y-55454191D01*
X77271504Y-55454191D02*
X77366742Y-55406572D01*
X77795314Y-54787524D02*
X77795314Y-55787524D01*
X77890552Y-55168477D02*
X78176266Y-54787524D01*
X78176266Y-55454191D02*
X77795314Y-55073239D01*
X78985790Y-54835144D02*
X78890552Y-54787524D01*
X78890552Y-54787524D02*
X78700076Y-54787524D01*
X78700076Y-54787524D02*
X78604838Y-54835144D01*
X78604838Y-54835144D02*
X78557219Y-54930382D01*
X78557219Y-54930382D02*
X78557219Y-55311334D01*
X78557219Y-55311334D02*
X78604838Y-55406572D01*
X78604838Y-55406572D02*
X78700076Y-55454191D01*
X78700076Y-55454191D02*
X78890552Y-55454191D01*
X78890552Y-55454191D02*
X78985790Y-55406572D01*
X78985790Y-55406572D02*
X79033409Y-55311334D01*
X79033409Y-55311334D02*
X79033409Y-55216096D01*
X79033409Y-55216096D02*
X78557219Y-55120858D01*
X79461981Y-54787524D02*
X79461981Y-55454191D01*
X79461981Y-55263715D02*
X79509600Y-55358953D01*
X79509600Y-55358953D02*
X79557219Y-55406572D01*
X79557219Y-55406572D02*
X79652457Y-55454191D01*
X79652457Y-55454191D02*
X79747695Y-55454191D01*
X80700077Y-55787524D02*
X81271505Y-55787524D01*
X80985791Y-54787524D02*
X80985791Y-55787524D01*
X81985791Y-54835144D02*
X81890553Y-54787524D01*
X81890553Y-54787524D02*
X81700077Y-54787524D01*
X81700077Y-54787524D02*
X81604839Y-54835144D01*
X81604839Y-54835144D02*
X81557220Y-54930382D01*
X81557220Y-54930382D02*
X81557220Y-55311334D01*
X81557220Y-55311334D02*
X81604839Y-55406572D01*
X81604839Y-55406572D02*
X81700077Y-55454191D01*
X81700077Y-55454191D02*
X81890553Y-55454191D01*
X81890553Y-55454191D02*
X81985791Y-55406572D01*
X81985791Y-55406572D02*
X82033410Y-55311334D01*
X82033410Y-55311334D02*
X82033410Y-55216096D01*
X82033410Y-55216096D02*
X81557220Y-55120858D01*
X82414363Y-54835144D02*
X82509601Y-54787524D01*
X82509601Y-54787524D02*
X82700077Y-54787524D01*
X82700077Y-54787524D02*
X82795315Y-54835144D01*
X82795315Y-54835144D02*
X82842934Y-54930382D01*
X82842934Y-54930382D02*
X82842934Y-54978001D01*
X82842934Y-54978001D02*
X82795315Y-55073239D01*
X82795315Y-55073239D02*
X82700077Y-55120858D01*
X82700077Y-55120858D02*
X82557220Y-55120858D01*
X82557220Y-55120858D02*
X82461982Y-55168477D01*
X82461982Y-55168477D02*
X82414363Y-55263715D01*
X82414363Y-55263715D02*
X82414363Y-55311334D01*
X82414363Y-55311334D02*
X82461982Y-55406572D01*
X82461982Y-55406572D02*
X82557220Y-55454191D01*
X82557220Y-55454191D02*
X82700077Y-55454191D01*
X82700077Y-55454191D02*
X82795315Y-55406572D01*
X83128649Y-55454191D02*
X83509601Y-55454191D01*
X83271506Y-55787524D02*
X83271506Y-54930382D01*
X83271506Y-54930382D02*
X83319125Y-54835144D01*
X83319125Y-54835144D02*
X83414363Y-54787524D01*
X83414363Y-54787524D02*
X83509601Y-54787524D01*
X84938173Y-55311334D02*
X85081030Y-55263715D01*
X85081030Y-55263715D02*
X85128649Y-55216096D01*
X85128649Y-55216096D02*
X85176268Y-55120858D01*
X85176268Y-55120858D02*
X85176268Y-54978001D01*
X85176268Y-54978001D02*
X85128649Y-54882763D01*
X85128649Y-54882763D02*
X85081030Y-54835144D01*
X85081030Y-54835144D02*
X84985792Y-54787524D01*
X84985792Y-54787524D02*
X84604840Y-54787524D01*
X84604840Y-54787524D02*
X84604840Y-55787524D01*
X84604840Y-55787524D02*
X84938173Y-55787524D01*
X84938173Y-55787524D02*
X85033411Y-55739905D01*
X85033411Y-55739905D02*
X85081030Y-55692286D01*
X85081030Y-55692286D02*
X85128649Y-55597048D01*
X85128649Y-55597048D02*
X85128649Y-55501810D01*
X85128649Y-55501810D02*
X85081030Y-55406572D01*
X85081030Y-55406572D02*
X85033411Y-55358953D01*
X85033411Y-55358953D02*
X84938173Y-55311334D01*
X84938173Y-55311334D02*
X84604840Y-55311334D01*
X85747697Y-54787524D02*
X85652459Y-54835144D01*
X85652459Y-54835144D02*
X85604840Y-54882763D01*
X85604840Y-54882763D02*
X85557221Y-54978001D01*
X85557221Y-54978001D02*
X85557221Y-55263715D01*
X85557221Y-55263715D02*
X85604840Y-55358953D01*
X85604840Y-55358953D02*
X85652459Y-55406572D01*
X85652459Y-55406572D02*
X85747697Y-55454191D01*
X85747697Y-55454191D02*
X85890554Y-55454191D01*
X85890554Y-55454191D02*
X85985792Y-55406572D01*
X85985792Y-55406572D02*
X86033411Y-55358953D01*
X86033411Y-55358953D02*
X86081030Y-55263715D01*
X86081030Y-55263715D02*
X86081030Y-54978001D01*
X86081030Y-54978001D02*
X86033411Y-54882763D01*
X86033411Y-54882763D02*
X85985792Y-54835144D01*
X85985792Y-54835144D02*
X85890554Y-54787524D01*
X85890554Y-54787524D02*
X85747697Y-54787524D01*
X86938173Y-54787524D02*
X86938173Y-55311334D01*
X86938173Y-55311334D02*
X86890554Y-55406572D01*
X86890554Y-55406572D02*
X86795316Y-55454191D01*
X86795316Y-55454191D02*
X86604840Y-55454191D01*
X86604840Y-55454191D02*
X86509602Y-55406572D01*
X86938173Y-54835144D02*
X86842935Y-54787524D01*
X86842935Y-54787524D02*
X86604840Y-54787524D01*
X86604840Y-54787524D02*
X86509602Y-54835144D01*
X86509602Y-54835144D02*
X86461983Y-54930382D01*
X86461983Y-54930382D02*
X86461983Y-55025620D01*
X86461983Y-55025620D02*
X86509602Y-55120858D01*
X86509602Y-55120858D02*
X86604840Y-55168477D01*
X86604840Y-55168477D02*
X86842935Y-55168477D01*
X86842935Y-55168477D02*
X86938173Y-55216096D01*
X87414364Y-54787524D02*
X87414364Y-55454191D01*
X87414364Y-55263715D02*
X87461983Y-55358953D01*
X87461983Y-55358953D02*
X87509602Y-55406572D01*
X87509602Y-55406572D02*
X87604840Y-55454191D01*
X87604840Y-55454191D02*
X87700078Y-55454191D01*
X88461983Y-54787524D02*
X88461983Y-55787524D01*
X88461983Y-54835144D02*
X88366745Y-54787524D01*
X88366745Y-54787524D02*
X88176269Y-54787524D01*
X88176269Y-54787524D02*
X88081031Y-54835144D01*
X88081031Y-54835144D02*
X88033412Y-54882763D01*
X88033412Y-54882763D02*
X87985793Y-54978001D01*
X87985793Y-54978001D02*
X87985793Y-55263715D01*
X87985793Y-55263715D02*
X88033412Y-55358953D01*
X88033412Y-55358953D02*
X88081031Y-55406572D01*
X88081031Y-55406572D02*
X88176269Y-55454191D01*
X88176269Y-55454191D02*
X88366745Y-55454191D01*
X88366745Y-55454191D02*
X88461983Y-55406572D01*
X90223888Y-54787524D02*
X89652460Y-54787524D01*
X89938174Y-54787524D02*
X89938174Y-55787524D01*
X89938174Y-55787524D02*
X89842936Y-55644667D01*
X89842936Y-55644667D02*
X89747698Y-55549429D01*
X89747698Y-55549429D02*
X89652460Y-55501810D01*
X70223884Y-53177580D02*
X70223884Y-54177580D01*
X70223884Y-54177580D02*
X70557217Y-53463295D01*
X70557217Y-53463295D02*
X70890550Y-54177580D01*
X70890550Y-54177580D02*
X70890550Y-53177580D01*
X71795312Y-53177580D02*
X71795312Y-53701390D01*
X71795312Y-53701390D02*
X71747693Y-53796628D01*
X71747693Y-53796628D02*
X71652455Y-53844247D01*
X71652455Y-53844247D02*
X71461979Y-53844247D01*
X71461979Y-53844247D02*
X71366741Y-53796628D01*
X71795312Y-53225200D02*
X71700074Y-53177580D01*
X71700074Y-53177580D02*
X71461979Y-53177580D01*
X71461979Y-53177580D02*
X71366741Y-53225200D01*
X71366741Y-53225200D02*
X71319122Y-53320438D01*
X71319122Y-53320438D02*
X71319122Y-53415676D01*
X71319122Y-53415676D02*
X71366741Y-53510914D01*
X71366741Y-53510914D02*
X71461979Y-53558533D01*
X71461979Y-53558533D02*
X71700074Y-53558533D01*
X71700074Y-53558533D02*
X71795312Y-53606152D01*
X72271503Y-53177580D02*
X72271503Y-53844247D01*
X72271503Y-53653771D02*
X72319122Y-53749009D01*
X72319122Y-53749009D02*
X72366741Y-53796628D01*
X72366741Y-53796628D02*
X72461979Y-53844247D01*
X72461979Y-53844247D02*
X72557217Y-53844247D01*
X73319122Y-53225200D02*
X73223884Y-53177580D01*
X73223884Y-53177580D02*
X73033408Y-53177580D01*
X73033408Y-53177580D02*
X72938170Y-53225200D01*
X72938170Y-53225200D02*
X72890551Y-53272819D01*
X72890551Y-53272819D02*
X72842932Y-53368057D01*
X72842932Y-53368057D02*
X72842932Y-53653771D01*
X72842932Y-53653771D02*
X72890551Y-53749009D01*
X72890551Y-53749009D02*
X72938170Y-53796628D01*
X72938170Y-53796628D02*
X73033408Y-53844247D01*
X73033408Y-53844247D02*
X73223884Y-53844247D01*
X73223884Y-53844247D02*
X73319122Y-53796628D01*
X73747694Y-53177580D02*
X73747694Y-54177580D01*
X74176265Y-53177580D02*
X74176265Y-53701390D01*
X74176265Y-53701390D02*
X74128646Y-53796628D01*
X74128646Y-53796628D02*
X74033408Y-53844247D01*
X74033408Y-53844247D02*
X73890551Y-53844247D01*
X73890551Y-53844247D02*
X73795313Y-53796628D01*
X73795313Y-53796628D02*
X73747694Y-53749009D01*
X75366742Y-54082342D02*
X75414361Y-54129961D01*
X75414361Y-54129961D02*
X75509599Y-54177580D01*
X75509599Y-54177580D02*
X75747694Y-54177580D01*
X75747694Y-54177580D02*
X75842932Y-54129961D01*
X75842932Y-54129961D02*
X75890551Y-54082342D01*
X75890551Y-54082342D02*
X75938170Y-53987104D01*
X75938170Y-53987104D02*
X75938170Y-53891866D01*
X75938170Y-53891866D02*
X75890551Y-53749009D01*
X75890551Y-53749009D02*
X75319123Y-53177580D01*
X75319123Y-53177580D02*
X75938170Y-53177580D01*
X76557218Y-54177580D02*
X76652456Y-54177580D01*
X76652456Y-54177580D02*
X76747694Y-54129961D01*
X76747694Y-54129961D02*
X76795313Y-54082342D01*
X76795313Y-54082342D02*
X76842932Y-53987104D01*
X76842932Y-53987104D02*
X76890551Y-53796628D01*
X76890551Y-53796628D02*
X76890551Y-53558533D01*
X76890551Y-53558533D02*
X76842932Y-53368057D01*
X76842932Y-53368057D02*
X76795313Y-53272819D01*
X76795313Y-53272819D02*
X76747694Y-53225200D01*
X76747694Y-53225200D02*
X76652456Y-53177580D01*
X76652456Y-53177580D02*
X76557218Y-53177580D01*
X76557218Y-53177580D02*
X76461980Y-53225200D01*
X76461980Y-53225200D02*
X76414361Y-53272819D01*
X76414361Y-53272819D02*
X76366742Y-53368057D01*
X76366742Y-53368057D02*
X76319123Y-53558533D01*
X76319123Y-53558533D02*
X76319123Y-53796628D01*
X76319123Y-53796628D02*
X76366742Y-53987104D01*
X76366742Y-53987104D02*
X76414361Y-54082342D01*
X76414361Y-54082342D02*
X76461980Y-54129961D01*
X76461980Y-54129961D02*
X76557218Y-54177580D01*
X77271504Y-54082342D02*
X77319123Y-54129961D01*
X77319123Y-54129961D02*
X77414361Y-54177580D01*
X77414361Y-54177580D02*
X77652456Y-54177580D01*
X77652456Y-54177580D02*
X77747694Y-54129961D01*
X77747694Y-54129961D02*
X77795313Y-54082342D01*
X77795313Y-54082342D02*
X77842932Y-53987104D01*
X77842932Y-53987104D02*
X77842932Y-53891866D01*
X77842932Y-53891866D02*
X77795313Y-53749009D01*
X77795313Y-53749009D02*
X77223885Y-53177580D01*
X77223885Y-53177580D02*
X77842932Y-53177580D01*
X78747694Y-54177580D02*
X78271504Y-54177580D01*
X78271504Y-54177580D02*
X78223885Y-53701390D01*
X78223885Y-53701390D02*
X78271504Y-53749009D01*
X78271504Y-53749009D02*
X78366742Y-53796628D01*
X78366742Y-53796628D02*
X78604837Y-53796628D01*
X78604837Y-53796628D02*
X78700075Y-53749009D01*
X78700075Y-53749009D02*
X78747694Y-53701390D01*
X78747694Y-53701390D02*
X78795313Y-53606152D01*
X78795313Y-53606152D02*
X78795313Y-53368057D01*
X78795313Y-53368057D02*
X78747694Y-53272819D01*
X78747694Y-53272819D02*
X78700075Y-53225200D01*
X78700075Y-53225200D02*
X78604837Y-53177580D01*
X78604837Y-53177580D02*
X78366742Y-53177580D01*
X78366742Y-53177580D02*
X78271504Y-53225200D01*
X78271504Y-53225200D02*
X78223885Y-53272819D01*
M02*
